<?xml version="1.0" encoding="utf-8"?>
<!-- Generator: Adobe Illustrator 26.0.3, SVG Export Plug-In . SVG Version: 6.00 Build 0)  -->
<svg version="1.1" id="Layer_1" xmlns="http://www.w3.org/2000/svg" xmlns:xlink="http://www.w3.org/1999/xlink" x="0px" y="0px"
	 viewBox="0 0 258.5 228.6" style="enable-background:new 0 0 258.5 228.6;" xml:space="preserve">
<style type="text/css">
	.st0{fill:#444444;}
	.st1{fill:#19339A;}
	.st2{fill:#F9892A;}
	.st3{fill:#FFFFFF;}
	.st4{fill:#C2C2C2;}
</style>
<g transform="translate(-32 -2758)">
	<g transform="translate(156 2832.231)">
		<path class="st0" d="M65.3,5L53.5,0.1c-0.3-0.1-0.6-0.1-0.9,0L40.7,5C40.3,5.2,40,5.6,40,6.1v6c0,8.2,5,15.6,12.5,18.7
			c0.3,0.1,0.6,0.1,0.9,0C61,27.6,66,20.3,66,12.1v-6C66,5.6,65.7,5.2,65.3,5z M63.6,12.1c0,7-4.2,13.4-10.6,16.2
			c-6.4-2.8-10.6-9.2-10.6-16.2V6.9L53,2.5l10.6,4.4V12.1z M51.7,16.1l5.2-5.2c0.5-0.5,1.2-0.5,1.7,0c0.5,0.5,0.5,1.2,0,1.7l-6,6
			c-0.5,0.5-1.2,0.5-1.7,0c0,0,0,0,0,0l-3.4-3.4c-0.5-0.5-0.5-1.2,0-1.7c0.5-0.5,1.2-0.5,1.7,0l0,0L51.7,16.1z"/>
	</g>
	<g transform="translate(32 2758.005)">
		<path class="st1" d="M16.8,18.2H5.2l-3.1,8.2H0L10,0.7h2.2l9.9,25.7h-2.3L16.8,18.2z M5.9,16.3H16L11,3L5.9,16.3z"/>
		<path class="st1" d="M24.1,26.4V13.4c0-2.2,0.6-3.7,1.8-4.7c1.5-1,3.2-1.5,5-1.4c1.3-0.1,2.6,0.2,3.8,0.8c0.9,0.4,1.6,1.1,2,2
			c0.5-0.9,1.2-1.6,2.1-2c1.2-0.5,2.4-0.8,3.7-0.8c1,0,1.9,0.1,2.9,0.3c0.8,0.2,1.5,0.5,2.1,1c0.6,0.5,1.1,1.1,1.3,1.9
			c0.3,0.9,0.5,1.9,0.5,2.9v13.1h-2.1V13.5c0.1-1.2-0.3-2.5-1.1-3.4c-1-0.7-2.3-1.1-3.6-1C41.2,9,40,9.4,38.9,10.1
			c-0.9,0.9-1.3,2.1-1.1,3.3v13h-2.1V13.5c0.1-1.3-0.3-2.5-1.1-3.4c-1.1-0.7-2.3-1.1-3.6-1c-1.8,0-3,0.4-3.7,1.1
			c-0.8,1-1.1,2.2-1,3.4v12.9L24.1,26.4z"/>
		<path class="st1" d="M64,27.1c-1.9,0-3.8-0.2-5.7-0.6c-1.4-0.4-2.7-1.1-3.7-2c-1-1-1.7-2.2-2-3.6c-0.4-1.7-0.6-3.5-0.6-5.3v-4
			c0-1.8,0.2-3.5,0.6-5.2c0.4-1.4,1-2.6,2-3.6c1-1,2.3-1.7,3.7-2.1C60.1,0.2,62,0,64,0c1.9,0,3.8,0.2,5.7,0.6
			C71,1,72.3,1.7,73.3,2.7c1,1,1.7,2.2,2,3.6c0.5,1.7,0.7,3.5,0.6,5.3v4c0,1.8-0.2,3.5-0.6,5.2c-0.4,1.4-1,2.6-2,3.6
			c-1,1-2.3,1.7-3.7,2.1C67.8,26.9,65.9,27.1,64,27.1L64,27.1z M64,21.2c0.8,0,1.6-0.1,2.4-0.2c0.6-0.1,1.1-0.4,1.5-0.8
			c0.4-0.5,0.6-1.1,0.7-1.7c0.1-1,0.2-1.9,0.2-2.9v-3.9c0-1-0.1-1.9-0.2-2.9c-0.1-0.6-0.3-1.2-0.7-1.7c-0.4-0.4-0.9-0.7-1.5-0.9
			c-1.6-0.3-3.2-0.3-4.8,0C61,6.3,60.5,6.6,60.1,7c-0.4,0.5-0.7,1.1-0.7,1.7c-0.1,0.9-0.2,1.9-0.2,2.9v3.9c0,1,0.1,1.9,0.2,2.9
			c0.1,0.6,0.3,1.2,0.7,1.7c0.4,0.4,0.9,0.7,1.5,0.9C62.3,21.1,63.1,21.2,64,21.2L64,21.2z"/>
		<path class="st1" d="M93.9,15.2v0.2L83.5,0.7h-5.6v25.7h6.7V12l10.3,14.4h5.7v-2L93.9,15.2z"/>
		<path class="st2" d="M100.1,0.7h-9.9l9.9,14.5V0.7z"/>
		<path class="st1" d="M120.1,20.9h-10.5v-4.7h10.3l0.3-1.4v-4.1h-10.5V6.3h10.5V0.7h-17.3v25.7h17.3V20.9z"/>
	</g>
	<g transform="translate(196 2761)">
		<path class="st1" d="M13.2,14.3H4.1l-2.4,6.5H0L7.8,0.6h1.8l7.8,20.2h-1.8L13.2,14.3z M4.7,12.8h8l-4-10.5L4.7,12.8z"/>
		<path class="st1" d="M19,20.8V10.5c-0.1-1.4,0.4-2.7,1.4-3.7c1.2-0.8,2.5-1.2,3.9-1.1c1,0,2.1,0.2,3,0.6c0.7,0.3,1.3,0.9,1.6,1.6
			c0.4-0.7,0.9-1.3,1.6-1.6c0.9-0.4,1.9-0.6,2.9-0.6c0.8,0,1.5,0.1,2.2,0.2c0.6,0.1,1.2,0.4,1.7,0.8c0.5,0.4,0.8,0.9,1.1,1.5
			c0.3,0.7,0.4,1.5,0.4,2.3v10.3h-1.6V10.7c0.1-1-0.2-2-0.9-2.7c-0.8-0.6-1.8-0.9-2.8-0.8c-1-0.1-2,0.2-2.8,0.7
			c-0.7,0.7-1,1.7-0.9,2.6v10.3H28V10.7c0.1-1-0.2-2-0.9-2.7c-0.8-0.6-1.8-0.9-2.9-0.8c-1-0.1-2.1,0.2-2.9,0.8
			c-0.6,0.7-0.9,1.7-0.8,2.7v10.1H19z"/>
		<path class="st1" d="M50.3,21.3c-1.5,0-3-0.1-4.5-0.5c-1.1-0.3-2.1-0.8-2.9-1.6c-0.8-0.8-1.3-1.7-1.6-2.8
			c-0.3-1.4-0.5-2.8-0.5-4.2V9.1c0-1.4,0.1-2.8,0.5-4.1c0.3-1.1,0.8-2,1.6-2.8c0.8-0.8,1.8-1.3,2.9-1.6c1.5-0.4,3-0.6,4.5-0.5
			c1.5,0,3,0.1,4.5,0.5c1.1,0.3,2.1,0.8,2.9,1.6c0.8,0.8,1.3,1.8,1.6,2.8c0.4,1.3,0.5,2.7,0.5,4.1v3.1c0,1.4-0.1,2.8-0.5,4.1
			c-0.3,1.1-0.8,2-1.6,2.8c-0.8,0.8-1.8,1.3-2.9,1.6C53.4,21.2,51.9,21.4,50.3,21.3z M50.3,16.7c0.6,0,1.3,0,1.9-0.2
			c0.4-0.1,0.8-0.3,1.2-0.7c0.3-0.4,0.5-0.9,0.6-1.4c0.1-0.8,0.2-1.5,0.2-2.3V9.1c0-0.8,0-1.5-0.2-2.3c-0.1-0.5-0.3-1-0.6-1.4
			c-0.3-0.3-0.7-0.6-1.2-0.7c-1.2-0.2-2.5-0.2-3.8,0c-0.4,0.1-0.8,0.3-1.2,0.7c-0.3,0.4-0.5,0.9-0.6,1.4c-0.1,0.7-0.2,1.5-0.2,2.3
			v3.1c0,0.8,0,1.5,0.2,2.3c0.1,0.5,0.3,1,0.6,1.4c0.3,0.3,0.7,0.6,1.2,0.7C49.1,16.6,49.7,16.7,50.3,16.7z"/>
		<path class="st1" d="M73.9,12v0.1L65.7,0.6h-4.4v20.2h5.3V9.5l8.1,11.3h4.5v-1.5L73.9,12z"/>
		<path class="st2" d="M78.8,0.6H71L78.8,12V0.6z"/>
		<path class="st1" d="M94.5,16.4h-8.3v-3.7h8.1l0.2-1.1V8.4h-8.3V4.9h8.3V0.6H80.9v20.2h13.6L94.5,16.4z"/>
	</g>
	<path class="st3" d="M219.2,2918.9c0-0.1,0-0.1,0-0.2c0,0,0-0.1,0-0.1c0-0.6-0.4-1.1-0.9-1.4l-6.6-6.6c-0.3-0.3-0.7-0.4-1.1-0.4
		c-0.4,0-0.8,0.2-1.1,0.4c-0.6,0.6-0.6,1.5,0,2.1l4.4,4.4h-16.4c-0.8,0-1.5,0.7-1.5,1.5s0.7,1.5,1.5,1.5h16.7l-4.6,4.6
		c-0.6,0.6-0.6,1.5,0,2.1c0.6,0.6,1.5,0.6,2.1,0l7.1-7.1c0,0,0,0,0,0C219,2919.5,219.1,2919.2,219.2,2918.9
		C219.2,2918.9,219.2,2918.9,219.2,2918.9z"/>
	<g transform="translate(-42 1270.287)">
		<path class="st4" d="M86.5,1709.3h-9.2l3.1-3.1c0.4-0.4,0.4-1,0-1.4c-0.4-0.4-1-0.4-1.4,0c0,0,0,0,0,0l-4.7,4.7
			c-0.2,0.2-0.3,0.5-0.3,0.8c0,0,0,0,0,0c0,0.4,0.2,0.7,0.6,0.9l4.4,4.4c0.4,0.4,1,0.4,1.4,0c0.4-0.4,0.4-1,0-1.4c0,0,0,0,0,0
			l-2.9-2.9h9c0.6,0,1-0.4,1-1C87.5,1709.8,87.1,1709.3,86.5,1709.3"/>
		<path class="st4" d="M98.5,1710c0.5-0.2,0.9-0.5,1.2-0.9c0.3-0.4,0.5-0.9,0.5-1.4c0.1-0.9-0.3-1.7-0.9-2.3
			c-0.8-0.6-1.8-0.8-2.8-0.8h-3.7v11.4h3.9c1,0.1,2-0.2,2.8-0.9c0.7-0.6,1-1.5,1-2.4c0-0.6-0.2-1.2-0.5-1.7
			C99.6,1710.5,99.1,1710.2,98.5,1710 M94.2,1705.9h2.2c0.6,0,1.2,0.1,1.7,0.4c0.4,0.3,0.6,0.9,0.5,1.4c0,0.5-0.2,1-0.6,1.3
			c-0.4,0.3-1,0.5-1.6,0.5h-2.3L94.2,1705.9z M98.4,1714.2c-0.5,0.4-1.1,0.6-1.7,0.5h-2.5v-4.1h2.5c1.5,0,2.2,0.7,2.2,2.1
			C99,1713.3,98.8,1713.8,98.4,1714.2"/>
		<path class="st4" d="M96.7,1716.1h-4.1v-11.6h3.8c1-0.1,2,0.2,2.9,0.8c0.7,0.6,1,1.5,1,2.4c0,0.5-0.2,1.1-0.5,1.5
			c-0.3,0.4-0.6,0.6-1,0.9c0.5,0.2,0.9,0.5,1.2,0.9c0.4,0.5,0.6,1.2,0.6,1.8c0,0.9-0.3,1.9-1,2.5
			C98.8,1715.9,97.7,1716.2,96.7,1716.1z M92.9,1715.9h3.8c1,0.1,1.9-0.2,2.7-0.8c0.6-0.6,1-1.4,0.9-2.3c0-0.6-0.2-1.2-0.5-1.6
			c-0.3-0.5-0.8-0.8-1.4-0.9l-0.3-0.1l0.3-0.1c0.5-0.2,0.9-0.5,1.2-0.9c0.3-0.4,0.4-0.9,0.4-1.3c0.1-0.8-0.3-1.6-0.9-2.2
			c-0.8-0.5-1.7-0.8-2.7-0.7h-3.6V1715.9z M96.7,1714.9h-2.6v-4.3h2.6c1.6,0,2.4,0.7,2.4,2.2c0,0.6-0.2,1.2-0.6,1.6
			C98,1714.7,97.4,1714.9,96.7,1714.9L96.7,1714.9z M94.4,1714.6h2.4c0.6,0,1.1-0.2,1.6-0.5c0.4-0.4,0.6-0.9,0.6-1.4
			c0-1.3-0.7-1.9-2.1-1.9h-2.4V1714.6z M96.5,1709.6h-2.4v-3.9h2.3c0.6,0,1.2,0.1,1.7,0.5c0.4,0.4,0.6,0.9,0.6,1.5
			c0,0.6-0.2,1.1-0.6,1.4C97.7,1709.4,97.1,1709.6,96.5,1709.6z M94.4,1709.3h2.1c0.5,0,1.1-0.1,1.5-0.5c0.4-0.3,0.6-0.8,0.5-1.2
			c0-0.5-0.1-0.9-0.5-1.3c-0.5-0.3-1-0.4-1.6-0.4h-2.1V1709.3z"/>
		<path class="st4" d="M108.9,1710.1c0-0.8-0.3-1.5-0.9-2c-0.6-0.5-1.5-0.8-2.3-0.7c-0.6,0-1.2,0.1-1.7,0.3
			c-0.5,0.2-0.9,0.5-1.2,0.9c-0.3,0.3-0.4,0.8-0.4,1.2h1.5c0-0.4,0.2-0.7,0.5-0.9c0.4-0.3,0.8-0.4,1.3-0.4c0.5,0,1,0.1,1.3,0.4
			c0.3,0.3,0.5,0.8,0.5,1.2v0.7h-1.4c-1-0.1-2,0.2-2.8,0.7c-0.7,0.5-1,1.2-1,2.1c0,0.7,0.3,1.3,0.8,1.8c0.6,0.5,1.3,0.7,2.1,0.7
			c0.9,0,1.8-0.4,2.4-1c0,0.3,0.1,0.6,0.2,0.9h1.5v-0.1c-0.2-0.6-0.3-1.2-0.3-1.9L108.9,1710.1z M107.5,1713.6
			c-0.2,0.4-0.5,0.7-0.9,0.9c-0.4,0.2-0.8,0.4-1.3,0.4c-0.4,0-0.8-0.1-1.2-0.4c-0.3-0.3-0.5-0.7-0.5-1.1c0-1,0.9-1.6,2.7-1.6h1.1
			L107.5,1713.6z"/>
		<path class="st4" d="M105.8,1707.3c0.9,0,1.7,0.2,2.4,0.8c0.6,0.5,0.9,1.3,0.9,2.1v3.9c0,0.6,0.1,1.2,0.3,1.8l0,0v0.3h-1.7l0-0.1
			c-0.1-0.2-0.2-0.4-0.2-0.7c-0.6,0.6-1.5,0.9-2.3,0.9c-0.8,0-1.5-0.2-2.1-0.7c-0.5-0.5-0.9-1.2-0.8-1.9c0-0.8,0.4-1.7,1.1-2.2
			c0.9-0.5,1.9-0.8,2.9-0.8h1.3v-0.5c0-0.4-0.1-0.8-0.4-1.1c-0.3-0.3-0.8-0.4-1.2-0.4c-0.4,0-0.9,0.1-1.2,0.4
			c-0.3,0.2-0.5,0.5-0.5,0.8v0.1h-1.7v-0.1c0-0.5,0.2-0.9,0.5-1.3c0.3-0.4,0.8-0.8,1.3-1C104.6,1707.4,105.2,1707.3,105.8,1707.3z
			 M109.1,1715.9c-0.2-0.6-0.3-1.2-0.3-1.9v-3.9c0-0.7-0.3-1.4-0.8-1.9c-0.6-0.5-1.4-0.7-2.2-0.7c-0.6,0-1.1,0.1-1.6,0.3
			c-0.5,0.2-0.9,0.5-1.2,0.9c-0.2,0.3-0.4,0.6-0.4,1h1.2c0-0.4,0.3-0.7,0.6-0.9c0.4-0.3,0.9-0.4,1.4-0.4c0.5,0,1,0.1,1.4,0.5
			c0.3,0.3,0.5,0.8,0.5,1.3v0.8h-1.5c-1-0.1-1.9,0.2-2.8,0.7c-0.6,0.4-1,1.2-1,1.9c0,0.7,0.3,1.3,0.8,1.7c0.5,0.5,1.3,0.7,2,0.7
			c0.9,0,1.7-0.4,2.3-1l0.2-0.2l0,0.3c0,0.3,0.1,0.5,0.2,0.8H109.1z M106.3,1711.8h1.3v1.9l0,0c-0.2,0.4-0.5,0.7-0.9,1
			c-0.4,0.2-0.9,0.4-1.3,0.4c-0.5,0-0.9-0.1-1.2-0.4c-0.3-0.3-0.5-0.7-0.5-1.2C103.6,1712.3,104.5,1711.8,106.3,1711.8L106.3,1711.8
			z M107.3,1712h-1c-1.7,0-2.5,0.5-2.5,1.4c0,0.4,0.1,0.7,0.4,1c0.3,0.2,0.7,0.4,1.1,0.4c0.4,0,0.9-0.1,1.2-0.3
			c0.3-0.2,0.6-0.5,0.8-0.8L107.3,1712z"/>
		<path class="st4" d="M112.9,1709.4c0.4-0.5,1-0.8,1.7-0.8c0.5,0,1,0.2,1.4,0.5c0.4,0.4,0.6,0.8,0.6,1.3h1.4c0-0.8-0.4-1.6-1-2.2
			c-0.6-0.6-1.5-0.9-2.4-0.9c-0.7,0-1.4,0.2-2,0.5c-0.6,0.4-1,0.9-1.3,1.5c-0.3,0.7-0.5,1.4-0.5,2.2v0.2c-0.1,1.1,0.3,2.3,1,3.1
			c0.7,0.8,1.7,1.2,2.7,1.2c0.6,0,1.1-0.1,1.6-0.4c0.5-0.2,0.9-0.6,1.2-1c0.3-0.4,0.5-0.9,0.5-1.4h-1.4c0,0.5-0.3,0.9-0.6,1.2
			c-0.4,0.3-0.9,0.5-1.4,0.5c-0.7,0-1.3-0.3-1.7-0.8c-0.4-0.7-0.7-1.5-0.6-2.2v-0.3C112.2,1710.9,112.4,1710,112.9,1709.4"/>
		<path class="st4" d="M114.6,1716.3c-1.1,0-2.1-0.4-2.8-1.2c-0.7-0.9-1.1-2.1-1.1-3.2v-0.2c0-0.8,0.1-1.5,0.5-2.2
			c0.3-0.6,0.8-1.2,1.4-1.5c0.6-0.4,1.3-0.6,2.1-0.6c0.9,0,1.8,0.3,2.4,0.9c0.7,0.6,1,1.4,1,2.3l0,0.1h-1.6l0-0.1
			c0-0.5-0.2-0.9-0.6-1.3c-0.3-0.3-0.8-0.5-1.3-0.5c-0.6,0-1.2,0.2-1.6,0.7c-0.4,0.7-0.6,1.4-0.6,2.2v0.3c0,0.8,0.2,1.5,0.6,2.2
			c0.4,0.5,1,0.8,1.6,0.7c0.5,0,0.9-0.1,1.3-0.4c0.3-0.3,0.6-0.7,0.6-1.1l0-0.1h1.6l0,0.1c0,0.5-0.2,1-0.5,1.4
			c-0.3,0.5-0.8,0.8-1.3,1.1C115.7,1716.1,115.2,1716.3,114.6,1716.3z M114.6,1707.5c-0.7,0-1.4,0.2-1.9,0.5c-0.5,0.3-1,0.8-1.3,1.4
			c-0.3,0.7-0.5,1.4-0.4,2.1v0.2c-0.1,1.1,0.3,2.2,1,3.1c0.7,0.7,1.6,1.2,2.7,1.1c0.5,0,1.1-0.1,1.6-0.4c0.5-0.2,0.9-0.6,1.2-1
			c0.3-0.3,0.4-0.8,0.5-1.2h-1.1c-0.1,0.5-0.3,0.9-0.7,1.1c-0.4,0.3-0.9,0.5-1.4,0.5c-0.7,0-1.4-0.3-1.8-0.8
			c-0.5-0.7-0.7-1.5-0.6-2.3v-0.3c-0.1-0.8,0.2-1.7,0.6-2.4c0.4-0.6,1.1-0.9,1.8-0.8c0.5,0,1.1,0.2,1.5,0.6c0.4,0.3,0.6,0.8,0.6,1.3
			h1.1c0-0.8-0.4-1.5-1-2C116.2,1707.8,115.4,1707.5,114.6,1707.5z"/>
		<path class="st4" d="M122.9,1711.1l3.3-3.5h-1.8l-2.6,2.8l-0.8,0.9v-7.3h-1.4v12h1.4v-3l0.9-0.9l2.9,3.9h1.7L122.9,1711.1z"/>
		<path class="st4" d="M126.8,1716.1h-2l-2.9-3.8l-0.8,0.8v3h-1.7v-12.2h1.7v7l0.6-0.7l2.7-2.8h2.1l-3.4,3.7L126.8,1716.1z
			 M124.9,1715.9h1.4l-3.6-4.8l3.2-3.4h-1.4l-2.6,2.7l-1,1.2v-7.5h-1.2v11.7h1.2v-2.9l1-1.1L124.9,1715.9z"/>
	</g>
	<g transform="translate(40 1270.286)">
		<path class="st1" d="M86.5,1709.3h-9.2l3.1-3.1c0.4-0.4,0.4-1,0-1.4c-0.4-0.4-1-0.4-1.4,0c0,0,0,0,0,0l-4.7,4.7
			c-0.2,0.2-0.3,0.5-0.3,0.8c0,0,0,0,0,0c0,0.4,0.2,0.7,0.6,0.9l4.4,4.4c0.4,0.4,1,0.4,1.4,0c0.4-0.4,0.4-1,0-1.4c0,0,0,0,0,0
			l-2.9-2.9h9c0.6,0,1-0.4,1-1C87.5,1709.8,87.1,1709.3,86.5,1709.3"/>
		<path class="st1" d="M98.5,1710c0.5-0.2,0.9-0.5,1.2-0.9c0.3-0.4,0.5-0.9,0.5-1.4c0.1-0.9-0.3-1.7-0.9-2.3
			c-0.8-0.6-1.8-0.8-2.8-0.8h-3.7v11.4h3.9c1,0.1,2-0.2,2.8-0.9c0.7-0.6,1-1.5,1-2.4c0-0.6-0.2-1.2-0.5-1.7
			C99.6,1710.5,99.1,1710.2,98.5,1710 M94.2,1705.9h2.2c0.6,0,1.2,0.1,1.7,0.4c0.4,0.3,0.6,0.9,0.5,1.4c0,0.5-0.2,1-0.6,1.3
			c-0.4,0.3-1,0.5-1.6,0.5h-2.3L94.2,1705.9z M98.4,1714.2c-0.5,0.4-1.1,0.6-1.7,0.5h-2.5v-4.1h2.5c1.5,0,2.2,0.7,2.2,2.1
			C99,1713.3,98.8,1713.8,98.4,1714.2"/>
		<path class="st1" d="M96.7,1716.1h-4.1v-11.6h3.8c1-0.1,2,0.2,2.9,0.8c0.7,0.6,1,1.5,1,2.4c0,0.5-0.2,1.1-0.5,1.5
			c-0.3,0.4-0.6,0.6-1,0.9c0.5,0.2,0.9,0.5,1.2,0.9c0.4,0.5,0.6,1.2,0.6,1.8c0,0.9-0.3,1.9-1,2.5
			C98.8,1715.9,97.7,1716.2,96.7,1716.1z M92.9,1715.9h3.8c1,0.1,1.9-0.2,2.7-0.8c0.6-0.6,1-1.4,0.9-2.3c0-0.6-0.2-1.2-0.5-1.6
			c-0.3-0.5-0.8-0.8-1.4-0.9l-0.3-0.1l0.3-0.1c0.5-0.2,0.9-0.5,1.2-0.9c0.3-0.4,0.4-0.9,0.4-1.3c0.1-0.8-0.3-1.6-0.9-2.2
			c-0.8-0.5-1.7-0.8-2.7-0.7h-3.6V1715.9z M96.7,1714.9h-2.6v-4.3h2.6c1.6,0,2.4,0.7,2.4,2.2c0,0.6-0.2,1.2-0.6,1.6
			C98,1714.7,97.4,1714.9,96.7,1714.9L96.7,1714.9z M94.4,1714.6h2.4c0.6,0,1.1-0.2,1.6-0.5c0.4-0.4,0.6-0.9,0.6-1.4
			c0-1.3-0.7-1.9-2.1-1.9h-2.4V1714.6z M96.5,1709.6h-2.4v-3.9h2.3c0.6,0,1.2,0.1,1.7,0.5c0.4,0.4,0.6,0.9,0.6,1.5
			c0,0.6-0.2,1.1-0.6,1.4C97.7,1709.4,97.1,1709.6,96.5,1709.6z M94.4,1709.3h2.1c0.5,0,1.1-0.1,1.5-0.5c0.4-0.3,0.6-0.8,0.5-1.2
			c0-0.5-0.1-0.9-0.5-1.3c-0.5-0.3-1-0.4-1.6-0.4h-2.1V1709.3z"/>
		<path class="st1" d="M108.9,1710.1c0-0.8-0.3-1.5-0.9-2c-0.6-0.5-1.5-0.8-2.3-0.7c-0.6,0-1.2,0.1-1.7,0.3
			c-0.5,0.2-0.9,0.5-1.2,0.9c-0.3,0.3-0.4,0.8-0.4,1.2h1.5c0-0.4,0.2-0.7,0.5-0.9c0.4-0.3,0.8-0.4,1.3-0.4c0.5,0,1,0.1,1.3,0.4
			c0.3,0.3,0.5,0.8,0.5,1.2v0.7h-1.4c-1-0.1-2,0.2-2.8,0.7c-0.7,0.5-1,1.2-1,2.1c0,0.7,0.3,1.3,0.8,1.8c0.6,0.5,1.3,0.7,2.1,0.7
			c0.9,0,1.8-0.4,2.4-1c0,0.3,0.1,0.6,0.2,0.9h1.5v-0.1c-0.2-0.6-0.3-1.2-0.3-1.9L108.9,1710.1z M107.5,1713.6
			c-0.2,0.4-0.5,0.7-0.9,0.9c-0.4,0.2-0.8,0.4-1.3,0.4c-0.4,0-0.8-0.1-1.2-0.4c-0.3-0.3-0.5-0.7-0.5-1.1c0-1,0.9-1.6,2.7-1.6h1.1
			L107.5,1713.6z"/>
		<path class="st1" d="M105.8,1707.3c0.9,0,1.7,0.2,2.4,0.8c0.6,0.5,0.9,1.3,0.9,2.1v3.9c0,0.6,0.1,1.2,0.3,1.8l0,0v0.3h-1.7l0-0.1
			c-0.1-0.2-0.2-0.4-0.2-0.7c-0.6,0.6-1.5,0.9-2.3,0.9c-0.8,0-1.5-0.2-2.1-0.7c-0.5-0.5-0.9-1.2-0.8-1.9c0-0.8,0.4-1.7,1.1-2.2
			c0.9-0.5,1.9-0.8,2.9-0.8h1.3v-0.5c0-0.4-0.1-0.8-0.4-1.1c-0.3-0.3-0.8-0.4-1.2-0.4c-0.4,0-0.9,0.1-1.2,0.4
			c-0.3,0.2-0.5,0.5-0.5,0.8v0.1h-1.7v-0.1c0-0.5,0.2-0.9,0.5-1.3c0.3-0.4,0.8-0.8,1.3-1C104.6,1707.4,105.2,1707.3,105.8,1707.3z
			 M109.1,1715.9c-0.2-0.6-0.3-1.2-0.3-1.9v-3.9c0-0.7-0.3-1.4-0.8-1.9c-0.6-0.5-1.4-0.7-2.2-0.7c-0.6,0-1.1,0.1-1.6,0.3
			c-0.5,0.2-0.9,0.5-1.2,0.9c-0.2,0.3-0.4,0.6-0.4,1h1.2c0-0.4,0.3-0.7,0.6-0.9c0.4-0.3,0.9-0.4,1.4-0.4c0.5,0,1,0.1,1.4,0.5
			c0.3,0.3,0.5,0.8,0.5,1.3v0.8h-1.5c-1-0.1-1.9,0.2-2.8,0.7c-0.6,0.4-1,1.2-1,1.9c0,0.7,0.3,1.3,0.8,1.7c0.5,0.5,1.3,0.7,2,0.7
			c0.9,0,1.7-0.4,2.3-1l0.2-0.2l0,0.3c0,0.3,0.1,0.5,0.2,0.8H109.1z M106.3,1711.8h1.3v1.9l0,0c-0.2,0.4-0.5,0.7-0.9,1
			c-0.4,0.2-0.9,0.4-1.3,0.4c-0.5,0-0.9-0.1-1.2-0.4c-0.3-0.3-0.5-0.7-0.5-1.2C103.6,1712.3,104.5,1711.8,106.3,1711.8L106.3,1711.8
			z M107.3,1712h-1c-1.7,0-2.5,0.5-2.5,1.4c0,0.4,0.1,0.7,0.4,1c0.3,0.2,0.7,0.4,1.1,0.4c0.4,0,0.9-0.1,1.2-0.3
			c0.3-0.2,0.6-0.5,0.8-0.8L107.3,1712z"/>
		<path class="st1" d="M112.9,1709.4c0.4-0.5,1-0.8,1.7-0.8c0.5,0,1,0.2,1.4,0.5c0.4,0.4,0.6,0.8,0.6,1.3h1.4c0-0.8-0.4-1.6-1-2.2
			c-0.6-0.6-1.5-0.9-2.4-0.9c-0.7,0-1.4,0.2-2,0.5c-0.6,0.4-1,0.9-1.3,1.5c-0.3,0.7-0.5,1.4-0.5,2.2v0.2c-0.1,1.1,0.3,2.3,1,3.1
			c0.7,0.8,1.7,1.2,2.7,1.2c0.6,0,1.1-0.1,1.6-0.4c0.5-0.2,0.9-0.6,1.2-1c0.3-0.4,0.5-0.9,0.5-1.4h-1.4c0,0.5-0.3,0.9-0.6,1.2
			c-0.4,0.3-0.9,0.5-1.4,0.5c-0.7,0-1.3-0.3-1.7-0.8c-0.4-0.7-0.7-1.5-0.6-2.2v-0.3C112.2,1710.9,112.4,1710,112.9,1709.4"/>
		<path class="st1" d="M114.6,1716.3c-1.1,0-2.1-0.4-2.8-1.2c-0.7-0.9-1.1-2.1-1.1-3.2v-0.2c0-0.8,0.1-1.5,0.5-2.2
			c0.3-0.6,0.8-1.2,1.4-1.5c0.6-0.4,1.3-0.6,2.1-0.6c0.9,0,1.8,0.3,2.4,0.9c0.7,0.6,1,1.4,1,2.3l0,0.1h-1.6l0-0.1
			c0-0.5-0.2-0.9-0.6-1.3c-0.3-0.3-0.8-0.5-1.3-0.5c-0.6,0-1.2,0.2-1.6,0.7c-0.4,0.7-0.6,1.4-0.6,2.2v0.3c0,0.8,0.2,1.5,0.6,2.2
			c0.4,0.5,1,0.8,1.6,0.7c0.5,0,0.9-0.1,1.3-0.4c0.3-0.3,0.6-0.7,0.6-1.1l0-0.1h1.6l0,0.1c0,0.5-0.2,1-0.5,1.4
			c-0.3,0.5-0.8,0.8-1.3,1.1C115.7,1716.1,115.2,1716.3,114.6,1716.3z M114.6,1707.5c-0.7,0-1.4,0.2-1.9,0.5c-0.5,0.3-1,0.8-1.3,1.4
			c-0.3,0.7-0.5,1.4-0.4,2.1v0.2c-0.1,1.1,0.3,2.2,1,3.1c0.7,0.7,1.6,1.2,2.7,1.1c0.5,0,1.1-0.1,1.6-0.4c0.5-0.2,0.9-0.6,1.2-1
			c0.3-0.3,0.4-0.8,0.5-1.2h-1.1c-0.1,0.5-0.3,0.9-0.7,1.1c-0.4,0.3-0.9,0.5-1.4,0.5c-0.7,0-1.4-0.3-1.8-0.8
			c-0.5-0.7-0.7-1.5-0.6-2.3v-0.3c-0.1-0.8,0.2-1.7,0.6-2.4c0.4-0.6,1.1-0.9,1.8-0.8c0.5,0,1.1,0.2,1.5,0.6c0.4,0.3,0.6,0.8,0.6,1.3
			h1.1c0-0.8-0.4-1.5-1-2C116.2,1707.8,115.4,1707.5,114.6,1707.5z"/>
		<path class="st1" d="M122.9,1711.1l3.3-3.5h-1.8l-2.6,2.8l-0.8,0.9v-7.3h-1.4v12h1.4v-3l0.9-0.9l2.9,3.9h1.7L122.9,1711.1z"/>
		<path class="st1" d="M126.8,1716.1h-2l-2.9-3.8l-0.8,0.8v3h-1.7v-12.2h1.7v7l0.6-0.7l2.7-2.8h2.1l-3.4,3.7L126.8,1716.1z
			 M124.9,1715.9h1.4l-3.6-4.8l3.2-3.4h-1.4l-2.6,2.7l-1,1.2v-7.5h-1.2v11.7h1.2v-2.9l1-1.1L124.9,1715.9z"/>
	</g>
	<path class="st4" d="M53.7,2917.1H37.3l4.4-4.4c0.6-0.6,0.6-1.5,0-2.1c-0.6-0.6-1.5-0.6-2.1,0l-6.6,6.6c-0.5,0.2-0.9,0.8-0.9,1.4
		c0,0,0,0.1,0,0.1c0,0.1,0,0.1,0,0.2c0,0,0,0,0,0c0,0.3,0.2,0.6,0.4,0.9l7.1,7.1c0.3,0.3,0.7,0.4,1.1,0.4l0,0c0.4,0,0.8-0.2,1.1-0.4
		c0.6-0.6,0.6-1.5,0-2.1l-4.6-4.6h16.7c0.8,0,1.5-0.7,1.5-1.5C55.2,2917.7,54.5,2917.1,53.7,2917.1z"/>
	<path class="st1" d="M135.7,2917.1h-16.4l4.4-4.4c0.6-0.6,0.6-1.5,0-2.1c-0.6-0.6-1.5-0.6-2.1,0l-6.6,6.6c-0.5,0.2-0.9,0.8-0.9,1.4
		c0,0,0,0.1,0,0.1c0,0.1,0,0.1,0,0.2c0,0,0,0,0,0c0,0.3,0.2,0.6,0.4,0.9l7.1,7.1c0.3,0.3,0.7,0.4,1.1,0.4l0,0c0.4,0,0.8-0.2,1.1-0.4
		c0.6-0.6,0.6-1.5,0-2.1l-4.6-4.6h16.7c0.8,0,1.5-0.7,1.5-1.5C137.2,2917.7,136.5,2917.1,135.7,2917.1z"/>
	<g transform="translate(-226.992 2762.235)">
		<path d="M361.5,76.5c-4.7-4.7-12.3-4.7-17,0c-4.7,4.7-4.7,12.3,0,17c4.7,4.7,12.3,4.7,17,0c0,0,0,0,0,0
			C366.2,88.8,366.2,81.2,361.5,76.5z M357.7,89.7c-0.4,0.4-0.9,0.4-1.3,0c0,0,0,0,0,0l-3.4-3.4l-3.6,3.6c-0.4,0.4-0.9,0.4-1.3,0
			c-0.4-0.4-0.4-0.9,0-1.3l3.6-3.6l-3.4-3.4c-0.4-0.4-0.4-0.9,0-1.3s0.9-0.4,1.3,0c0,0,0,0,0,0l3.4,3.4l3.3-3.3
			c0.4-0.4,0.9-0.4,1.3,0c0.4,0.4,0.4,0.9,0,1.3l-3.3,3.3l3.4,3.4C358.1,88.8,358.1,89.4,357.7,89.7z"/>
	</g>
	<g transform="translate(-198 2597.229)">
		<circle class="st2" cx="240" cy="250" r="10"/>
		<g transform="translate(234.933 245.756)">
			<path class="st3" d="M10.1,0.2c-0.3-0.2-0.6-0.2-0.9,0l0,0l-6,6L1.1,4.1C0.9,3.8,0.5,3.8,0.2,4c-0.3,0.2-0.3,0.7,0,0.9l0,0
				l2.6,2.6c0.3,0.3,0.7,0.3,0.9,0l6.5-6.5C10.4,0.8,10.4,0.4,10.1,0.2C10.1,0.2,10.1,0.2,10.1,0.2z"/>
		</g>
	</g>
</g>
</svg>
