<?xml version="1.0" encoding="utf-8"?>
<!-- Generator: Adobe Illustrator 26.0.1, SVG Export Plug-In . SVG Version: 6.00 Build 0)  -->
<svg version="1.1" id="Layer_1" xmlns="http://www.w3.org/2000/svg" xmlns:xlink="http://www.w3.org/1999/xlink" x="0px" y="0px"
	 viewBox="0 0 509 335.3" style="enable-background:new 0 0 509 335.3;" xml:space="preserve">
<style type="text/css">
	.st0{fill:#19339A;}
	.st1{fill:#F9892A;}
	.st2{fill:#E4E8FF;}
	.st3{fill:#FFFFFF;}
	.st4{fill:#EDEFFC;}
	.st5{fill:#F87237;}
	.st6{fill:#4F4282;}
	.st7{fill:#434343;}
	.st8{fill:#6C7175;}
	.st9{fill:#E9E8E7;}
	.st10{fill:#B27A2B;}
	.st11{fill:#267BA9;}
	.st12{fill:#ABD0EE;}
</style>
<g transform="translate(103.267 -104.653)">
	<g transform="translate(37.938 124)">
		<ellipse class="st0" cx="-136.5" cy="-6.3" rx="4.7" ry="2.7"/>
		<ellipse class="st1" cx="-136.6" cy="-6.3" rx="2.9" ry="1.4"/>
		<ellipse class="st0" cx="-99.9" cy="-6.3" rx="4.7" ry="2.7"/>
		<ellipse class="st1" cx="-99.9" cy="-6.3" rx="2.9" ry="1.4"/>
		<path class="st0" d="M-132.9,12.4h6.5c0.9,0,1.7,0.8,1.7,1.7v4.2c0,0.9-0.8,1.7-1.7,1.7h-6.5c-0.9,0-1.7-0.8-1.7-1.7v-4.2
			C-134.6,13.2-133.8,12.4-132.9,12.4z"/>
		<path class="st2" d="M-132,12.4h4.6c0.5,0,0.9,0.4,0.9,0.9v4.2c0,0.5-0.4,0.9-0.9,0.9h-4.6c-0.5,0-0.9-0.4-0.9-0.9v-4.2
			C-132.9,12.8-132.5,12.4-132,12.4z"/>
		<path class="st0" d="M-109.6,12.4h6.5c0.9,0,1.7,0.8,1.7,1.7v4.2c0,0.9-0.8,1.7-1.7,1.7h-6.5c-0.9,0-1.7-0.8-1.7-1.7v-4.2
			C-111.3,13.2-110.5,12.4-109.6,12.4z"/>
		<path class="st2" d="M-108.7,12.4h4.8c0.5,0,0.9,0.4,0.9,0.9v4.2c0,0.5-0.4,0.9-0.9,0.9h-4.8c-0.5,0-0.9-0.4-0.9-0.9v-4.2
			C-109.6,12.8-109.2,12.4-108.7,12.4z"/>
		<path class="st0" d="M-135.2-5.5h34c2.5,0,4.6,2,4.6,4.5c0,0,0,0,0,0v12.4c0,1.7-1.4,3-3,3c0,0,0,0,0,0h-37c-1.7,0-3-1.4-3-3
			c0,0,0,0,0,0V-0.9C-139.8-3.4-137.7-5.5-135.2-5.5C-135.2-5.5-135.2-5.5-135.2-5.5z"/>
		<path class="st1" d="M-134.4-3.6h32.4c1.9,0,3.5,1.6,3.5,3.5c0,0,0,0,0,0v10.6c0,1.2-1,2.2-2.2,2.2c0,0,0,0,0,0h-35.1
			c-1.2,0-2.2-1-2.2-2.2c0,0,0,0,0,0V-0.1C-137.9-2-136.3-3.6-134.4-3.6C-134.4-3.6-134.4-3.6-134.4-3.6z"/>
		<path class="st0" d="M-100.8-4.4l-4.1,1.9c-1.2,0.5-2.4,0.8-3.7,0.8h-18c-1.1,0-2.2-0.2-3.2-0.6l-5.3-2.1l5.1-9
			c1.1-1.9,3.1-3,5.2-3h12.9c2,0,3.9,1,5,2.7L-100.8-4.4z"/>
		<path class="st3" d="M-103.9-5.4l-3.1,1.3c-1,0.4-2.1,0.6-3.1,0.6h-15.2c-0.9,0-1.9-0.2-2.7-0.5l-4.1-1.5l4-6.9
			c1-1.5,2.6-2.3,4.4-2.3h10.9c1.7,0,3.2,0.7,4.3,2.1L-103.9-5.4z"/>
		<circle class="st0" cx="-131.5" cy="4.1" r="3.7"/>
		<circle class="st0" cx="-105" cy="4.1" r="3.7"/>
		<circle class="st4" cx="-131.5" cy="4.1" r="2.2"/>
		<circle class="st4" cx="-105.1" cy="4.1" r="2.3"/>
		<path class="st0" d="M-113,9.2h-10.5c-0.7,0-1.2-0.5-1.3-1.1l-0.6-4.1c-0.1-0.7,0.4-1.4,1.1-1.5c0.1,0,0.1,0,0.2,0h11.7
			c0.7,0,1.3,0.6,1.4,1.3c0,0.1,0,0.1,0,0.2l-0.6,4.1C-111.7,8.7-112.3,9.2-113,9.2L-113,9.2z"/>
		<path class="st3" d="M-114.2,7.9h-8.1c-0.5,0-0.9-0.3-1-0.7l-0.5-2.5c-0.1-0.5,0.4-1,1-1h9c0.6,0,1.1,0.5,1,1l-0.5,2.5
			C-113.3,7.6-113.7,7.9-114.2,7.9z"/>
	</g>
	<g transform="translate(-239 55.002)">
		<g transform="translate(375.999 72.998)">
			<g transform="translate(0.75)">
				<path class="st5" d="M-117.4,10.5c0.1,2.2-2.1,6.7-3.8,6.7c-0.6-0.1-1.2-0.5-1.6-1c-1-1.2-2-2.5-2.7-3.9v0
					c0-0.1-0.1-0.2-0.1-0.3c1.4-0.3,2.4-1.5,2.4-2.9c0-0.1,0-0.3,0-0.4c0.2,0,0.6,0.1,1,0.1c1.1,0.1,2.7,0.3,4,0.4
					c0.4,0,0.7,0.3,0.8,0.7c0,0,0,0,0,0.1v0C-117.5,10.2-117.4,10.3-117.4,10.5z"/>
				<path class="st0" d="M-124.2,7.9l1.1,0.1c0.2,0,0.5,0.1,0.9,0.1h0c1,0.1,2.4,0.3,4,0.4c0.7,0.1,1.2,0.6,1.4,1.3v0
					c0,0,0,0.1,0,0.2c0,0.1,0.1,0.3,0.1,0.5c-0.1,2.4-1.1,4.7-2.6,6.5c-0.5,0.6-1.1,0.9-1.8,1h0c-0.8-0.1-1.6-0.5-2.1-1.2
					c-1.1-1.2-2-2.6-2.8-4l-0.1-0.2v-0.1c0,0,0-0.1-0.1-0.2l-0.2-0.7l0.7-0.2c1.1-0.2,1.8-1.2,1.8-2.3c0-0.1,0-0.2,0-0.3L-124.2,7.9
					z M-122.4,9.5l-0.2,0c-0.1,1.3-0.9,2.4-2.1,3c0.7,1.2,1.4,2.2,2.3,3.2c0.7,0.8,1.1,0.8,1.1,0.8c0.1,0,0.4-0.1,0.8-0.6
					c1.3-1.5,2.1-3.4,2.3-5.4c0-0.1,0-0.2,0-0.2l0-0.1v0c-0.1-0.2-0.1-0.2-0.2-0.2C-120,9.8-121.4,9.6-122.4,9.5L-122.4,9.5z"/>
				<path class="st5" d="M-123.3,8.7c0,0.1,0,0.3,0,0.4c0,1.4-1,2.6-2.4,2.9c-0.2,0-0.4,0.1-0.6,0.1c-0.5,0-1-0.1-1.4-0.4
					c-0.6-0.3-1.1-0.9-1.4-1.6c-0.1-0.3-0.2-0.7-0.2-1.1c0-1.2,0.7-2.2,1.7-2.7c0.4-0.2,0.8-0.3,1.3-0.3
					C-124.8,6.1-123.5,7.2-123.3,8.7z"/>
				<path class="st0" d="M-126.3,5.4c1.8,0,3.4,1.3,3.6,3.1c0,0.2,0,0.4,0,0.6c0,1.8-1.2,3.3-2.9,3.6h0c-0.2,0-0.5,0.1-0.7,0.1
					c-0.6,0-1.2-0.2-1.8-0.4c-0.8-0.4-1.4-1.1-1.7-1.9c-0.2-0.4-0.3-0.9-0.3-1.3c0-1.4,0.8-2.7,2.1-3.3
					C-127.4,5.6-126.8,5.4-126.3,5.4z M-125.8,11.4c1.1-0.2,1.8-1.2,1.8-2.2c0-0.1,0-0.2,0-0.3l0,0c-0.2-1.1-1.1-2-2.3-2
					c-0.3,0-0.7,0.1-1,0.2l0,0c-0.8,0.4-1.3,1.2-1.3,2.1c0,0.3,0,0.6,0.1,0.8l0,0c0.2,0.5,0.6,0.9,1,1.2c0.3,0.2,0.7,0.3,1.1,0.3
					C-126.1,11.4-126,11.4-125.8,11.4L-125.8,11.4z"/>
				<path class="st5" d="M-129.3,9.1c0,0.4,0.1,0.7,0.2,1.1c-0.2,0-0.4,0-0.6,0c-0.3,0-0.8-0.1-1.3-0.1c-1.1-0.1-2.5-0.2-3.8-0.4
					c-0.8-0.1-1-1-0.8-2.2c0.1-0.3,0.1-0.6,0.2-0.9c0.4-1.3,1-2.4,1.7-3.5v0c0,0,0,0,0,0v0c0,0,0.1-0.1,0.1-0.1
					c0.1-0.1,0.2-0.2,0.3-0.3h0c0.3-0.5,0.8-0.8,1.3-0.9c0.4,0.1,0.8,0.3,1.1,0.6c0.4,0.4,0.8,0.8,1.2,1.3v0
					c0.6,0.7,1.1,1.4,1.5,2.2c0.2,0.3,0.4,0.6,0.5,0.8C-128.6,6.9-129.3,8-129.3,9.1z"/>
				<path class="st0" d="M-128,10.9l-1.1,0c-0.2,0-0.5,0-0.7,0h0l-0.3,0c-0.3,0-0.7-0.1-1.1-0.1h0c-1.3-0.1-2.6-0.2-3.8-0.4h0
					c-0.4,0-0.8-0.3-1.1-0.6c-0.4-0.7-0.5-1.6-0.3-2.4c0.1-0.3,0.1-0.7,0.2-1c0.3-1.1,0.8-2.1,1.4-3.1h-0.2l1-1.2
					c0.4-0.6,1.1-1,1.9-1.1c0.6,0,1.1,0.3,1.6,0.7c0.5,0.4,0.9,0.9,1.3,1.4l0.2,0.2v0c0.5,0.7,1,1.3,1.4,2c0.2,0.3,0.4,0.6,0.5,0.8
					l0.4,0.7l-0.7,0.3c-0.8,0.4-1.3,1.2-1.3,2.1c0,0.3,0,0.5,0.1,0.8L-128,10.9z M-130.9,9.3c0.4,0,0.7,0.1,1,0.1c0-0.1,0-0.2,0-0.3
					c0-1.2,0.5-2.2,1.5-2.9l-0.1-0.1l0,0c-0.5-0.7-0.9-1.4-1.5-2.1l-0.2-0.2c-0.3-0.4-0.6-0.7-1-1l0,0c-0.4-0.4-0.6-0.4-0.6-0.4
					s-0.2,0-0.8,0.6c-0.1,0.1-0.2,0.2-0.3,0.3v0l-0.2,0.2l0,0c-0.7,1-1.3,2.1-1.6,3.3c-0.1,0.3-0.2,0.6-0.2,0.9
					c-0.1,0.4-0.1,0.9,0.1,1.4c0,0,0,0,0.1,0.1C-133.5,9.1-132.2,9.2-130.9,9.3L-130.9,9.3z"/>
				<path class="st5" d="M-133.6,3C-133.6,3-133.6,3-133.6,3L-133.6,3c-0.8,1.1-1.4,2.3-1.8,3.5h0c-4.5-3-5.9-5.2-5.9-5.2l0,0
					c0.4-1.2,1.1-2.4,1.9-3.5l0.4-0.5l0.3-0.3l0,0c1.6,2.1,3.5,3.9,5.5,5.5c-0.1,0.1-0.2,0.2-0.3,0.3C-133.5,2.9-133.5,2.9-133.6,3z
					"/>
				<path class="st0" d="M-134.8,7.2h-0.7l-0.2-0.1c-2.3-1.4-4.3-3.2-6-5.2l-0.4-0.2l0.2-0.6c0.5-1.3,1.1-2.6,2-3.7l0.6-0.8l0.5-0.6
					l0.6,0.6l0,0c1.6,2,3.4,3.8,5.4,5.3l0.6,0.5l-0.5,0.6c-0.1,0.1-0.2,0.2-0.2,0.3l0,0l0,0l-0.1,0.1c-0.7,1-1.3,2.1-1.6,3.3
					L-134.8,7.2z M-140.5,1.2c1.4,1.6,3,3.1,4.8,4.2c0.4-1,0.9-1.9,1.5-2.7c0,0,0,0,0-0.1c-1.7-1.3-3.2-2.8-4.6-4.5l-0.1,0.1
					C-139.5-0.8-140.1,0.1-140.5,1.2z"/>
				<path class="st2" d="M-106.8-3.6c0,0-6.1,2.4-16.8,1.5c-6.1-7.2-3.4-16.5-3.4-16.5c6.2-2.9,11-4.3,18.6-3.5
					C-105.6-15-105.6-10.4-106.8-3.6L-106.8-3.6L-106.8-3.6z M-120.5-16.9c-0.2,0.1-0.5,0.3-0.7,0.5l0,0c-0.5-0.8-1.5-1.1-2.3-0.6
					c-0.8,0.5-1.1,1.5-0.6,2.3l0,0c0.2,0.4,0.6,0.6,1,0.7l0,0c-1.6,3.4-0.1,7.4,3.2,9c2,1,4.4,0.8,6.3-0.3c0.2-0.1,0.5-0.3,0.7-0.5
					l0,0v0c0.5,0.8,1.5,1.1,2.3,0.6c0.8-0.5,1.1-1.5,0.6-2.3c-0.2-0.4-0.6-0.6-1-0.7l0,0c1.6-3.4,0.1-7.4-3.2-9
					C-116.2-18.2-118.6-18.1-120.5-16.9L-120.5-16.9z"/>
				<path class="st0" d="M-118.8-1.2c-1.6,0-3.3-0.1-4.9-0.2l-0.3,0l-0.2-0.2c-1.5-1.7-2.6-3.7-3.2-5.8c-0.6-1.8-0.9-3.6-0.9-5.5
					c-0.1-1.9,0.1-3.9,0.6-5.8l0.1-0.3l0.3-0.1c5-2.3,9.3-3.8,14.9-3.8c1.4,0,2.7,0.1,4.1,0.2l0.4,0l0.2,0.4
					c2.9,7.3,2.8,12.1,1.7,18.9l0,0.2l-0.6,0.7l-0.2-0.2C-110.8-1.7-114.8-1.1-118.8-1.2z M-123.3-2.8c1.5,0.1,3,0.2,4.5,0.2
					c3.8,0.1,7.7-0.4,11.4-1.5c1-6.4,1.1-10.7-1.5-17.3c-1.2-0.1-2.4-0.2-3.5-0.2c-5.3,0-9.3,1.3-14,3.5c-0.4,1.7-0.5,3.4-0.5,5.1
					C-126.9-9.3-125.6-5.7-123.3-2.8z M-117-3.7c-4.1,0-7.4-3.3-7.5-7.4c0-0.9,0.1-1.7,0.4-2.5c-0.3-0.2-0.5-0.4-0.7-0.7
					c-0.7-1.1-0.3-2.6,0.8-3.3c0.4-0.2,0.8-0.3,1.2-0.3c0.6,0,1.2,0.2,1.6,0.6c0.1,0,0.1-0.1,0.2-0.1c3.5-2.1,8.1-1,10.2,2.5
					c1.2,1.9,1.4,4.3,0.6,6.4c0.3,0.2,0.5,0.4,0.7,0.7c0.7,1.1,0.3,2.6-0.8,3.3c-0.4,0.2-0.8,0.3-1.2,0.3l0,0
					c-0.6,0-1.2-0.2-1.6-0.6c-0.1,0-0.1,0.1-0.2,0.1C-114.3-4-115.7-3.7-117-3.7L-117-3.7z M-122.7-16.6c-0.2,0-0.3,0-0.5,0.1
					c-0.5,0.3-0.6,0.9-0.3,1.4l0,0c0.1,0.2,0.3,0.3,0.5,0.4l0.3,0.1l0.4,0.6l-0.2,0.4c-1.4,3-0.1,6.6,2.9,8c1.8,0.9,4,0.7,5.7-0.3
					c0.2-0.1,0.4-0.3,0.6-0.4l0.6-0.5l0.5,0.8c0.2,0.3,0.5,0.4,0.8,0.4l0,0c0.5,0,0.8-0.3,1-0.7c0.1-0.3,0-0.5-0.1-0.7
					c-0.1-0.2-0.3-0.4-0.5-0.4l-0.3-0.1l-0.4-0.6l0.2-0.4c1.4-3,0.1-6.6-2.9-8c-1.8-0.9-4-0.7-5.7,0.3c-0.2,0.1-0.4,0.3-0.6,0.4
					l-0.7,0.5l-0.4-0.8C-122-16.4-122.3-16.6-122.7-16.6L-122.7-16.6z"/>
				<path class="st6" d="M-114.3-10.7c0.6,0,1.1,0.6,1.1,1.2c0,0.6-0.5,1.1-1.1,1.1c0,0,0,0,0,0c-0.6,0-1.1-0.6-1.1-1.2
					C-115.4-10.3-114.9-10.8-114.3-10.7C-114.3-10.7-114.3-10.7-114.3-10.7z"/>
				<path class="st0" d="M-118.8-12.2c-0.6,0-1.1-0.6-1.1-1.2c0-0.6,0.5-1.1,1.1-1c0,0,0,0,0.1,0c0.6,0,1.1,0.6,1.1,1.2
					C-117.7-12.7-118.2-12.2-118.8-12.2C-118.8-12.2-118.8-12.2-118.8-12.2z"/>
			</g>
			<path class="st0" d="M-116.3-18.6c4.1,0,7.4,3.3,7.4,7.4c0,0.9-0.1,1.7-0.4,2.5c0.3,0.2,0.5,0.4,0.7,0.7c0.7,1.1,0.3,2.6-0.8,3.3
				c-0.9,0.5-2,0.4-2.8-0.3c-0.1,0-0.1,0.1-0.2,0.1c-3.5,2.1-8.1,1-10.2-2.5c-1.2-1.9-1.4-4.3-0.6-6.4c-0.3-0.2-0.5-0.4-0.7-0.7
				c-0.7-1.1-0.3-2.6,0.8-3.3c0.4-0.2,0.8-0.3,1.2-0.3c0.6,0,1.2,0.2,1.6,0.6c0.1,0,0.1-0.1,0.2-0.1
				C-119-18.2-117.6-18.6-116.3-18.6z M-110.6-5.6c0.5,0,0.8-0.3,1-0.7c0.1-0.3,0-0.5-0.1-0.7c-0.1-0.2-0.3-0.4-0.5-0.4
				c-0.2,0-0.3-0.1-0.4-0.3l0,0c-0.1-0.2-0.2-0.5-0.1-0.7c1.4-3,0.1-6.6-2.9-8c-1.8-0.9-4-0.7-5.7,0.3c-0.2,0.1-0.4,0.3-0.6,0.4
				c-0.3,0.2-0.7,0.2-1-0.1c0,0-0.1-0.1-0.1-0.1l0,0c-0.2-0.3-0.5-0.5-0.8-0.5c-0.2,0-0.3,0-0.5,0.1c-0.5,0.3-0.6,0.9-0.3,1.4l0,0
				c0.1,0.2,0.3,0.3,0.5,0.4c0.2,0,0.3,0.1,0.4,0.3l0,0c0.1,0.2,0.2,0.5,0.1,0.7c-1.4,3-0.1,6.6,2.9,8c1.8,0.9,4,0.7,5.7-0.3
				c0.2-0.1,0.4-0.3,0.6-0.4c0.3-0.2,0.7-0.2,1,0.1c0,0,0,0,0,0.1l0,0c0,0,0,0,0,0.1C-111.3-5.8-111-5.6-110.6-5.6z"/>
			<path class="st0" d="M-117.2-7.4c-1.5,0-2.8-1.2-2.9-2.7c0-0.4,0.3-0.7,0.6-0.8c0.4,0,0.7,0.3,0.8,0.6c0.1,0.8,0.8,1.5,1.7,1.4
				c0.4,0,0.7,0.3,0.8,0.6c0,0.4-0.3,0.7-0.6,0.8l0,0C-117-7.4-117.1-7.4-117.2-7.4z"/>
			<path class="st0" d="M-116.7,11.2c-0.4,0-0.7-0.3-0.7-0.7c0-0.2,0-0.3,0.1-0.4l0.4-0.5l0,0l6.1-8l0,0l4-5.3
				c1.1-6.5,1.1-10.8-1.5-17.6c-7.1-0.7-11.8,0.7-17.7,3.4l-5,6.7c-0.2,0.3-0.7,0.4-1,0.1c-0.3-0.2-0.4-0.7-0.1-1l5.1-6.9
				c0.1-0.1,0.2-0.2,0.3-0.2c6.3-3,11.2-4.4,19-3.6c0.3,0,0.5,0.2,0.6,0.4c2.9,7.3,2.8,12.1,1.7,18.9c0,0.1-0.1,0.2-0.2,0.3
				l-4.1,5.5c0,0,0,0,0,0l-6.1,8l-0.4,0.5C-116.3,11.1-116.5,11.2-116.7,11.2z"/>
			<path class="st0" d="M-128.9,18.8c-0.1,0-0.3,0-0.4,0c-2.7-0.1-5.4-1-7.6-2.6l0,0c-5.8-4.6-6.8-13-2.3-18.8l0.6-0.8l1.4-1.9l0,0
				l5.2-6.8c0.2-0.3,0.7-0.4,1-0.1c0.3,0.2,0.4,0.7,0.1,1l-5.2,6.8l0,0l-1.7,2.2l-0.4,0.5c-0.8,1-1.4,2.1-1.8,3.3
				c-2.3,6,0.7,12.8,6.7,15.2c3.5,1.4,7.5,0.9,10.7-1.1c0.3-0.2,0.8-0.1,1,0.2c0.2,0.3,0.1,0.8-0.2,1
				C-123.9,18.1-126.4,18.8-128.9,18.8z"/>
			<path class="st0" d="M-118-1.2c-1.5,0-3.1-0.1-4.9-0.2c-2.4-0.2-4.7-0.6-7.1-1c-2.2-0.5-4.5-1-6.8-1.7c-0.4-0.1-0.6-0.5-0.5-0.9
				s0.5-0.6,0.9-0.5l0,0c2.2,0.7,4.4,1.3,6.6,1.7c2.3,0.5,4.6,0.8,6.9,1c4.1,0.4,8.2,0.3,12.2-0.4c1.5-0.2,2.9-0.6,4.3-1.1
				c0.4-0.1,0.8,0.1,0.9,0.4c0.1,0.3,0,0.7-0.4,0.9c-1.5,0.5-3,0.9-4.5,1.1C-112.9-1.4-115.5-1.2-118-1.2z"/>
			<path class="st0" d="M-122.9-1.4c-0.2,0-0.4-0.1-0.5-0.2c-1.5-1.7-2.6-3.7-3.2-5.8c-0.6-1.8-0.9-3.6-0.9-5.5
				c-0.1-1.9,0.1-3.9,0.6-5.8c0.1-0.4,0.5-0.6,0.9-0.5s0.6,0.5,0.5,0.9c0,0,0,0,0,0c-0.4,1.8-0.6,3.6-0.6,5.4
				c0,3.8,1.4,7.5,3.8,10.4c0.3,0.3,0.2,0.7-0.1,1C-122.5-1.5-122.7-1.4-122.9-1.4z"/>
			<path class="st0" d="M-129.8-2.4c-0.3,0-0.5-0.1-0.6-0.4c-3.2-5.4-1.8-8.6-1.5-9.2c0,0,0,0,0-0.1c0,0,0,0,0,0l1.3,0.6
				c0,0,0,0,0,0.1c-0.2,0.4-1.3,3,1.5,7.8c0.2,0.3,0.2,0.7-0.1,1C-129.5-2.5-129.7-2.4-129.8-2.4L-129.8-2.4z"/>
			<path class="st0" d="M-120.9,4.7c-2.7,0-5.3-0.2-8-0.5c-0.4,0-0.7-0.4-0.6-0.8s0.4-0.7,0.8-0.6c8.8,0.9,15.1,0.4,18.2-1.5
				c0.3-0.2,0.8-0.1,1,0.2c0.2,0.3,0.1,0.8-0.2,1c0,0,0,0,0,0C-112.1,3.9-115.8,4.7-120.9,4.7z"/>
			<path class="st0" d="M-132.8,3.7c-0.1,0-0.2,0-0.2,0h0c-0.4-0.1-0.6-0.4-0.5-0.8s0.4-0.6,0.8-0.5l0,0h0c0.4,0,0.7,0.3,0.7,0.7
				C-132.1,3.4-132.5,3.7-132.8,3.7L-132.8,3.7L-132.8,3.7z"/>
			<path class="st0" d="M-128.4,12.7c-2.9,0-5.8-0.4-8.7-1.1c-1.3-0.3-2.6-0.8-3.8-1.3c-0.3-0.2-0.5-0.6-0.3-0.9s0.6-0.5,0.9-0.3
				l0,0l0,0c1.2,0.5,2.4,0.9,3.6,1.2c3.1,0.8,6.3,1.1,9.5,1c0.4,0,0.7,0.3,0.7,0.7c0,0.4-0.3,0.7-0.7,0.7
				C-127.5,12.7-127.9,12.7-128.4,12.7z"/>
			<path class="st0" d="M-116.7,10.8c-0.4,0-0.7-0.3-0.7-0.7c0-0.3,0.2-0.6,0.5-0.7l0,0l0.1,0c0.4-0.1,0.8,0.1,0.9,0.5
				c0.1,0.4-0.1,0.7-0.4,0.9l-0.1,0l0,0C-116.6,10.8-116.7,10.8-116.7,10.8z"/>
			<path class="st0" d="M-116.6,10.7c-0.4,0-0.7-0.3-0.7-0.7c0-0.3,0.2-0.6,0.5-0.7c0.1,0,0.2-0.1,0.3-0.1c0.4-0.1,0.8,0.1,0.9,0.4
				c0.1,0.4-0.1,0.8-0.4,0.9c0,0,0,0,0,0c-0.1,0-0.2,0.1-0.3,0.1C-116.4,10.7-116.5,10.7-116.6,10.7z"/>
			<path class="st0" d="M-116.6,10.7L-116.6,10.7c-0.1,0-0.1,0-0.2,0c0,0,0,0-0.1,0c-0.4-0.1-0.6-0.4-0.6-0.8s0.4-0.6,0.8-0.6
				c0,0,0.1,0,0.2,0c0.4,0.1,0.6,0.4,0.6,0.8C-116,10.5-116.3,10.7-116.6,10.7L-116.6,10.7z"/>
			<path class="st0" d="M-132.7,3.5c-0.4,0-0.7-0.3-0.7-0.7c0-0.1,0-0.1,0-0.2c-1.9-1.5-3.7-3.3-5.2-5.2c-0.2-0.3-0.1-0.8,0.2-1
				c0.3-0.2,0.7-0.1,1,0.2c1.5,2,3.3,3.8,5.3,5.3c0.2,0.1,0.3,0.4,0.3,0.6c0,0.3-0.1,0.4-0.4,0.7l-0.1,0.1
				C-132.3,3.5-132.5,3.5-132.7,3.5z"/>
			<path class="st0" d="M-132.9,3.7c-0.4,0-0.7-0.3-0.7-0.7v0c0-0.2,0.1-0.4,0.2-0.5c0.3-0.3,0.7-0.2,1,0.1s0.2,0.7-0.1,1
				C-132.5,3.7-132.7,3.7-132.9,3.7L-132.9,3.7z"/>
			<path class="st0" d="M-124.8,13c-0.1,0-0.2,0-0.3-0.1l0,0c-0.1,0-0.1,0-0.2-0.1c-0.3-0.2-0.5-0.6-0.3-0.9
				c0.2-0.3,0.6-0.5,0.9-0.3l0,0l0,0c0.4,0.1,0.5,0.6,0.4,0.9C-124.3,12.9-124.5,13-124.8,13L-124.8,13z"/>
			<path class="st0" d="M-134.6,7.2c-0.1,0-0.3,0-0.4-0.1c-4.6-3.1-6-5.3-6.1-5.4c-0.2-0.3-0.1-0.8,0.2-1c0.3-0.2,0.8-0.1,1,0.2l0,0
				l0,0c0,0,1.4,2.1,5.7,5c0.3,0.2,0.4,0.6,0.2,1C-134.1,7.1-134.4,7.2-134.6,7.2L-134.6,7.2z"/>
			<path class="st0" d="M-128.3,10.9L-128.3,10.9c-0.2,0-0.5,0-0.7,0h0l-0.3,0c-0.3,0-0.7-0.1-1.1-0.1h0c-1.3-0.1-2.6-0.2-3.8-0.4h0
				c-0.4,0-0.8-0.3-1.1-0.6c-0.4-0.7-0.5-1.6-0.3-2.4c0.1-0.3,0.1-0.7,0.2-1c0.4-1.3,1-2.5,1.8-3.7c0,0,0-0.1,0-0.1c0,0,0,0,0-0.1
				l0,0c0,0,0.1-0.1,0.1-0.1c0.1-0.1,0.2-0.3,0.3-0.4c0.4-0.6,1.1-1,1.9-1.1c0.6,0,1.1,0.3,1.6,0.7c0.5,0.4,0.9,0.9,1.3,1.4
				c0,0,0,0,0.1,0.1c0.5,0.7,1.1,1.4,1.5,2.2c0.2,0.3,0.4,0.6,0.5,0.8c0.2,0.3,0.1,0.8-0.3,1s-0.8,0.1-1-0.3l0,0
				c-0.1-0.2-0.3-0.5-0.4-0.7l0,0c-0.5-0.7-0.9-1.4-1.5-2.1c0,0,0,0,0-0.1c-0.3-0.4-0.7-0.8-1.1-1.1l0,0c-0.4-0.4-0.6-0.4-0.6-0.4
				s-0.3,0-0.8,0.6l0,0c-0.1,0.1-0.2,0.2-0.2,0.3c0,0,0,0.1-0.1,0.1l0,0l0,0c0,0,0,0,0,0.1c-0.7,1-1.3,2.1-1.6,3.3
				c-0.1,0.3-0.2,0.6-0.2,0.9c-0.1,0.4-0.1,0.9,0.1,1.4c0,0,0,0,0.1,0.1c1.2,0.1,2.5,0.2,3.8,0.4c0.4,0,0.8,0.1,1.1,0.1l0.2,0
				c0.2,0,0.4,0,0.6,0c0.4,0,0.7,0.3,0.7,0.7C-127.6,10.6-127.9,10.9-128.3,10.9L-128.3,10.9z"/>
			<path class="st0" d="M-120.5,17.9L-120.5,17.9c-0.9-0.1-1.6-0.5-2.1-1.2c-1.1-1.2-2-2.6-2.8-4c0,0,0-0.1-0.1-0.1
				c0-0.1-0.1-0.1-0.1-0.3c-0.1-0.4,0.1-0.8,0.4-0.9c0.4-0.1,0.8,0.1,0.9,0.4c0,0,0,0,0,0c0,0.1,0,0.1,0.1,0.2v0
				c0.7,1.3,1.6,2.5,2.6,3.7c0.7,0.8,1.1,0.8,1.1,0.8l0,0c0.1,0,0.4-0.1,0.8-0.5c1.3-1.5,2.1-3.4,2.3-5.4c0-0.1,0-0.2,0-0.2
				c0,0,0-0.1,0-0.1c-0.1-0.2-0.1-0.2-0.2-0.2c-1.6-0.2-3.1-0.3-4-0.4c-0.4,0-0.7-0.1-0.9-0.1l-0.1,0c-0.4-0.1-0.6-0.4-0.6-0.8
				c0.1-0.4,0.4-0.6,0.8-0.6l0.1,0c0.2,0,0.5,0.1,0.9,0.1h0c1,0.1,2.4,0.3,4,0.4c0.7,0.1,1.2,0.6,1.4,1.3v0c0,0,0,0.1,0,0.2
				c0,0.1,0.1,0.3,0.1,0.5c0,1.2-0.3,2.3-0.8,3.4c-0.4,1.1-1.1,2.2-1.9,3.1C-119.1,17.5-119.8,17.8-120.5,17.9z"/>
			<path class="st0" d="M-125.5,5.4c1.8,0,3.4,1.3,3.6,3.1c0,0.2,0,0.4,0,0.6c0,1.8-1.2,3.3-2.9,3.6h0c-0.2,0-0.5,0.1-0.7,0.1
				c-0.6,0-1.2-0.2-1.8-0.4c-0.8-0.4-1.4-1.1-1.7-1.9c-0.2-0.4-0.3-0.9-0.3-1.3c0-1.4,0.8-2.7,2.1-3.3
				C-126.6,5.6-126.1,5.4-125.5,5.4z M-125.1,11.4c1.1-0.2,1.8-1.2,1.8-2.2c0-0.1,0-0.2,0-0.3c0,0,0,0,0,0c-0.2-1.1-1.1-2-2.3-2
				c-0.3,0-0.7,0.1-1,0.2l0,0c-0.8,0.4-1.3,1.2-1.3,2.1c0,0.3,0,0.6,0.1,0.8l0,0c0.2,0.5,0.6,0.9,1,1.2c0.3,0.2,0.7,0.3,1.1,0.3
				C-125.4,11.4-125.2,11.4-125.1,11.4L-125.1,11.4z"/>
			<path class="st0" d="M-120.2,13.3c-0.1,0-0.2,0-0.3-0.1l-2.2-1.1c-0.3-0.2-0.5-0.6-0.3-0.9c0.2-0.3,0.6-0.5,0.9-0.3l2.2,1.1
				c0.3,0.2,0.5,0.6,0.3,0.9C-119.7,13.1-120,13.3-120.2,13.3z"/>
			<path class="st0" d="M-129.1,8.8c-0.2,0-0.4-0.1-0.5-0.2l-2.2-2.2c-0.3-0.3-0.3-0.7,0-1c0,0,0,0,0,0c0.3-0.3,0.7-0.3,1,0
				c0,0,0,0,0,0l2.2,2.2c0.3,0.3,0.3,0.7,0,1C-128.7,8.8-128.9,8.8-129.1,8.8z"/>
		</g>
	</g>
	<g transform="translate(26.211 126.428)">
		<path class="st3" d="M98,5.6l0.1,0l-4.5,13.6c-2.3-0.4-2.7-1.7-5.7-1.7c-3.4,0-3.4,1.8-6.9,1.8s-3.4-1.8-6.9-1.8
			c-3,0-3.4,1.4-5.7,1.7L64,5.7l0.1,0l16.9-7.8L98,5.6z"/>
		<path class="st2" d="M99.4,2l-1.2,3.7l-0.1,0L81.1-2.1v-4.1l12.7,5.7L99.4,2z"/>
		<path class="st1" d="M72.4-11.7h19.7c1,0,1.8,0.8,1.8,1.8c0,0,0,0,0,0v9.1l-0.1,0.2L81.1-6.2L68.4-0.5l-0.1-0.2v-9.1
			c0-1,0.8-1.8,1.8-1.8l0,0L72.4-11.7z"/>
		<path class="st2" d="M81.1-6.2v4.1L64.2,5.6l-0.1,0L62.8,2l5.6-2.5L81.1-6.2z"/>
		<path class="st2" d="M89.8-11.7H72.4v-5.5h17.4V-11.7z"/>
		<rect x="71" y="-9.4" class="st0" width="20.1" height="1.8"/>
		<rect x="89.3" y="-6.7" class="st0" width="1.8" height="1.8"/>
		<rect x="71" y="-6.7" class="st0" width="1.8" height="1.8"/>
		<rect x="80.2" y="-15.4" class="st0" width="1.8" height="1.8"/>
		<rect x="82.9" y="-15.4" class="st0" width="1.8" height="1.8"/>
		<rect x="77.4" y="-15.4" class="st0" width="1.8" height="1.8"/>
		<rect x="74.7" y="-15.4" class="st0" width="1.8" height="1.8"/>
		<rect x="85.7" y="-15.4" class="st0" width="1.8" height="1.8"/>
		<path class="st0" d="M97.8,17.6c-0.9,0.5-1.9,0.8-2.9,0.8l5.4-16.2c0.1-0.4-0.1-0.9-0.5-1.1l-4.9-2.2v-8.8c0-1.5-1.2-2.7-2.7-2.7
			h-1.4v-4.6c0-0.5-0.4-0.9-0.9-0.9l0,0H82v-3.7h-1.8v3.7h-7.8c-0.5,0-0.9,0.4-0.9,0.9c0,0,0,0,0,0v4.6h-1.4c-1.5,0-2.7,1.2-2.7,2.7
			v8.8l-4.9,2.2c-0.4,0.2-0.6,0.7-0.5,1.1l5.4,16.2c-1,0-2.1-0.3-2.9-0.8c-1.2-0.7-2.5-1.1-3.9-1v1.8c1.1,0,2.1,0.3,3,0.8
			c1.2,0.7,2.5,1.1,3.9,1c0.4,0,0.9,0,1.3-0.1c0.9-0.2,1.7-0.5,2.5-0.9c1.9-1.1,4.1-1.1,6,0c2.4,1.4,5.3,1.4,7.7,0
			c1.9-1.1,4.1-1.1,6,0c1.2,0.7,2.5,1,3.9,1c1.4,0,2.7-0.3,3.9-1c0.9-0.6,1.9-0.8,3-0.8v-1.8C100.3,16.6,99,16.9,97.8,17.6z
			 M97.6,4.4L82-2.7v-2.1l16.2,7.3L97.6,4.4z M73.3-16.3h15.5v3.7H73.3L73.3-16.3z M70.1-10.8H92c0.5,0,0.9,0.4,0.9,0.9v8L81.5-7.1
			c-0.2-0.1-0.5-0.1-0.8,0L69.2-1.9v-8C69.2-10.4,69.6-10.8,70.1-10.8L70.1-10.8z M80.2-4.8v2.1L64.6,4.5l-0.7-2L80.2-4.8z
			 M87.9,16.6c-1.4,0-2.7,0.3-3.9,1c-1.9,1.1-4.1,1.1-6,0c-2.4-1.4-5.3-1.4-7.7,0c-0.4,0.2-0.8,0.4-1.2,0.6l-4-12l15-6.9v10.9H82
			V-0.7l15,6.9l-4,12c-0.4-0.1-0.8-0.3-1.2-0.6C90.6,16.9,89.3,16.6,87.9,16.6L87.9,16.6z"/>
	</g>
	<g transform="translate(321.967 126)">
		<rect x="-136.7" y="-5" class="st3" width="32.7" height="18.2"/>
		<rect x="-138.2" y="13.7" class="st4" width="36.4" height="3.7"/>
		<path class="st1" d="M-135.1-18.6h29.9l5.6,10.5c0,0-0.8,7.2-7.4,2.7c0,0-7.8,2.9-8.6-0.1c0,0-7.4,4.3-8.4-0.7
			c0,0-4.3,4.8-8.4,0.2c0,0-5.5,5.3-8.2-1.6L-135.1-18.6z"/>
		<path class="st2" d="M-128-18.6l5.6,0.1l-2.1,12.9l-3.2,2.4l-5.1-2.5L-128-18.6z"/>
		<path class="st2" d="M-112-18.5l-5.6,0.1l2.1,12.9l3.2,2.4l5.1-2.5L-112-18.5z"/>
		<path class="st0" d="M-99.5-9.3l-4.1-8.5c-0.4-0.9-1.4-1.5-2.4-1.5h-28.3c-1,0-1.9,0.6-2.4,1.5l-4.1,8.5c-0.4,0.8-0.6,1.8-0.4,2.7
			c0.4,2.3,2.4,3.9,4.7,3.8c1.6,0,3.1-0.8,4-2.2c0.9,1.4,2.5,2.3,4.2,2.2c1.6,0.1,3.1-0.7,4-2c1,1.3,2.6,2.1,4.2,2
			c1.7,0.1,3.2-0.7,4.2-2c0.9,1.3,2.4,2.1,4,2c1.7,0.1,3.3-0.8,4.2-2.2c0.8,1.4,2.3,2.2,4,2.2c2.3,0.1,4.3-1.5,4.7-3.8
			C-98.9-7.6-99-8.5-99.5-9.3L-99.5-9.3z M-132.7-8.5c-0.1,0.2-0.1,0.3-0.2,0.5c0,0-0.1,0.1-0.1,0.2c-0.8,2.4-1.9,3.5-3.6,3.5
			c-1.6,0.1-3-1-3.2-2.5c-0.1-0.6,0-1.2,0.3-1.7l4.1-8.5c0.2-0.4,0.6-0.6,1-0.6h4.9L-132.7-8.5z M-128.3-4.4
			c-1.3,0.1-2.6-0.6-3.1-1.9c-0.1-0.6,0-1.2,0.2-1.7l3.5-9.8h4.3L-125-7.3C-125.2-5.6-126.6-4.3-128.3-4.4L-128.3-4.4z M-120.1-4.4
			c-1.7,0-3.4-0.9-3.4-2.7l1.6-10.7h3.8l1.4,10.7C-116.7-5.4-118.4-4.4-120.1-4.4L-120.1-4.4z M-108.8-6.3c-0.5,1.2-1.8,2-3.1,1.9
			c-1.7,0.1-3.1-1.2-3.3-2.8l-1.4-10.5h4.1L-109-8C-108.7-7.5-108.7-6.9-108.8-6.3z M-100.5-7c-0.2,1.6-1.6,2.7-3.2,2.5
			c-1.7,0-2.8-1.1-3.6-3.5c0-0.1,0-0.1-0.1-0.1c0-0.2-0.1-0.3-0.2-0.5l-3.3-9.3h4.9c0.4,0,0.8,0.2,1,0.6l4.1,8.5
			C-100.6-8.2-100.4-7.6-100.5-7L-100.5-7z"/>
		<g transform="translate(10.178 26.2)">
			<path class="st0" d="M-139-20.8h-1.5c-0.4,0-0.8-0.3-0.8-0.8s0.3-0.8,0.8-0.8c0,0,0,0,0,0h1.5c0.4,0,0.8,0.3,0.8,0.8
				S-138.6-20.8-139-20.8C-139-20.8-139-20.8-139-20.8z"/>
		</g>
		<g transform="translate(26.407 22.943)">
			<path class="st0" d="M-134.8-15.1c-0.2,0-0.4-0.1-0.5-0.2L-141-21c-0.3-0.3-0.3-0.8,0-1.1c0.3-0.3,0.8-0.3,1.1,0l5.7,5.7
				c0.3,0.3,0.3,0.8,0,1.1C-134.4-15.2-134.6-15.1-134.8-15.1L-134.8-15.1z"/>
		</g>
		<g transform="translate(30.235 22.049)">
			<path class="st0" d="M-137.5-17.8c-0.2,0-0.4-0.1-0.5-0.2l-3-3c-0.3-0.3-0.3-0.8,0-1.1c0.3-0.3,0.8-0.3,1.1,0l3,3
				c0.3,0.3,0.3,0.8,0,1.1C-137.1-17.9-137.3-17.8-137.5-17.8z"/>
		</g>
		<g transform="translate(2.355 34.895)">
			<path class="st7" d="M-104.1-16.8h-36.4c-0.4,0-0.8-0.3-0.8-0.8v-4c0-0.4,0.3-0.8,0.8-0.8c0,0,0,0,0,0h36.4
				c0.4,0,0.8,0.3,0.8,0.8c0,0,0,0,0,0v4C-103.3-17.2-103.7-16.8-104.1-16.8z M-139.7-18.4h34.8v-2.4h-34.8V-18.4z"/>
		</g>
		<g transform="translate(2.355 34.895)">
			<path class="st0" d="M-104.1-16.8h-36.4c-0.4,0-0.8-0.3-0.8-0.8v-4c0-0.4,0.3-0.8,0.8-0.8c0,0,0,0,0,0h36.4
				c0.4,0,0.8,0.3,0.8,0.8c0,0,0,0,0,0v4C-103.3-17.2-103.7-16.8-104.1-16.8z M-139.7-18.4h34.8v-2.4h-34.8V-18.4z"/>
		</g>
		<g transform="translate(4.012 20.436)">
			<path class="st0" d="M-107-21.2c0-0.4-0.3-0.8-0.8-0.8c-0.4,0-0.8,0.3-0.8,0.8c0,0,0,0,0,0v13.3h1.5V-21.2z"/>
			<path class="st0" d="M-139.7-7.9v-13.7c0-0.4-0.4-0.8-0.8-0.7c-0.4,0-0.7,0.3-0.7,0.7v13.7H-139.7z"/>
		</g>
		<path class="st0" d="M-125.6,12.5V-1c0-0.4-0.3-0.8-0.8-0.8s-0.8,0.3-0.8,0.8c0,0,0,0,0,0v13.5H-125.6z"/>
	</g>
	<g transform="translate(212.215 -105.402)">
		<g transform="translate(298.29 234.219)">
			<path class="st3" d="M-138.3-16.5l-2.9-4.4l2.9-1.5l2.9,1.5l2.9-1.5l2.9,1.5l-2.9,4.4H-138.3z"/>
		</g>
		<g transform="translate(289.515 242.995)">
			<path class="st3" d="M-123.7-22.3c0,0,5.1,2.2,7.3,4.4s4.4,9.5,4.4,22.7c0.1,2-1.5,3.6-3.4,3.7c-0.1,0-0.1,0-0.2,0h-21.9
				c-2,0.1-3.6-1.5-3.7-3.4c0-0.1,0-0.1,0-0.2c0-13.2,2.2-20.5,4.4-22.7s7.3-4.4,7.3-4.4H-123.7z"/>
		</g>
		<g transform="translate(288.784 242.323)">
			<path class="st0" d="M-114.9,9.8h-21.9c-2.4,0.1-4.3-1.8-4.4-4.2c0-0.1,0-0.1,0-0.2c0-13.7,2.4-21,4.6-23.2
				c2.3-2.3,7.3-4.5,7.5-4.5l0.6,1.3c0,0-5,2.2-7.1,4.2c-1.9,1.9-4.2,8.9-4.2,22.2c-0.1,1.6,1.2,2.9,2.7,2.9c0.1,0,0.1,0,0.2,0h21.9
				c1.6,0.1,2.9-1.2,2.9-2.7c0-0.1,0-0.1,0-0.2c0-13.3-2.2-20.2-4.2-22.2c-2.1-2.1-7-4.2-7.1-4.2l0.6-1.3c0.2,0.1,5.3,2.3,7.5,4.5
				c2.2,2.2,4.6,9.5,4.6,23.2c0.1,2.4-1.8,4.3-4.2,4.4C-114.8,9.8-114.9,9.8-114.9,9.8z"/>
		</g>
		<g transform="translate(301.215 240.07)">
			<rect x="-141.3" y="-22.3" class="st5" width="5.8" height="2.9"/>
		</g>
		<g transform="translate(300.484 239.339)">
			<path class="st0" d="M-134-18h-7.3v-4.4h7.3V-18z M-139.8-19.4h4.4v-1.5h-4.4V-19.4z"/>
		</g>
		<g transform="translate(297.222 233.402)">
			<path class="st0" d="M-130.8-15.3l-1.2-0.8l2.5-3.7l-1.9-0.9l-2.9,1.5l-2.9-1.5l-1.9,0.9l2.5,3.7l-1.2,0.8l-3.4-5.1l4-2l2.9,1.5
				l2.9-1.5l4,2L-130.8-15.3z"/>
		</g>
		<g transform="translate(295.365 246.651)">
			<ellipse class="st5" cx="-132.5" cy="-13.6" rx="8.8" ry="8.8"/>
		</g>
		<g transform="translate(304.872 255.426)">
			<g transform="translate(15.357 15.357)">
				<rect x="-141.3" y="-22.3" class="st4" width="7.3" height="2.9"/>
			</g>
			<g transform="translate(14.625 14.626)">
				<path class="st0" d="M-132.5-18h-8.8v-4.4h8.8V-18z M-139.8-19.4h5.9v-1.5h-5.9V-19.4z"/>
			</g>
			<g transform="translate(15.357 9.507)">
				<rect x="-141.3" y="-22.3" class="st4" width="7.3" height="2.9"/>
			</g>
			<g transform="translate(14.625 8.776)">
				<path class="st0" d="M-132.5-18h-8.8v-4.4h8.8V-18z M-139.8-19.4h5.9v-1.5h-5.9V-19.4z"/>
			</g>
			<g transform="translate(15.357 6.582)">
				<rect x="-141.3" y="-22.3" class="st4" width="7.3" height="2.9"/>
			</g>
			<g transform="translate(15.357 12.432)">
				<rect x="-141.3" y="-22.3" class="st4" width="7.3" height="2.9"/>
			</g>
			<g transform="translate(14.625 5.85)">
				<path class="st0" d="M-132.5-18h-8.8v-4.4h8.8V-18z M-139.8-19.4h5.9v-1.5h-5.9V-19.4z"/>
			</g>
			<g transform="translate(14.625 11.7)">
				<path class="st0" d="M-132.5-18h-8.8v-4.4h8.8V-18z M-139.8-19.4h5.9v-1.5h-5.9V-19.4z"/>
			</g>
			<g transform="translate(8.044 15.357)">
				<rect x="-141.3" y="-22.3" class="st4" width="7.3" height="2.9"/>
			</g>
			<g transform="translate(7.313 14.626)">
				<path class="st0" d="M-132.5-18h-8.8v-4.4h8.8V-18z M-139.8-19.4h5.9v-1.5h-5.9V-19.4z"/>
			</g>
			<g transform="translate(7.313 11.701)">
				<g transform="translate(0.731 0.732)">
					<rect x="-141.3" y="-22.3" class="st4" width="7.3" height="2.9"/>
				</g>
				<path class="st0" d="M-132.5-18h-8.8v-4.4h8.8V-18z M-139.8-19.4h5.9v-1.5h-5.9V-19.4z"/>
			</g>
			<g transform="translate(8.044 9.507)">
				<rect x="-141.3" y="-22.3" class="st4" width="7.3" height="2.9"/>
			</g>
			<g transform="translate(7.313 8.776)">
				<path class="st0" d="M-132.5-18h-8.8v-4.4h8.8V-18z M-139.8-19.4h5.9v-1.5h-5.9V-19.4z"/>
			</g>
			<g transform="translate(8.044 6.582)">
				<rect x="-141.3" y="-22.3" class="st4" width="7.3" height="2.9"/>
			</g>
			<g transform="translate(7.313 5.85)">
				<path class="st0" d="M-132.5-18h-8.8v-4.4h8.8V-18z M-139.8-19.4h5.9v-1.5h-5.9V-19.4z"/>
			</g>
			<g transform="translate(0.731 15.357)">
				<rect x="-141.3" y="-22.3" class="st4" width="7.3" height="2.9"/>
			</g>
			<g transform="translate(0 14.626)">
				<path class="st0" d="M-132.5-18h-8.8v-4.4h8.8L-132.5-18z M-139.8-19.4h5.9v-1.5h-5.9V-19.4z"/>
			</g>
			<g transform="translate(0.731 12.432)">
				<rect x="-141.3" y="-22.3" class="st4" width="7.3" height="2.9"/>
			</g>
			<g transform="translate(0 11.7)">
				<path class="st0" d="M-132.5-18h-8.8v-4.4h8.8L-132.5-18z M-139.8-19.4h5.9v-1.5h-5.9V-19.4z"/>
			</g>
			<g transform="translate(15.357 3.657)">
				<rect x="-141.3" y="-22.3" class="st4" width="7.3" height="2.9"/>
			</g>
			<g transform="translate(14.625 2.926)">
				<path class="st0" d="M-132.5-18h-8.8v-4.4h8.8V-18z M-139.8-19.4h5.9v-1.5h-5.9V-19.4z"/>
			</g>
			<g transform="translate(15.357 0.732)">
				<rect x="-141.3" y="-22.3" class="st4" width="7.3" height="2.9"/>
			</g>
			<g transform="translate(14.625)">
				<path class="st0" d="M-132.5-18h-8.8v-4.4h8.8V-18z M-139.8-19.4h5.9v-1.5h-5.9V-19.4z"/>
			</g>
		</g>
		<g transform="translate(301.215 250.308)">
			<path class="st3" d="M-138.3-12.1c-1.6,0-2.9-1.3-2.9-2.9h1.5c0,0.8,0.7,1.5,1.5,1.5s1.5-0.7,1.5-1.5c0-0.8-1-1.3-1.6-1.5
				c-1.3-0.3-2.7-1.3-2.7-2.9c0-1.6,1.3-2.9,2.9-2.9c1.6,0,2.9,1.3,2.9,2.9h-1.5c0-0.8-0.7-1.5-1.5-1.5s-1.5,0.7-1.5,1.5
				c0,0.8,1,1.3,1.6,1.5c1.3,0.3,2.7,1.3,2.7,2.9C-135.4-13.4-136.7-12.1-138.3-12.1z"/>
		</g>
		<g transform="translate(303.409 249.577)">
			<rect x="-141.3" y="-22.3" class="st3" width="1.5" height="1.5"/>
		</g>
		<g transform="translate(303.409 259.815)">
			<rect x="-141.3" y="-22.3" class="st3" width="1.5" height="1.5"/>
		</g>
		<g transform="translate(308.528 254.696)">
			<rect x="-141.3" y="-22.3" class="st3" width="1.5" height="1.5"/>
		</g>
		<g transform="translate(298.29 254.696)">
			<rect x="-141.3" y="-22.3" class="st3" width="1.5" height="1.5"/>
		</g>
	</g>
	<g transform="translate(40 216.982)">
		<path class="st2" d="M-106.2,14.2v3.2h-28.9v-3.2c0-0.9,0.7-1.6,1.6-1.6h25.7C-107,12.6-106.2,13.3-106.2,14.2z"/>
		<path class="st1" d="M-112.2-2.7l2.7,15.3h-22.4l2.7-15.3c0.4-2.3,2.4-4,4.7-4h7.5C-114.6-6.7-112.6-5-112.2-2.7z"/>
		<path class="st0" d="M-114.3-0.2c0-0.4-0.4-0.8-0.8-0.8c-0.4,0-0.8,0.4-0.8,0.8s0.4,0.8,0.8,0.8h0C-114.6,0.6-114.3,0.2-114.3-0.2
			z"/>
		<path class="st0" d="M-107.8,11.8h-1l-2.6-14.7c-0.5-2.7-2.8-4.6-5.5-4.6h-7.5c-2.7,0-5.1,1.9-5.5,4.6l-2.6,14.7h-1
			c-1.3,0-2.4,1.1-2.4,2.4v3.2c0,0.4,0.4,0.8,0.8,0.8h28.9c0.4,0,0.8-0.4,0.8-0.8v-3.2C-105.4,12.9-106.5,11.8-107.8,11.8
			L-107.8,11.8z M-128.4-2.6c0.3-1.9,2-3.3,4-3.3h7.5c1.9,0,3.6,1.4,4,3.3l2.6,14.4H-131L-128.4-2.6z M-107,16.6h-27.3v-2.4
			c0-0.4,0.4-0.8,0.8-0.8h25.7c0.4,0,0.8,0.4,0.8,0.8L-107,16.6z"/>
		<path class="st0" d="M-112.5,9.3l-1.2-6.5c-0.1-0.4-0.5-0.7-0.9-0.6c-0.4,0.1-0.7,0.5-0.6,0.9l1.2,6.5c0.1,0.4,0.5,0.7,0.9,0.6
			C-112.7,10.1-112.4,9.7-112.5,9.3L-112.5,9.3z"/>
		<path class="st0" d="M-100.9-1h-6.9c-0.4,0-0.8,0.4-0.8,0.8c0,0.4,0.4,0.8,0.8,0.8h6.9c0.4,0,0.8-0.4,0.8-0.8
			C-100.1-0.7-100.5-1-100.9-1z"/>
		<path class="st0" d="M-141.3-0.2c0,0.4,0.4,0.8,0.8,0.8h6.9c0.4,0,0.8-0.4,0.8-0.8c0-0.4-0.4-0.8-0.8-0.8h-6.9
			C-140.9-1-141.3-0.7-141.3-0.2C-141.3-0.2-141.3-0.2-141.3-0.2z"/>
		<path class="st0" d="M-106.5-14.4c-0.3-0.3-0.8-0.3-1.1,0c0,0,0,0,0,0l-4.5,4.5c-0.3,0.3-0.3,0.8,0,1.1c0.3,0.3,0.8,0.3,1.1,0
			l4.5-4.5C-106.2-13.6-106.2-14.1-106.5-14.4C-106.5-14.4-106.5-14.4-106.5-14.4L-106.5-14.4z"/>
		<path class="st0" d="M-134.9-14.4c-0.3,0.3-0.3,0.8,0,1.1c0,0,0,0,0,0l4.5,4.5c0.3,0.3,0.8,0.3,1.1,0c0.3-0.3,0.3-0.8,0-1.1
			l-4.5-4.5C-134.1-14.8-134.6-14.8-134.9-14.4C-134.9-14.4-134.9-14.4-134.9-14.4z"/>
		<path class="st0" d="M-119.9-13.1v-6.4c0-0.4-0.4-0.8-0.8-0.8c-0.4,0-0.8,0.4-0.8,0.8v6.4c0,0.4,0.4,0.8,0.8,0.8
			C-120.2-12.3-119.9-12.7-119.9-13.1z"/>
	</g>
	<g transform="translate(139 216)">
		<rect x="-136.3" y="-21" class="st3" width="26.9" height="7.9"/>
		<g transform="translate(0 0)">
			<path class="st1" d="M-124.1-13.1v3.4c0.1,0.8,0.8,1.3,1.5,1.2c0,0,0,0,0,0c0.8,0.1,1.4-0.5,1.5-1.3c0,0,0,0,0,0h-0.1v0.3
				c-0.1-0.6,0.4-1.2,1-1.3c0.6-0.1,1.2,0.4,1.3,1c0,0.1,0,0.2,0,0.3v5.2c0.1,0.8,0.8,1.4,1.6,1.4c0.7-0.1,1.3-0.6,1.4-1.4v-3.2
				c0.1-0.8,0.9-1.4,1.7-1.3c0.7,0.1,1.2,0.6,1.3,1.3v9.6c0,0.7,0.5,1.4,1.3,1.4c0.7,0,1.4-0.5,1.4-1.3c0,0,0-0.1,0-0.1v-15.3
				H-124.1z"/>
			<rect x="-130.5" y="3.8" class="st2" width="13.2" height="2.9"/>
			<g transform="translate(12.811 29.046)">
				<path class="st2" d="M-132-22.3v13.3c0,0.3-0.3,0.6-0.6,0.6l0,0h-7.7c-0.5,0-0.9-0.4-0.9-0.9v-13H-132z"/>
			</g>
			<path class="st0" d="M-109.3-21.9c-0.1-0.3-0.3-0.5-0.6-0.5h-27c-0.4,0-0.7,0.3-0.7,0.7v3.8h-1.6c-1.2,0-2.1,0.9-2.1,2.1v5.2
				c0,1.2,0.8,2.2,1.9,2.6l13.5,4.6c0.8,0.3,1.3,1,1.3,1.8v4.8h-5.9c-0.3,0-0.6,0.3-0.6,0.6v2.9c0,0.3,0.3,0.6,0.6,0.6h0.9v11.6
				c0,1.5,1.2,2.7,2.7,2.7h6c1.5,0,2.7-1.2,2.7-2.7V7.3h0.9c0.3,0,0.6-0.3,0.6-0.6c0,0,0,0,0,0V3.8c0-0.3-0.3-0.6-0.6-0.6
				c0,0,0,0,0,0h-6.1v-4.8c0-1.4-0.9-2.6-2.2-3L-139-9.2c-0.6-0.2-1-0.7-1-1.4v-5.2c0-0.4,0.3-0.8,0.8-0.8h1.6v3.3
				c0,0.4,0.3,0.7,0.7,0.7h12.2v2.9c0.2,1.2,1.3,2,2.5,1.8c0.7-0.1,1.4-0.6,1.7-1.3c0.1-0.1,0.1-0.2,0.1-0.4v0c0-0.1,0-0.1,0-0.2
				c0,0,0,0,0-0.1c0-0.2,0.2-0.4,0.5-0.3c0.5,0,0.5,0.5,0.5,0.6v5.2c0.1,1.2,1.1,2.1,2.2,2.1c1.1,0,2-0.9,2.1-2.1v-3.2
				c0-0.3,0.4-0.6,0.8-0.6s0.8,0.3,0.8,0.6v9.6c0,1.1,0.9,2,2,2c1.1,0,2-0.9,2-2c0,0,0,0,0,0v-14.9c0.1-0.1,0.2-0.2,0.2-0.3
				C-108.4-16-108.4-19-109.3-21.9z M-119.5,18.9c0,0.7-0.6,1.4-1.4,1.4h-6c-0.7,0-1.4-0.6-1.4-1.4V7.4h8.7L-119.5,18.9z
				 M-117.9,6.1h-0.7c-0.1,0-0.2,0-0.2,0h-10.1c-0.1,0-0.2,0-0.2,0h-0.7V4.4h12L-117.9,6.1z M-136.3-21h25.8c0.7,2.3,0.7,4.7,0,7
				h-25.8L-136.3-21z M-111.5,2.9c-0.4,0-0.7-0.3-0.7-0.7c0,0,0,0,0,0v-9.6c-0.1-1.2-1.2-2.1-2.3-2c-1,0.1-1.9,0.9-2,2v3.2
				c-0.1,0.5-0.5,0.8-0.9,0.7c-0.4-0.1-0.7-0.3-0.7-0.7v-5.2c0.1-1-0.7-1.9-1.7-2c0,0-0.1,0-0.1,0c-0.8,0-1.5,0.5-1.7,1.3
				c-0.1,0.1-0.1,0.2-0.1,0.3v0.1c-0.1,0.3-0.4,0.6-0.8,0.5c-0.4,0-0.9-0.2-0.9-0.5v-2.9h12.6V2.1C-110.8,2.5-111.1,2.8-111.5,2.9
				C-111.5,2.9-111.5,2.9-111.5,2.9L-111.5,2.9z M-127.4,10.3c0-0.4,0.3-0.7,0.7-0.7c0,0,0,0,0,0h4.6c0.4,0,0.7,0.3,0.7,0.7
				s-0.3,0.7-0.7,0.7h-4.6C-127.1,11-127.4,10.7-127.4,10.3L-127.4,10.3z M-127.4,13.6c0-0.4,0.3-0.7,0.7-0.7c0,0,0,0,0,0h4.6
				c0.4,0,0.7,0.3,0.7,0.7s-0.3,0.7-0.7,0.7h-4.6C-127.1,14.3-127.4,14-127.4,13.6L-127.4,13.6z M-127.4,17.3c0-0.4,0.3-0.7,0.7-0.7
				c0,0,0,0,0,0h4.6c0.4,0,0.7,0.3,0.7,0.7s-0.3,0.7-0.7,0.7h-4.6C-127.1,17.9-127.4,17.6-127.4,17.3L-127.4,17.3z M-137.6-3.6
				c-1.4,0-2.4,1.1-2.4,2.4c0,1.4,1.1,2.4,2.4,2.4c1.4,0,2.4-1.1,2.4-2.4c0,0,0,0,0,0C-135.1-2.5-136.2-3.6-137.6-3.6z M-137.6,0
				c-0.6,0-1.1-0.5-1.1-1.1c0-0.6,0.5-1.1,1.1-1.1c0.6,0,1.1,0.5,1.1,1.1l0,0C-136.4-0.5-136.9,0-137.6,0z M-111-18
				c0,0.4-0.3,0.7-0.7,0.7c0,0,0,0,0,0c-0.6,0-1.1,0.2-1.5,0.6c-1.3,1.2-3.3,1.2-4.7,0c-0.9-0.8-2.2-0.8-3.1,0
				c-1.3,1.2-3.3,1.2-4.7,0c-0.9-0.8-2.2-0.8-3.1,0c-1.3,1.2-3.3,1.2-4.7,0c-0.4-0.4-1-0.6-1.5-0.6c-0.4,0-0.7-0.3-0.7-0.7
				s0.3-0.7,0.7-0.7c0.9,0,1.7,0.3,2.3,0.9c0.9,0.8,2.2,0.8,3.1,0c1.3-1.2,3.3-1.2,4.7,0c0.9,0.8,2.2,0.8,3.1,0
				c1.3-1.2,3.3-1.2,4.7,0c0.9,0.8,2.2,0.8,3.1,0c0.6-0.6,1.5-0.9,2.3-0.9C-111.3-18.7-111-18.4-111-18C-111-18-111-18-111-18
				L-111-18z"/>
		</g>
	</g>
	<g transform="translate(-64 -574.208)">
		<path class="st0" d="M154.8,774.6h5.5c0.4,0,0.7,0.3,0.7,0.7v10.9c0,0.4-0.3,0.7-0.7,0.7h-5.5c-0.4,0-0.7-0.3-0.7-0.7v-10.9
			C154.1,774.9,154.5,774.6,154.8,774.6L154.8,774.6z M159.6,776h-4.1v9.5h4.1V776z"/>
		<path class="st3" d="M151.4,786.4l15.1-14.8c1-1,2.7-1,3.8,0c0,0,0,0,0,0l14.4,14.7v22.2h-33.2V786.4z"/>
		<path class="st0" d="M168.4,770.2c0.9,0,1.7,0.4,2.4,1l0,0l14.4,14.7c0.1,0.1,0.2,0.3,0.2,0.5v22.2c0,0.4-0.3,0.7-0.7,0.7h-33.2
			c-0.4,0-0.7-0.3-0.7-0.7v-22.1c0-0.2,0.1-0.4,0.2-0.5l15.1-14.8C166.6,770.5,167.5,770.2,168.4,770.2z M169.7,772.1
			c-0.8-0.8-2-0.8-2.8,0c0,0,0,0,0,0l0,0l-14.9,14.5v21.1H184v-21.2L169.7,772.1z"/>
		<path class="st0" d="M184.6,803.9h-33.2c-0.4,0-0.7-0.3-0.7-0.7l0,0c0-0.4,0.3-0.7,0.7-0.7l0,0h33.2c0.4,0,0.7,0.3,0.7,0.7
			c0,0,0,0,0,0C185.3,803.6,185,803.9,184.6,803.9L184.6,803.9z"/>
		<rect x="164.3" y="792" class="st2" width="7.5" height="16.5"/>
		<path class="st0" d="M164.3,791.3h7.5c0.4,0,0.7,0.3,0.7,0.7v16.5c0,0.4-0.3,0.7-0.7,0.7l0,0h-7.5c-0.4,0-0.7-0.3-0.7-0.7l0,0V792
			C163.6,791.6,163.9,791.3,164.3,791.3L164.3,791.3z M171.1,792.7H165v15.1h6.1V792.7z"/>
		<path class="st0" d="M168,780.5c1.4,0,2.5,1.1,2.5,2.5s-1.1,2.5-2.5,2.5s-2.5-1.1-2.5-2.5C165.6,781.6,166.7,780.5,168,780.5z
			 M168,784c0.6,0,1.1-0.5,1.1-1.1s-0.5-1.1-1.1-1.1c-0.6,0-1.1,0.5-1.1,1.1c0,0,0,0,0,0C167,783.5,167.4,784,168,784z"/>
		<path class="st0" d="M173.3,792.7h-10.6c-0.4,0-0.7-0.3-0.7-0.7l0,0c0-0.4,0.3-0.7,0.7-0.7l0,0h10.6c0.4,0,0.7,0.3,0.7,0.7
			S173.7,792.7,173.3,792.7z"/>
		<path class="st0" d="M154.8,772.1h5.5c0.4,0,0.7,0.3,0.7,0.7v2.6c0,0.4-0.3,0.7-0.7,0.7h-5.5c-0.4,0-0.7-0.3-0.7-0.7l0,0v-2.6
			C154.1,772.4,154.5,772.1,154.8,772.1L154.8,772.1z M159.6,773.5h-4.1v1.2h4.1V773.5z"/>
		<rect x="156.9" y="794.2" class="st3" width="2.8" height="5.5"/>
		<path class="st0" d="M156.9,793.5h2.8c0.4,0,0.7,0.3,0.7,0.7c0,0,0,0,0,0v5.5c0,0.4-0.3,0.7-0.7,0.7h-2.8c-0.4,0-0.7-0.3-0.7-0.7
			v-5.5C156.2,793.9,156.6,793.5,156.9,793.5L156.9,793.5z M159,794.9h-1.4v4.1h1.4V794.9z"/>
		<rect x="176.3" y="794.2" class="st3" width="2.8" height="5.5"/>
		<path class="st0" d="M176.3,793.5h2.8c0.4,0,0.7,0.3,0.7,0.7c0,0,0,0,0,0v5.5c0,0.4-0.3,0.7-0.7,0.7h-2.8c-0.4,0-0.7-0.3-0.7-0.7
			v-5.5C175.6,793.9,175.9,793.5,176.3,793.5L176.3,793.5z M178.4,794.9H177v4.1h1.4V794.9z"/>
		<path class="st0" d="M187.9,790.5c-0.2,0-0.4-0.1-0.5-0.2l-17.7-18.1c-0.3-0.3-0.3-0.7,0-1c0,0,0,0,0,0c0.3-0.3,0.7-0.3,1,0
			c0,0,0,0,0,0l17.7,18.1c0.3,0.3,0.3,0.7,0,1C188.3,790.4,188.1,790.5,187.9,790.5z"/>
		<path class="st0" d="M148.7,789.7c-0.2,0-0.4-0.1-0.5-0.2c-0.3-0.3-0.3-0.7,0-1c0,0,0,0,0,0l17.7-17.4c0.3-0.3,0.7-0.3,1,0
			c0,0,0,0,0,0c0.3,0.3,0.3,0.7,0,1c0,0,0,0,0,0l-17.7,17.4C149.1,789.6,148.9,789.7,148.7,789.7z"/>
		<ellipse class="st3" cx="184.3" cy="786.3" rx="11.1" ry="11.1"/>
		<path class="st0" d="M184.3,774.5c6.5,0,11.8,5.3,11.8,11.8c0,3.1-1.2,6.1-3.4,8.3c-4.5,4.7-12,4.8-16.7,0.3
			c-4.7-4.5-4.8-12-0.3-16.7c0.1-0.1,0.2-0.2,0.3-0.3C178.2,775.7,181.2,774.5,184.3,774.5z M184.3,796.6c5.7,0,10.4-4.6,10.4-10.4
			c0-5.7-4.6-10.4-10.4-10.4c-5.7,0-10.4,4.6-10.4,10.4c0,0,0,0,0,0C174,792,178.6,796.6,184.3,796.6z"/>
		<g transform="translate(317.592 800.469)">
			<g transform="translate(0 0)">
				<ellipse class="st5" cx="-133.2" cy="-14.3" rx="8.1" ry="8.1"/>
			</g>
			<g transform="translate(5.43 3.46)">
				<path class="st3" d="M-138.6-13.1c-1.5,0-2.6-1.2-2.6-2.6h1.3c0,0.7,0.6,1.3,1.3,1.3c0.7,0,1.3-0.6,1.3-1.3c0,0,0,0,0-0.1
					c0-0.7-0.9-1.2-1.5-1.3c-1.3-0.2-2.3-1.3-2.5-2.6c0-1.5,1.2-2.6,2.7-2.6c1.4,0,2.5,1.2,2.6,2.6h-1.3c0-0.7-0.6-1.3-1.3-1.3
					c-0.7,0-1.3,0.6-1.3,1.3c0,0,0,0,0,0.1c0,0.7,0.9,1.2,1.5,1.3c1.3,0.2,2.3,1.3,2.5,2.6C-136-14.3-137.2-13.2-138.6-13.1z"/>
			</g>
			<g transform="translate(7.4 2.692)">
				<rect x="-141.3" y="-22.3" class="st3" width="1.3" height="1.3"/>
			</g>
			<g transform="translate(7.4 12.11)">
				<rect x="-141.3" y="-22.3" class="st3" width="1.3" height="1.3"/>
			</g>
		</g>
	</g>
	<g transform="translate(86.898 -15.6)">
		<path class="st3" d="M95.8,229.6v10.5l11.6,9.2l27-17.8v-9.8l-11.8-10.5L95.8,229.6z"/>
		<g transform="translate(237.102 233.716)">
			<g transform="translate(0 0)">
				<g transform="translate(10.209 6.929)">
					<path class="st5" d="M-122.7-12.2L-122.7-12.2l-6.8,4.7v-0.1l-2.6-2.2l-6.5-5.6l-2.7-2.3l6.7-4.6l2.7,2.3l6.5,5.6L-122.7-12.2z
						"/>
					<path class="st0" d="M-130.2-6.2v-1.1l-2.4-2l-6.5-5.6l-3.3-2.9l7.9-5.5l3.1,2.6l6.5,5.6l2.9,2.5v0.7L-130.2-6.2z M-140.1-17.7
						l2,1.7l8.7,7.5l5.6-3.8l-2-1.7l-8.8-7.5L-140.1-17.7z"/>
					<path class="st5" d="M-122.7-7.1V-2l-6.8,4.6V-7.5l6.8-4.6V-7.1z"/>
					<path class="st0" d="M-122-13.5v11.8l-8.2,5.6V-7.9L-122-13.5z M-123.4-2.4v-8.4l-5.4,3.7v8.4L-123.4-2.4z"/>
					<circle class="st5" cx="-125.3" cy="-19.4" r="1.7"/>
					<circle class="st5" cx="-138.8" cy="-10.5" r="1.7"/>
				</g>
				<path class="st0" d="M-114.2-23c0.2,0,0.3,0.1,0.5,0.2l11.8,10.1c0.3,0.3,0.3,0.7,0.1,1c0,0-0.1,0.1-0.1,0.1l-10.1,7l-6.8,4.6
					L-129,7c-0.3,0.2-0.6,0.2-0.9,0l-11.8-10.1c-0.3-0.3-0.3-0.7-0.1-1c0,0,0.1-0.1,0.1-0.1l10.2-7l6.7-4.6l10.1-6.9
					C-114.5-23-114.4-23-114.2-23z M-103.5-12.3l-10.7-9.2l-16.4,11.3l-9.5,6.5l10.7,9.2l9.7-6.7l6.8-4.6L-103.5-12.3z"/>
				<path class="st0" d="M-115.2-6.8c-0.4,0-0.7-0.3-0.7-0.7c0-0.2,0.1-0.5,0.3-0.6l4.8-3.3c-0.2-0.4-0.3-0.8-0.3-1.3
					c0-0.4,0.2-0.8,0.4-1.2l-2.9-2.5c-0.6,0.2-1.3,0.2-1.9-0.1l-5.8,3.9c-0.3,0.2-0.8,0.1-1-0.2s-0.1-0.8,0.2-1l6.2-4.2
					c0.3-0.2,0.6-0.2,0.8,0c0.3,0.3,0.8,0.3,1.2,0.1c0.3-0.2,0.6-0.2,0.9,0l3.9,3.3c0.3,0.3,0.3,0.7,0.1,1c0,0-0.1,0.1-0.1,0.1
					c-0.3,0.2-0.4,0.5-0.4,0.8c0,0.3,0.1,0.6,0.4,0.8c0.3,0.3,0.3,0.7,0.1,1c0,0-0.1,0.1-0.1,0.1l-5.4,3.7
					C-114.9-6.9-115-6.8-115.2-6.8z"/>
				<path class="st0" d="M-128.2,2.1c-0.2,0-0.3-0.1-0.5-0.2c-0.3-0.3-0.8-0.3-1.2-0.1c-0.3,0.2-0.6,0.2-0.9,0l-3.9-3.3
					c-0.3-0.3-0.3-0.7-0.1-1c0,0,0.1-0.1,0.1-0.1c0.2-0.2,0.4-0.5,0.4-0.8c0-0.3-0.1-0.6-0.4-0.8c-0.3-0.3-0.3-0.7-0.1-1
					c0,0,0.1-0.1,0.1-0.1l5.5-3.8c0.3-0.2,0.8-0.1,1,0.2c0.2,0.3,0.1,0.8-0.2,1l-4.9,3.4c0.2,0.4,0.3,0.8,0.3,1.2c0,0,0,0,0,0
					c0,0.4-0.2,0.8-0.4,1.2l2.9,2.5c0.6-0.2,1.3-0.2,1.9,0.1l5.9-4c0.3-0.2,0.8-0.1,1,0.2s0.1,0.8-0.2,1l-6.3,4.3
					C-127.9,2-128,2.1-128.2,2.1z"/>
				<path class="st0" d="M-112.5,5.6c-0.4,0-0.7-0.3-0.7-0.7V-5l-2.4-2.1l-9.2-7.9c-0.3-0.2-0.3-0.7-0.1-1c0.2-0.3,0.7-0.3,1-0.1
					c0,0,0,0,0,0l2.7,2.3l6.5,5.6l2.6,2.3c0.2,0.1,0.2,0.3,0.2,0.5V4.9C-111.8,5.3-112.1,5.6-112.5,5.6
					C-112.5,5.6-112.5,5.6-112.5,5.6z"/>
				<path class="st0" d="M-119.3,10.3c-0.4,0-0.7-0.3-0.7-0.7v-9.9l-2.4-2l-6.5-5.6l-2.7-2.3c-0.3-0.2-0.3-0.7-0.1-1s0.7-0.3,1-0.1
					c0,0,0,0,0,0L-128-9l9.1,7.9c0.2,0.1,0.2,0.3,0.2,0.5V9.6C-118.6,9.9-118.9,10.3-119.3,10.3z"/>
				<path class="st0" d="M-129.4,12.2c-0.2,0-0.3-0.1-0.5-0.2l-11.8-10.1c-0.3-0.2-0.3-0.7-0.1-1c0.2-0.3,0.7-0.3,1-0.1c0,0,0,0,0,0
					l11.4,9.8l9.7-6.7c0.3-0.2,0.8-0.1,1,0.2c0.2,0.3,0.1,0.7-0.2,1l-10.1,7C-129.2,12.1-129.3,12.2-129.4,12.2z"/>
				<path class="st0" d="M-112.5,0.5c-0.2,0-0.4-0.1-0.6-0.3c-0.2-0.3-0.1-0.8,0.2-1c0,0,0,0,0,0l10.1-7c0.3-0.2,0.8-0.1,1,0.2
					c0.2,0.3,0.1,0.8-0.2,1l-10.1,7C-112.3,0.5-112.4,0.5-112.5,0.5z"/>
				<path class="st0" d="M-129.4,17.2c-0.2,0-0.3-0.1-0.5-0.2l-11.8-10.1c-0.3-0.2-0.3-0.7-0.1-1c0.2-0.3,0.7-0.3,1-0.1c0,0,0,0,0,0
					l11.4,9.8l9.7-6.7l6.8-4.6l10.1-7c0.3-0.2,0.8-0.1,1,0.2c0.2,0.3,0.1,0.8-0.2,1c0,0,0,0,0,0l-10.1,7l-6.8,4.6l-10.1,7
					C-129.2,17.2-129.3,17.2-129.4,17.2z"/>
			</g>
		</g>
	</g>
	<g transform="translate(128.5 -102.388)">
		<circle class="st3" cx="167.1" cy="317.9" r="19.9"/>
		<g transform="translate(287.5 319.388)">
			<path class="st5" d="M-108.7-5.4h-8v-8h-7.6v8h-8v7.6h8v8h7.6v-8h8V-5.4z"/>
			<path class="st0" d="M-124.7-13.9h8.6v8h8v8.6h-8v8h-8.6v-8h-8v-8.6h8V-13.9z M-117.2-12.9h-6.6v8h-8v6.6h8v8h6.6v-8h8v-6.6h-8
				V-12.9z"/>
			<path class="st0" d="M-123.1,11.3c-1.2,0-2.2-1-2.2-2.2V3.8c0-0.2-0.2-0.4-0.4-0.4c0,0,0,0,0,0h-5.3c-1.2,0-2.2-1-2.2-2.2v-5.3
				c0-1.2,1-2.2,2.2-2.2h5.3c0.2,0,0.4-0.2,0.4-0.4c0,0,0,0,0,0v-5.3c0-1.2,1-2.2,2.2-2.2h5.3c1.2,0,2.2,1,2.2,2.2v5.3
				c0,0.2,0.2,0.4,0.4,0.4h0h5.3c1.2,0,2.2,1,2.2,2.2v5.3c0,1.2-1,2.2-2.2,2.2h-5.3c-0.2,0-0.4,0.2-0.4,0.4v0v5.3
				c0,1.2-1,2.2-2.2,2.2L-123.1,11.3z M-131.1-4.6c-0.2,0-0.4,0.2-0.4,0.4v0v5.3c0,0.2,0.2,0.4,0.4,0.4c0,0,0,0,0,0h6.6
				c0.5,0,0.9,0.4,0.9,0.9v6.6c0,0.2,0.2,0.4,0.4,0.4c0,0,0,0,0,0h5.3c0.2,0,0.4-0.2,0.4-0.4v0V2.5c0-0.5,0.4-0.9,0.9-0.9h6.6
				c0.2,0,0.4-0.2,0.4-0.4c0,0,0,0,0,0v-5.3c0-0.2-0.2-0.4-0.4-0.4h-6.6c-0.5,0-0.9-0.4-0.9-0.9v-6.6c0-0.2-0.2-0.4-0.4-0.4h0h-5.3
				c-0.2,0-0.4,0.2-0.4,0.4c0,0,0,0,0,0v6.6c0,0.5-0.4,0.9-0.9,0.9L-131.1-4.6z"/>
			<path class="st0" d="M-120.4,19.3c-11.5,0-20.8-9.3-20.8-20.8c0-11.5,9.3-20.8,20.8-20.8c3.6,0,7.2,1,10.4,2.8
				c0.4,0.2,0.6,0.8,0.3,1.2c-0.2,0.4-0.8,0.6-1.2,0.3c0,0,0,0,0,0c-9.1-5.3-20.8-2.1-26,7s-2.1,20.8,7,26c9.1,5.3,20.8,2.1,26-7
				c1.7-2.9,2.5-6.2,2.5-9.5c0-0.9-0.1-1.7-0.2-2.5c-0.2-1.5-0.6-2.9-1.1-4.3c-0.4-0.9-0.8-1.8-1.3-2.7c-0.2-0.4-0.1-1,0.3-1.2
				c0.1-0.1,0.3-0.1,0.4-0.1c0.3,0,0.6,0.2,0.8,0.4c0.5,0.9,1,1.9,1.4,2.9c0.6,1.5,1,3.1,1.2,4.7c0.1,0.9,0.2,1.9,0.2,2.8
				C-99.6,10-108.9,19.3-120.4,19.3z"/>
		</g>
	</g>
	<g transform="translate(494.977 212)">
		<path class="st3" d="M-110.5,12.4l-15.1,0.2c0,0-3.4-2.7-4.8-2.7c-1.4,0-4.9,2.5-4.9,2.5h-3.1v-24.7h27.9V12.4z"/>
		<path class="st3" d="M-110.1-7.3h9.4c0,0,8.7,6.2,9.3,19.7l-5.7,0.2c0,0-2.3-3.5-4.7-2.7c-1.7,0.6-3.2,1.6-4.5,2.7l-3.9-0.2
			L-110.1-7.3z"/>
		<path class="st5" d="M-106.9-3.9h5c0,0,4.7,6,5.1,7.5c0.4,1.5-10.1,0.7-10.1,0.7L-106.9-3.9z"/>
		<path class="st2" d="M-122.8-1.7h7v7.1h-18V-7.3l10.8,0.1L-122.8-1.7z"/>
		<circle class="st5" cx="-101.7" cy="15.1" r="2.2"/>
		<circle class="st5" cx="-130.4" cy="15.1" r="2.3"/>
		<g transform="translate(1.024 10)">
			<path class="st0" d="M-92.4,3.1h-5.9c-0.4,0-0.7-0.3-0.7-0.7s0.3-0.7,0.7-0.7h5.2V1.2c0-3.6-0.4-4.5-1.2-6.2l-0.2-0.3
				c-1.6-3.7-4.9-11.3-8.9-11.3h-7.6V1.7h3.6c0.4,0,0.7,0.3,0.7,0.7s-0.3,0.7-0.7,0.7h-4.3c-0.4,0-0.7-0.3-0.7-0.7l0,0v-19.7
				c0-0.4,0.3-0.7,0.7-0.7l0,0h8.3c1.3,0,2.5,0.5,3.5,1.4c1.1,0.9,2,2,2.8,3.1c1.5,2.4,2.8,5,3.9,7.7l0.1,0.3
				c0.8,1.8,1.3,2.9,1.3,6.8v1.2C-91.7,2.8-92,3.1-92.4,3.1L-92.4,3.1z"/>
			<path class="st0" d="M-111.6,3.1H-127c-0.4,0-0.7-0.3-0.7-0.7s0.3-0.7,0.7-0.7h14.7v-23.3h-26.9V1.7h3.2c0.4,0,0.7,0.3,0.7,0.7
				s-0.3,0.7-0.7,0.7h-3.9c-0.4,0-0.7-0.3-0.7-0.7l0,0v-24.7c0-0.4,0.3-0.7,0.7-0.7h28.3c0.4,0,0.7,0.3,0.7,0.7c0,0,0,0,0,0V2.4
				C-110.9,2.8-111.2,3.1-111.6,3.1L-111.6,3.1z"/>
			<path class="st0" d="M-108-14.6h3.8c1.8,0,3.6,1.5,5.2,4.5c0.7,1.4,1.4,2.8,1.9,4.2c0.1,0.4-0.1,0.8-0.5,0.9c-0.1,0-0.1,0-0.2,0
				H-108c-0.4,0-0.7-0.3-0.7-0.7v0v-8.2C-108.7-14.3-108.4-14.6-108-14.6L-108-14.6z M-98.8-6.4c-0.4-1.1-0.9-2.1-1.4-3.1
				c-0.9-1.7-2.4-3.7-4-3.7h-3.1v6.8H-98.8z"/>
			<path class="st0" d="M-123.7-12.9h6.9c0.4,0,0.7,0.3,0.7,0.7v7.4c0,0.4-0.3,0.7-0.7,0.7l0,0h-6.9c-0.4,0-0.7-0.3-0.7-0.7v-7.4
				C-124.4-12.6-124.1-12.9-123.7-12.9L-123.7-12.9z M-117.5-11.5h-5.5v6h5.5V-11.5z"/>
			<g transform="translate(6.664 5.037)">
				<path class="st0" d="M-141.3-23h10.9c0.4,0,0.7,0.3,0.7,0.7v12.5c0,0.4-0.3,0.7-0.7,0.7h-10.9c-0.4,0-0.7-0.3-0.7-0.7v-12.5
					C-142-22.7-141.7-23-141.3-23L-141.3-23z M-131.1-21.6h-9.5v11.1h9.5V-21.6z"/>
				<path class="st0" d="M-135.8-17.2c-0.4,0-0.7-0.3-0.7-0.7v-4.5c0-0.4,0.3-0.7,0.7-0.7l0,0c0.4,0,0.7,0.3,0.7,0.7l0,0v4.5
					C-135.1-17.5-135.4-17.2-135.8-17.2C-135.8-17.2-135.8-17.2-135.8-17.2z"/>
			</g>
			<path class="st0" d="M-136.7,6.7h-4.6c-0.4,0-0.7-0.3-0.7-0.7l0,0c0-0.4,0.3-0.7,0.7-0.7l0,0h4.6c0.4,0,0.7,0.3,0.7,0.7
				C-136,6.4-136.3,6.7-136.7,6.7z"/>
			<path class="st0" d="M-108,6.7h-18.2c-0.4,0-0.7-0.3-0.7-0.7l0,0c0-0.4,0.3-0.7,0.7-0.7l0,0h18.2c0.4,0,0.7,0.3,0.7,0.7
				c0,0,0,0,0,0C-107.3,6.4-107.6,6.7-108,6.7L-108,6.7z"/>
			<path class="st0" d="M-91,6.7h-6.6c-0.4,0-0.7-0.3-0.7-0.7l0,0c0-0.4,0.3-0.7,0.7-0.7l0,0h6.6c0.4,0,0.7,0.3,0.7,0.7
				C-90.3,6.4-90.6,6.7-91,6.7z"/>
			<g transform="translate(33.262 22.216)">
				<path class="st0" d="M-136-23L-136-23c3.3,0,5.9,2.7,5.9,5.9c0,3.3-2.7,5.9-5.9,5.9c-3.3,0-5.9-2.7-5.9-5.9c0,0,0,0,0,0
					C-142-20.4-139.3-23-136-23z M-136-12.6c2.5,0,4.5-2,4.5-4.5s-2-4.5-4.5-4.5s-4.5,2-4.5,4.5c0,1.2,0.5,2.4,1.3,3.2
					C-138.4-13-137.2-12.6-136-12.6L-136-12.6z"/>
			</g>
			<g transform="translate(4.559 22.216)">
				<path class="st0" d="M-136-23L-136-23c3.3,0,5.9,2.7,5.9,5.9c0,3.3-2.7,5.9-5.9,5.9c-3.3,0-5.9-2.7-5.9-5.9c0,0,0,0,0,0
					C-142-20.4-139.3-23-136-23z M-136-12.6c2.5,0,4.5-2,4.5-4.5c0-2.5-2-4.5-4.5-4.5s-4.5,2-4.5,4.5c0,1.2,0.5,2.4,1.3,3.2
					C-138.4-13-137.2-12.6-136-12.6L-136-12.6z"/>
			</g>
			<path class="st0" d="M-131.5,1.9L-131.5,1.9c1.8,0,3.2,1.4,3.2,3.2s-1.4,3.2-3.2,3.2c-1.8,0-3.2-1.4-3.2-3.2
				C-134.7,3.3-133.2,1.9-131.5,1.9L-131.5,1.9z M-131.5,6.9c1,0,1.8-0.8,1.8-1.8c0-1-0.8-1.8-1.8-1.8l0,0c-1,0-1.8,0.8-1.8,1.8
				C-133.3,6.1-132.5,6.9-131.5,6.9C-131.5,6.9-131.5,6.9-131.5,6.9z"/>
			<path class="st0" d="M-102.8,2.1L-102.8,2.1c1.7,0,3,1.3,3,3s-1.3,3-3,3s-3-1.3-3-3S-104.4,2.1-102.8,2.1z M-102.8,6.7
				c0.9,0,1.6-0.7,1.6-1.6c0-0.9-0.7-1.6-1.6-1.6l0,0c-0.9,0-1.6,0.7-1.6,1.6C-104.4,6-103.6,6.7-102.8,6.7z"/>
			<path class="st0" d="M-92.4,0h-3.4c-0.4,0-0.7-0.3-0.7-0.7l0,0c0-0.4,0.3-0.7,0.7-0.7l0,0h3.4c0.4,0,0.7,0.3,0.7,0.7
				S-92.1,0-92.4,0z"/>
		</g>
	</g>
	<g transform="translate(38 241.938)">
		<path class="st1" d="M-106.9,71.7h-2.3c-0.8,0-1.5,0.7-1.5,1.5v4.6c0,0.8,0.7,1.5,1.5,1.5h4.6L-106.9,71.7z"/>
		<path class="st8" d="M-103.1,91.4c-2.9,0-5.3-2.4-5.3-5.3c0-2.9,2.4-5.3,5.3-5.3s5.3,2.4,5.3,5.3l0,0
			C-97.8,89.1-100.1,91.4-103.1,91.4z"/>
		<g transform="translate(32.876 103.161)">
			<path class="st8" d="M-136-11.7c-2.9,0-5.3-2.4-5.3-5.3c0-2.9,2.4-5.3,5.3-5.3s5.3,2.4,5.3,5.3l0,0
				C-130.6-14.1-133-11.7-136-11.7z"/>
		</g>
		<g transform="translate(4.815 103.924)">
			<circle class="st3" cx="-107.9" cy="-17.8" r="3.8"/>
			<circle class="st3" cx="-136.7" cy="-17.8" r="4.6"/>
		</g>
		<path class="st8" d="M-131.9,91.4c-2.9,0-5.3-2.4-5.3-5.3s2.4-5.3,5.3-5.3s5.3,2.4,5.3,5.3l0,0C-126.6,89.1-129,91.4-131.9,91.4z
			 M-131.9,82.3c-2.1,0-3.8,1.7-3.8,3.8s1.7,3.8,3.8,3.8c2.1,0,3.8-1.7,3.8-3.8C-128.1,84-129.8,82.3-131.9,82.3
			C-131.9,82.3-131.9,82.3-131.9,82.3L-131.9,82.3z"/>
		<path class="st9" d="M-106.9,60.3h-1.5v-2.7l-1.8-1.8l1.1-1.1l2.1,2.1c0.1,0.1,0.2,0.3,0.2,0.5L-106.9,60.3z"/>
		<path class="st10" d="M-116.1,62.8l5.3-1.1l0.3,1.5l-5.3,1.1L-116.1,62.8z"/>
		<path class="st3" d="M-130.4,71v-3.8c0-0.4,0.3-0.8,0.8-0.8c0,0,0,0,0,0h11.4c0.4,0,0.8,0.3,0.8,0.8v2.3L-130.4,71z"/>
		<g transform="translate(7.848 106.956)">
			<path class="st11" d="M-139.8-19.3c-0.8,0-1.5-0.7-1.5-1.5c0-0.8,0.7-1.5,1.5-1.5s1.5,0.7,1.5,1.5c0,0.4-0.2,0.8-0.4,1.1
				C-139-19.5-139.3-19.3-139.8-19.3z"/>
			<path class="st11" d="M-110.9-19.3c-0.8,0-1.5-0.7-1.5-1.5s0.7-1.5,1.5-1.5s1.5,0.7,1.5,1.5l0,0C-109.4-20-110.1-19.3-110.9-19.3
				z"/>
		</g>
		<path class="st3" d="M-131.9,71h-4.6c-0.8,0-1.5,0.7-1.5,1.5c0,0,0,0,0,0V77L-131.9,71z"/>
		<g transform="translate(1.779 84.959)">
			<path class="st1" d="M-141.3-1.9h38.7v3h-38.7V-1.9z"/>
			<path class="st1" d="M-119.3-1.9v3h-22v-3c0-7.5,6.1-13.7,13.6-13.7h8.3l-1.5,3.4c-1,2.2-1,4.6,0,6.8L-119.3-1.9z"/>
			<path class="st1" d="M-104.1-5.7l0.2,0.6h-3l-0.3-0.6l-4.6-15.2l-0.8-1.5h3l0.8,1.5L-104.1-5.7z"/>
		</g>
		<path class="st1" d="M-109.2,66.4h3l-0.7-2.3h-3L-109.2,66.4z"/>
		<path class="st1" d="M-109.1,59.6h4.3v4.6h-4.3c-1.3,0-2.3-1-2.3-2.3S-110.4,59.6-109.1,59.6L-109.1,59.6z"/>
		<path class="st5" d="M-111.4,61.9c0,1.3,1,2.3,2.3,2.3c0,0,0,0,0,0h3v-2.3H-111.4z"/>
		<g transform="translate(1.785 101.193)">
			<path class="st2" d="M-98-15.1c0.2-3.8-2.6-7-6.4-7.3c-3.8-0.2-7,2.6-7.3,6.4c0,0.3,0,0.6,0,0.9H-98z"/>
			<path class="st2" d="M-126.1-15.1c-0.1-4.1-3.5-7.3-7.6-7.2c-4.1-0.1-7.5,3.1-7.6,7.2H-126.1z"/>
		</g>
		<path class="st3" d="M-106.1,59.6h2.3c0.4,0,0.8,0.3,0.8,0.8l0,0v3c0,0.4-0.3,0.8-0.8,0.8c0,0,0,0,0,0h-2.3V59.6z"/>
		<path class="st3" d="M-103.1,63.4v-1.5h-3v2.3h2.3C-103.4,64.1-103.1,63.8-103.1,63.4C-103.1,63.4-103.1,63.4-103.1,63.4z"/>
		<g transform="translate(6.33 91.785)">
			<path class="st1" d="M-138.2-18.6h1.5v2.3h-1.5V-18.6z"/>
			<path class="st1" d="M-135.2-18.6h1.5v2.3h-1.5V-18.6z"/>
			<path class="st1" d="M-132.2-18.6h1.5v2.3h-1.5V-18.6z"/>
			<path class="st1" d="M-141.3-9.5h6.1v1.5h-6.1V-9.5z"/>
			<path class="st1" d="M-124.8-20.1l1-2.3h-8.3c-2.7,0-5.3,0.8-7.5,2.3H-124.8z"/>
		</g>
		<path class="st0" d="M-131.9,91.4c-2.9,0-5.3-2.4-5.3-5.3c0-0.4,0.3-0.8,0.8-0.8c0.4,0,0.8,0.3,0.8,0.8c0,2.1,1.7,3.8,3.8,3.8
			s3.8-1.7,3.8-3.8c0,0,0,0,0,0c0-0.4,0.3-0.8,0.8-0.8c0.4,0,0.8,0.3,0.8,0.8C-126.6,89.1-129,91.4-131.9,91.4z"/>
		<path class="st0" d="M-103.1,91.4c-2.9,0-5.3-2.4-5.3-5.3c0-0.4,0.3-0.8,0.8-0.8c0.4,0,0.8,0.3,0.8,0.8c0,0,0,0,0,0
			c0,2.1,1.7,3.8,3.8,3.8s3.8-1.7,3.8-3.8l0,0c0-0.4,0.3-0.8,0.8-0.8c0.4,0,0.8,0.3,0.8,0.8c0,0,0,0,0,0
			C-97.8,89.1-100.2,91.4-103.1,91.4z"/>
		<path class="st3" d="M-131.1,86.1c0,0.4-0.3,0.8-0.8,0.8c-0.4,0-0.8-0.3-0.8-0.8c0,0,0,0,0,0"/>
		<path class="st0" d="M-131.9,87.6c-0.8,0-1.5-0.7-1.5-1.5v-0.8h3v0.8C-130.4,87-131.1,87.6-131.9,87.6z"/>
		<path class="st3" d="M-102.3,86.1c0,0.4-0.3,0.8-0.8,0.8c-0.4,0-0.8-0.3-0.8-0.8c0,0,0,0,0,0"/>
		<path class="st0" d="M-103.1,87.6c-0.8,0-1.5-0.7-1.5-1.5v-0.8h3v0.8C-101.6,87-102.2,87.6-103.1,87.6z"/>
		<path class="st0" d="M-138.7,78.1v-5.6c0-1.3,1-2.3,2.3-2.3h5.6L-138.7,78.1z M-136.5,71.7c-0.4,0-0.8,0.3-0.8,0.8v2l2.7-2.7
			L-136.5,71.7z"/>
		<rect x="-125.1" y="85.4" class="st0" width="15.9" height="1.5"/>
		<rect x="-125.1" y="82.3" class="st0" width="15.9" height="1.5"/>
		<path class="st0" d="M-117.5,83.8h-7.1c-0.4,0-0.8-0.3-0.8-0.8c0-0.4,0.3-0.8,0.8-0.8h5.9l-1.1-2.4c-1-2.4-1-5,0-7.4l1.1-2.4h-7.2
			c-7.1,0-12.9,5.8-12.9,12.9c0,0.4-0.3,0.8-0.8,0.8c-0.4,0-0.8-0.3-0.8-0.8c0-8,6.5-14.4,14.4-14.4h8.3c0.4,0,0.8,0.3,0.8,0.8
			c0,0.1,0,0.2-0.1,0.3l-1.5,3.4c-0.9,2-0.9,4.2,0,6.2l1.5,3.4c0.2,0.4,0,0.8-0.4,1C-117.3,83.8-117.4,83.9-117.5,83.8L-117.5,83.8z
			"/>
		<path class="st0" d="M-117.5,70.2h-12.1c-0.4,0-0.8-0.3-0.8-0.8l0,0v-2.3c0-0.9,0.7-1.5,1.6-1.5h10.5c0.8,0,1.5,0.7,1.6,1.5v2.3
			C-116.7,69.9-117.1,70.2-117.5,70.2z M-128.9,68.7h10.6v-1.5h-10.6L-128.9,68.7z"/>
		<path class="st0" d="M-105.9,80.2l-5.1-16.9h4.6l4.3,14.2l-1.5,0.4l-3.9-13.1h-1.5l4.5,14.9L-105.9,80.2z"/>
		
			<rect x="-103.5" y="76.2" transform="matrix(0.9579 -0.287 0.287 0.9579 -26.6468 -26.2227)" class="st0" width="1.5" height="3.1"/>
		<path class="st0" d="M-105.4,64.9h-3.8c-1.7,0-3-1.4-3-3c0-1.7,1.4-3,3-3l0,0h3.8L-105.4,64.9z M-109.1,60.3
			c-0.8,0-1.5,0.6-1.6,1.5s0.6,1.5,1.5,1.6c0,0,0.1,0,0.1,0h2.3v-3L-109.1,60.3z"/>
		<path class="st0" d="M-123.5,86.9h-16.7l0-0.8c0.1-4.5,3.9-8,8.4-7.9c4.5-0.1,8.2,3.5,8.3,7.9L-123.5,86.9z M-138.7,85.4h13.5
			c-0.5-3.3-3.4-5.8-6.7-5.7C-135.3,79.6-138.2,82-138.7,85.4L-138.7,85.4z"/>
		
			<rect x="-116" y="62.2" transform="matrix(0.9805 -0.1963 0.1963 0.9805 -14.5695 -21.0175)" class="st0" width="5.4" height="1.5"/>
		<path class="st0" d="M-103.8,64.9h-3v-6.1h3c0.8,0,1.5,0.7,1.5,1.5v3C-102.3,64.2-103,64.9-103.8,64.9z M-105.4,63.4h1.5v-3h-1.5
			V63.4z"/>
		<path class="st0" d="M-105.4,80.1h-3.8c-1.3,0-2.3-1-2.3-2.3v-4.6c0-1.3,1-2.3,2.3-2.3h1.5c0.3,0,0.6,0.2,0.7,0.5l2.3,7.6
			c0.1,0.4-0.1,0.8-0.5,0.9C-105.2,80-105.3,80.1-105.4,80.1L-105.4,80.1z M-109.1,72.5c-0.4,0-0.8,0.3-0.8,0.8l0,0v4.6
			c0,0.4,0.3,0.8,0.8,0.8h2.8l-1.8-6.1L-109.1,72.5z"/>
		<path class="st0" d="M-106.9,60.3h-1.5v-2.7l-1.8-1.8l1.1-1.1l2.1,2.1c0.1,0.1,0.2,0.3,0.2,0.5L-106.9,60.3z"/>
		<rect x="-131.9" y="73.2" class="st0" width="1.5" height="2.3"/>
		<rect x="-128.9" y="73.2" class="st0" width="1.5" height="2.3"/>
		<rect x="-125.8" y="73.2" class="st0" width="1.5" height="2.3"/>
		<path class="st3" d="M-134.2,83.1h4.6"/>
		<rect x="-134.9" y="82.3" class="st0" width="6.1" height="1.5"/>
		<path class="st0" d="M-95.5,86.9h-15.1l0-0.7c-0.1-4.3,3.3-7.9,7.6-8h0c4.3,0.1,7.7,3.7,7.6,8L-95.5,86.9z M-109.1,85.4H-97
			c-0.3-3.1-2.9-5.6-6-5.7C-106.2,79.8-108.8,82.2-109.1,85.4z"/>
	</g>
	<g transform="translate(-151.236 -895.545)">
		<path class="st1" d="M167.2,1204.6l3.2-0.9l6.3,0.9l3.9,7.8c0,0,8.9,1.4,9.2,1.4s0.5,2.1,0.5,2.1l-2.9,0.5l1.4,1.7l1.9,0.8
			c0,0,0.2,5.1-0.4,4.7s-4.7,0-4.7,0v-4.1l-1.4-1.4l-8,0.8l-0.9,2.5v1.7h-16.9v-4.2l-1.7-0.8l-6.9,0.8l-1.6,0.6v4.1l-3.6-0.5
			l-0.9-4.2v-5.1h23.9L167.2,1204.6z"/>
		<path class="st3" d="M170.8,1206.6h4l2.6,4.7h-6.6L170.8,1206.6z"/>
		<g transform="translate(280.237 1217.545)">
			<path class="st0" d="M-99.7,2.2c1.9,0,3.5,1.6,3.5,3.5s-1.6,3.5-3.5,3.5c-1.9,0-3.5-1.6-3.5-3.5C-103.2,3.8-101.6,2.2-99.7,2.2z
				 M-99.7,8c1.3,0,2.3-1,2.3-2.3c0-1.3-1-2.3-2.3-2.3c-1.3,0-2.3,1-2.3,2.3C-102,7-101,8-99.7,8z"/>
			<path class="st0" d="M-126.8,2.2c1.9,0,3.5,1.6,3.5,3.5s-1.6,3.5-3.5,3.5c-1.9,0-3.5-1.6-3.5-3.5C-130.3,3.8-128.7,2.2-126.8,2.2
				z M-126.8,8c1.3,0,2.3-1,2.3-2.3c0-1.3-1-2.3-2.3-2.3c-1.3,0-2.3,1-2.3,2.3C-129.1,7-128,8-126.8,8z"/>
			<path class="st0" d="M-104.6,6.3h-17.2c-0.3,0-0.6-0.3-0.6-0.6c0,0,0,0,0,0c0-0.3,0.3-0.6,0.6-0.6c0,0,0,0,0,0h17.2
				c0.3,0,0.6,0.3,0.6,0.6c0,0,0,0,0,0C-104,6.1-104.3,6.3-104.6,6.3L-104.6,6.3z"/>
			<path class="st0" d="M-121.8,6.3c-0.3,0-0.6-0.3-0.6-0.6v0V3c0-0.9-0.7-1.6-1.6-1.6h-5.4c-0.9,0-1.6,0.7-1.6,1.6v2.7
				c0,0.3-0.3,0.6-0.6,0.6c-0.3,0-0.6-0.3-0.6-0.6c0,0,0,0,0,0V3c0-1.6,1.3-2.8,2.8-2.8h5.4c1.6,0,2.8,1.3,2.8,2.8v2.7
				C-121.2,6.1-121.5,6.3-121.8,6.3z"/>
			<path class="st0" d="M-89.2,1.8h-1.9c-1.1,0-1.9-0.9-1.9-2c0-1,0.8-1.8,1.9-1.9h1.9c0.3,0,0.6,0.3,0.6,0.6c0,0.3-0.3,0.6-0.6,0.6
				c0,0,0,0,0,0h-1.9c-0.4,0-0.7,0.3-0.7,0.7c0,0.4,0.3,0.7,0.7,0.7h1.9c0.3,0,0.6,0.3,0.6,0.6C-88.6,1.5-88.9,1.8-89.2,1.8
				C-89.2,1.8-89.2,1.8-89.2,1.8z"/>
			<path class="st0" d="M-131.7,6.3h-4.6c-0.3,0-0.5-0.2-0.6-0.5c0-0.2-1.1-5.7,0-9.6c0.1-0.3,0.3-0.4,0.6-0.4h23.3
				c0.3,0,0.6,0.3,0.6,0.6c0,0.3-0.3,0.6-0.6,0.6c0,0,0,0,0,0h-22.9c-0.4,2.7-0.4,5.4,0,8.1h4.1c0.3,0,0.6,0.3,0.6,0.6
				C-131.1,6.1-131.4,6.3-131.7,6.3C-131.7,6.3-131.7,6.3-131.7,6.3L-131.7,6.3z"/>
			<path class="st0" d="M-94.8,6.3c-0.3,0-0.6-0.3-0.6-0.6v0V3c0-0.9-0.7-1.6-1.6-1.6h-5.4c-0.9,0-1.6,0.7-1.6,1.6v2.7
				c0,0.3-0.3,0.6-0.6,0.6s-0.6-0.3-0.6-0.6V3c0-1.6,1.3-2.8,2.8-2.8h5.4c1.6,0,2.8,1.3,2.8,2.8v2.7C-94.2,6.1-94.4,6.3-94.8,6.3
				L-94.8,6.3z"/>
			<path class="st0" d="M-90.7,6.4h-4.1c-0.3,0-0.6-0.3-0.6-0.6c0-0.3,0.3-0.6,0.6-0.6c0,0,0,0,0,0h4.1c0.5,0,0.9-0.4,0.9-0.9v-6.8
				c0-0.4-0.3-0.7-1-0.9l-8.5-1c-0.3,0-0.6-0.3-0.5-0.7c0-0.3,0.3-0.6,0.7-0.5l8.5,1c0,0,0.1,0,0.1,0c1.7,0.5,1.9,1.5,1.9,2.1v6.8
				C-88.6,5.5-89.5,6.4-90.7,6.4C-90.7,6.4-90.7,6.4-90.7,6.4z"/>
			<path class="st0" d="M-113-3c-0.3,0-0.6-0.3-0.6-0.6v0v-8.7c0-1.2,1-2.2,2.2-2.2h5.6c2,0.1,3.6,1.4,4.2,3.3l2.9,5.9
				c0.1,0.3,0,0.7-0.3,0.8c-0.3,0.1-0.7,0-0.8-0.3l-2.9-5.9c0,0,0,0,0-0.1c-0.4-1.4-1.6-2.4-3.1-2.6h-5.6c-0.6,0-1,0.5-1,1v8.7
				C-112.4-3.2-112.7-3-113-3C-113-3-113-3-113-3z"/>
			<path class="st0" d="M-103.4-4.9h-5.4c-0.8,0-1.5-0.6-1.5-1.5c0,0,0,0,0,0v-4.3c0-0.8,0.7-1.5,1.5-1.5c0,0,0,0,0,0h2.8
				c0.9-0.1,1.7,0.4,2,1.2l2.1,4.3c0,0.1,0.1,0.2,0.1,0.3C-101.9-5.5-102.5-4.9-103.4-4.9C-103.4-4.9-103.4-4.9-103.4-4.9z
				 M-108.8-10.9c-0.2,0-0.3,0.1-0.3,0.3v4.3c0,0.2,0.2,0.3,0.3,0.3h5.4c0.1,0,0.2-0.1,0.3-0.2l-2-4.1c0,0,0,0,0-0.1
				c-0.1-0.4-0.6-0.4-0.9-0.4L-108.8-10.9z"/>
			<path class="st0" d="M-107.8-2.4h-1.5c-0.3,0-0.6-0.3-0.6-0.6c0,0,0,0,0,0c0-0.3,0.3-0.6,0.6-0.6c0,0,0,0,0,0h1.5
				c0.3,0,0.6,0.3,0.6,0.6c0,0,0,0,0,0C-107.2-2.7-107.5-2.4-107.8-2.4L-107.8-2.4z"/>
			<path class="st0" d="M-89.2,4.1h-2.6c-0.3,0-0.6-0.3-0.6-0.6c0,0,0,0,0,0c0-0.3,0.3-0.6,0.6-0.6c0,0,0,0,0,0h2.6
				c0.3,0,0.6,0.3,0.6,0.6c0,0,0,0,0,0C-88.6,3.8-88.9,4.1-89.2,4.1C-89.2,4.1-89.2,4.1-89.2,4.1z"/>
			<path class="st0" d="M-136.7,3.9h-4.6c-0.3,0-0.6-0.3-0.6-0.6v0v-25.6c0-0.3,0.3-0.6,0.6-0.6h0h36.6c1.3,0,2.6,1,3.9,2.9
				c0.6,0.9,1.1,1.8,1.5,2.8c0.4,0.8,0.4,1.7,0,2.4c-0.9,1.4-3.1,1.6-3.4,1.6h-4.2c-0.3,0-0.6-0.3-0.6-0.6c0-0.3,0.3-0.6,0.6-0.6
				c0,0,0,0,0,0h4.2c0.5,0,2-0.3,2.4-1c0.2-0.4,0.2-0.9-0.1-1.3c-0.4-0.9-0.9-1.8-1.4-2.6c-1-1.5-2.1-2.4-2.9-2.4h-36V2.7h4
				c0.3,0,0.6,0.3,0.6,0.6C-136.1,3.6-136.3,3.9-136.7,3.9L-136.7,3.9z"/>
			<path class="st0" d="M-102.7-16h-9.6c-0.3,0-0.6-0.3-0.6-0.6v0v-3c0-0.3,0.3-0.6,0.6-0.6l0,0h7.6c0.2,0,0.4,0.1,0.5,0.3l2.1,3
				c0.2,0.3,0.1,0.6-0.2,0.8C-102.5-16-102.6-16-102.7-16L-102.7-16z M-111.7-17.2h7.9l-1.2-1.8h-6.6L-111.7-17.2z"/>
			<path class="st0" d="M-126.8-17.2h8.6c1.7,0,3.1,1.4,3.1,3.1v2.9c0,1.7-1.4,3.1-3.1,3.1h-8.6c-1.7,0-3.1-1.4-3.1-3.1v-2.9
				C-129.8-15.8-128.4-17.2-126.8-17.2z M-118.2-9.3c1,0,1.9-0.8,1.9-1.9v-2.9c0-1-0.8-1.9-1.9-1.9h-8.6c-1,0-1.9,0.8-1.9,1.9v2.9
				c0,1,0.8,1.9,1.9,1.9H-118.2z"/>
			<path class="st0" d="M-124.6-8.1c-0.3,0-0.6-0.3-0.6-0.6v-7.9c0-0.3,0.3-0.6,0.6-0.6c0,0,0,0,0,0c0.3,0,0.6,0.3,0.6,0.6
				c0,0,0,0,0,0v7.9C-124-8.4-124.2-8.1-124.6-8.1C-124.6-8.1-124.6-8.1-124.6-8.1z"/>
		</g>
	</g>
	<g transform="translate(-7 -915)">
		<rect x="99.1" y="1230.1" class="st2" width="31.9" height="19.6"/>
		<rect x="95.4" y="1222.4" class="st3" width="39.2" height="7.8"/>
		<rect x="110.9" y="1230.6" class="st1" width="8.5" height="18.7"/>
		<g transform="translate(236 1232)">
			<path class="st0" d="M-136.5,18.6c-0.5,0-0.9-0.4-0.9-0.9V-0.6c0-0.2-0.2-0.4-0.4-0.4h-2.6c-0.5,0-0.9-0.4-0.9-0.9v-7.8
				c0-0.5,0.4-0.9,0.9-0.9h6.8c0.2,0,0.4-0.2,0.4-0.4c0-0.2-0.1-0.3-0.2-0.4c-1.4-0.7-2.5-1.8-3.4-3.2c-0.6-1.1-0.7-2.4-0.3-3.5
				c0.7-1.7,2.1-3.1,3.8-3.7c1-0.4,2-0.6,3.1-0.6c1.3,0,2.5,0.3,3.6,1c2.7,1.6,4.4,4.8,5.4,7.2c0.1,0.2,0.3,0.3,0.6,0.2
				c0.1,0,0.2-0.1,0.2-0.2c0.9-2.4,2.6-5.6,5.4-7.2c1.1-0.6,2.3-1,3.6-1c1.1,0,2.1,0.2,3.1,0.6c1.7,0.6,3.1,2,3.8,3.7
				c0.4,1.2,0.3,2.4-0.3,3.5c-0.8,1.3-2,2.4-3.4,3.2c-0.2,0.1-0.3,0.4-0.2,0.6c0.1,0.1,0.2,0.2,0.4,0.2h6.8c0.5,0,0.9,0.4,0.9,0.9v0
				v7.8c0,0.5-0.4,0.9-0.9,0.9h-2.6c-0.2,0-0.4,0.2-0.4,0.4v18.3c0,0.5-0.4,0.9-0.9,0.9H-136.5z M-115.6-1c-0.2,0-0.4,0.2-0.4,0.4
				c0,0,0,0,0,0v17c0,0.2,0.2,0.4,0.4,0.4c0,0,0,0,0,0h9.1c0.2,0,0.4-0.2,0.4-0.4v-17c0-0.2-0.2-0.4-0.4-0.4h-3.3
				c-0.2,0-0.4,0.2-0.4,0.4c0,0,0,0.1,0,0.1c0.5,1.7,0.7,3.4,0.7,5.1c0,0.5-0.4,0.9-0.8,0.9s-0.9-0.4-0.9-0.8c0,0,0,0,0-0.1
				c0-1.8-0.3-3.6-0.8-5.4c-0.1-0.2-0.2-0.3-0.4-0.3L-115.6-1z M-123.4-1c-0.2,0-0.4,0.2-0.4,0.4v17c0,0.2,0.2,0.4,0.4,0.4h5.2
				c0.2,0,0.4-0.2,0.4-0.4v-17c0-0.2-0.2-0.4-0.4-0.4L-123.4-1z M-135.2-1c-0.2,0-0.4,0.2-0.4,0.4v17c0,0.2,0.2,0.4,0.4,0.4h9.1
				c0.2,0,0.4-0.2,0.4-0.4v-17c0-0.2-0.2-0.4-0.4-0.4h-3.1c-0.2,0-0.3,0.1-0.4,0.3c-0.6,1.7-0.8,3.5-0.8,5.4c0,0.5-0.4,0.9-0.9,0.9
				c-0.5,0-0.9-0.4-0.9-0.9c0,0,0,0,0,0c0-1.7,0.2-3.4,0.7-5.1c0.1-0.2-0.1-0.5-0.3-0.5c0,0-0.1,0-0.1,0L-135.2-1z M-115.1-8.8
				c-0.2,0-0.4,0.2-0.4,0.4c0,0.1,0.1,0.3,0.2,0.3c1.8,1.3,3.2,3.1,4.2,5.1c0.1,0.1,0.2,0.2,0.4,0.2h8.2c0.2,0,0.4-0.2,0.4-0.4v-5.2
				c0-0.2-0.2-0.4-0.4-0.4L-115.1-8.8z M-120.8-8.8c0,0-0.1,0-0.1,0c-3.1,0.8-5.7,2.7-7.4,5.4c-0.1,0.2-0.1,0.5,0.1,0.6
				c0.1,0,0.1,0.1,0.2,0.1h14.3c0.2,0,0.4-0.2,0.4-0.4c0-0.1,0-0.2-0.1-0.2C-115-6.1-117.6-8-120.8-8.8
				C-120.7-8.8-120.8-8.8-120.8-8.8L-120.8-8.8z M-139.1-8.8c-0.2,0-0.4,0.2-0.4,0.4v5.2c0,0.2,0.2,0.4,0.4,0.4h8.2
				c0.2,0,0.3-0.1,0.4-0.2c1-2,2.4-3.7,4.2-5.1c0.2-0.1,0.2-0.4,0.1-0.6c-0.1-0.1-0.2-0.2-0.3-0.2L-139.1-8.8z M-130.2-20.6
				c-0.8,0-1.7,0.2-2.5,0.5c-1.3,0.5-2.3,1.4-2.8,2.6c-0.3,0.7-0.2,1.4,0.2,2c1.9,3.3,7.8,4.9,12.4,4.9c0.1,0,0.3,0,0.4,0
				c0.2,0,0.4-0.2,0.4-0.4c0,0,0-0.1,0-0.1c-0.7-2.5-2.3-7-5.4-8.7C-128.3-20.3-129.2-20.6-130.2-20.6L-130.2-20.6z M-111.4-20.6
				c-1,0-1.9,0.3-2.7,0.7c-3.2,1.8-4.9,6.7-5.4,8.7c-0.1,0.2,0.1,0.5,0.3,0.5c0,0,0.1,0,0.1,0c0.1,0,0.3,0,0.4,0
				c4.6,0,10.5-1.5,12.4-4.9c0.4-0.6,0.4-1.4,0.2-2c-0.5-1.2-1.5-2.2-2.8-2.6C-109.7-20.4-110.6-20.6-111.4-20.6L-111.4-20.6z"/>
		</g>
	</g>
	<g transform="translate(31.699 -987.929)">
		<g transform="translate(287.3 1306.929)">
			<path class="st2" d="M-127.8,0.4v10.4c4.2-0.7,7.7,0.8,10.7,4c2.6-3.6,6.4-4.6,10.8-4V0.4L-127.8,0.4z"/>
			<path class="st0" d="M-106.3-0.3c0.4,0,0.7,0.3,0.7,0.7v10.4c0,0.4-0.3,0.7-0.7,0.7c0,0-0.1,0-0.1,0c-0.7-0.1-1.4-0.1-2.1-0.1
				c-3.2-0.2-6.2,1.3-8,3.9c-0.2,0.3-0.7,0.4-1,0.2c0,0-0.1-0.1-0.1-0.1c-2.5-2.7-5.3-4-8.3-4c-0.6,0-1.2,0.1-1.8,0.1
				c-0.4,0.1-0.7-0.2-0.8-0.6c0,0,0-0.1,0-0.1V0.4c0-0.4,0.3-0.7,0.7-0.7L-106.3-0.3L-106.3-0.3z M-107,9.9V1.1l-20.1,0v8.9
				c0.4,0,0.8-0.1,1.2-0.1c3.3,0.1,6.5,1.4,8.8,3.8c1-1.2,2.2-2.2,3.6-2.8c1.6-0.7,3.3-1.1,5.1-1C-108,9.9-107.5,9.9-107,9.9z"/>
			<path class="st2" d="M-92.8-2.3L-92.8-2.3l-12.6,4.6l-11.6,4.2l-24.2-8.8l15.4-5.7c1.8,4.8,7.1,7.3,12,5.6
				c2.5-0.9,4.5-2.9,5.5-5.4h0.6L-92.8-2.3z"/>
			<path class="st0" d="M-125.8-8.7c0.3,0,0.6,0.2,0.7,0.5c1.2,3.4,4.4,5.6,8,5.7c3.6,0.1,6.8-2.1,8.1-5.5c0.1-0.3,0.4-0.4,0.7-0.4
				h0.6c0.1,0,0.2,0,0.2,0L-92.6-3c0.4,0.1,0.6,0.5,0.4,0.9c-0.1,0.2-0.3,0.4-0.5,0.4L-105.2,3l-11.6,4.2c-0.2,0.1-0.3,0.1-0.5,0
				l-24.2-8.8c-0.4-0.1-0.5-0.5-0.4-0.9c0.1-0.2,0.2-0.3,0.4-0.4l15.4-5.7C-126-8.7-125.9-8.7-125.8-8.7z M-117.1-1.1h-0.1
				c-3.9,0-7.5-2.4-9.1-5.9l-13,4.8l22.2,8.1l11.3-4.1l10.8-4l-13-4.7h0C-109.5-3.5-113.1-1.1-117.1-1.1L-117.1-1.1z"/>
			<path class="st0" d="M-94.1,10.6c-0.4,0-0.7-0.3-0.7-0.7V-2.3c0-0.4,0.3-0.7,0.7-0.7l0,0c0.4,0,0.7,0.3,0.7,0.7l0,0V9.9
				C-93.4,10.3-93.8,10.6-94.1,10.6z"/>
			<path class="st12" d="M-95.7,11.2l-0.7,3.6h4.5l-0.7-3.6c-0.1-0.8-0.8-1.3-1.6-1.3l0,0C-94.9,9.9-95.5,10.5-95.7,11.2z"/>
			<path class="st0" d="M-94.1,9.2c1.1,0,2,0.8,2.2,1.9l0.7,3.6c0.1,0.4-0.2,0.7-0.6,0.8c0,0-0.1,0-0.1,0h-4.5
				c-0.4,0-0.7-0.3-0.7-0.7c0,0,0-0.1,0-0.1l0.7-3.6C-96.2,10-95.2,9.2-94.1,9.2L-94.1,9.2z M-92.7,14.1l-0.5-2.8
				c-0.1-0.4-0.4-0.7-0.9-0.7h0c-0.4,0-0.8,0.3-0.9,0.7l-0.5,2.8H-92.7z"/>
			<circle class="st3" cx="-117.1" cy="-11.2" r="9.3"/>
			<path class="st0" d="M-119.3-20.9c5.4-1.2,10.8,2.1,12,7.5s-2.1,10.8-7.5,12s-10.8-2.1-12-7.5C-128.1-14.3-124.7-19.7-119.3-20.9
				z M-115.1-2.7c4.6-1.1,7.5-5.7,6.5-10.4s-5.7-7.5-10.4-6.5c-4.6,1.1-7.5,5.7-6.5,10.4c0,0,0,0,0,0
				C-124.4-4.6-119.8-1.7-115.1-2.7z"/>
		</g>
		<g transform="translate(304.308 1310.943)">
			<circle class="st5" cx="-134.1" cy="-15.2" r="7.1"/>
		</g>
		<g transform="translate(309.259 1314.268)">
			<path class="st3" d="M-139.1-14.8c-1.2,0-2.2-1-2.2-2.2h1.1c0,0.6,0.5,1.1,1.1,1.1c0.6,0,1.1-0.5,1.1-1.1c0,0,0,0,0,0
				c0-0.6-0.8-1-1.2-1.1c-1.1-0.2-1.9-1.1-2-2.2c0-1.2,1-2.1,2.2-2.1c1.2,0,2.1,1,2.1,2.1h-1.1c0-0.6-0.5-1.1-1.1-1.1
				c-0.6,0-1.1,0.5-1.1,1.1c0,0,0,0,0,0c0,0.6,0.8,1,1.2,1.1c1.1,0.2,1.9,1.1,2,2.2C-136.9-15.7-137.9-14.8-139.1-14.8z"/>
		</g>
		<g transform="translate(310.885 1313.335)">
			<rect x="-141.3" y="-22.3" class="st3" width="1.1" height="1.1"/>
		</g>
		<g transform="translate(310.885 1321.706)">
			<rect x="-141.3" y="-22.3" class="st3" width="1.1" height="1.1"/>
		</g>
	</g>
	<g transform="translate(131.5 -0.387)">
		<g transform="translate(288.504 320.454)">
			<rect x="-141.3" y="-22.3" class="st3" width="28.3" height="35.3"/>
		</g>
		<g transform="translate(307.185 339.013)">
			<circle class="st2" cx="-132.8" cy="-13.9" r="8.5"/>
		</g>
		<g transform="translate(293.08 325.293)">
			<rect x="-141.3" y="-22.3" class="st5" width="19" height="4"/>
		</g>
		<g transform="translate(287.5 319.387)">
			<path class="st0" d="M-139.3,14.9c-1.1,0-2-0.9-2-2v-33.2c0-1.1,0.9-2,2-2h26.1c1.1,0,2,0.9,2,2v14.2c0,0.4-0.3,0.8-0.7,0.9
				c-0.4,0-0.8-0.3-0.9-0.7c0,0,0-0.1,0-0.1v-14.2c0-0.2-0.2-0.4-0.4-0.4c0,0,0,0,0,0h-26.1c-0.2,0-0.4,0.2-0.4,0.4c0,0,0,0,0,0
				v33.2c0,0.2,0.2,0.4,0.4,0.4c0,0,0,0,0,0h16.6c0.4,0,0.8,0.4,0.7,0.9c0,0.4-0.3,0.7-0.7,0.7L-139.3,14.9z"/>
			<g transform="translate(4.747 4.748)">
				<path class="st0" d="M-140.5-16c-0.4,0-0.8-0.4-0.8-0.8v-4.7c0-0.4,0.4-0.8,0.8-0.8h19c0.4,0,0.8,0.4,0.8,0.8v4.7
					c0,0.4-0.4,0.8-0.8,0.8L-140.5-16z M-127.4-20.8c-0.2,0-0.4,0.2-0.4,0.4c0,0,0,0,0,0v2.4c0,0.2,0.2,0.4,0.4,0.4c0,0,0,0,0,0h4.7
					c0.2,0,0.4-0.2,0.4-0.4v0v-2.4c0-0.2-0.2-0.4-0.4-0.4h0H-127.4z M-139.3-20.8c-0.2,0-0.4,0.2-0.4,0.4c0,0,0,0,0,0v2.4
					c0,0.2,0.2,0.4,0.4,0.4c0,0,0,0,0,0h9.5c0.2,0,0.4-0.2,0.4-0.4c0,0,0,0,0,0v-2.4c0-0.2-0.2-0.4-0.4-0.4c0,0,0,0,0,0H-139.3z"/>
			</g>
			<g transform="translate(4.747 14.243)">
				<path class="st0" d="M-140.5-6.5c-0.4,0-0.8-0.4-0.8-0.8v-14.2c0-0.4,0.4-0.8,0.8-0.8h19c0.4,0,0.8,0.3,0.9,0.7
					c0,0.4-0.3,0.8-0.7,0.9c0,0-0.1,0-0.1,0h-17.8c-0.2,0-0.4,0.2-0.4,0.4c0,0,0,0,0,0v2.4c0,0.2,0.2,0.4,0.4,0.4c0,0,0,0,0,0h13.1
					c0.4,0,0.8,0.4,0.7,0.9c0,0.4-0.3,0.7-0.7,0.7h-13.1c-0.2,0-0.4,0.2-0.4,0.4v0v2.4c0,0.2,0.2,0.4,0.4,0.4c0,0,0,0,0,0h9.5
					c0.4,0,0.8,0.4,0.8,0.8c0,0.4-0.4,0.8-0.8,0.8h-9.5c-0.2,0-0.4,0.2-0.4,0.4c0,0,0,0,0,0v2.4c0,0.2,0.2,0.4,0.4,0.4c0,0,0,0,0,0
					h9.5c0.4,0,0.8,0.4,0.8,0.8c0,0.4-0.4,0.8-0.8,0.8L-140.5-6.5z"/>
			</g>
			<g transform="translate(23.737 24.924)">
				<path class="st0" d="M-138.1-16c-0.2,0-0.4-0.1-0.6-0.2l-2.4-2.4c-0.3-0.3-0.2-0.8,0.1-1.1c0.3-0.3,0.7-0.3,1,0l1.5,1.5
					c0.2,0.2,0.4,0.2,0.5,0l3.9-3.9c0.3-0.3,0.8-0.2,1.1,0.1c0.3,0.3,0.3,0.7,0,1l-4.7,4.7C-137.7-16.1-137.9-16-138.1-16z"/>
			</g>
			<g transform="translate(18.99 18.99)">
				<path class="st0" d="M-132.2-4.1c-5,0-9.1-4.1-9.1-9.1s4.1-9.1,9.1-9.1c5,0,9.1,4.1,9.1,9.1c0,0,0,0,0,0
					C-123.1-8.2-127.1-4.1-132.2-4.1z M-132.2-20.8c-4.1,0-7.5,3.4-7.5,7.5s3.4,7.5,7.5,7.5c4.1,0,7.5-3.4,7.5-7.5v0
					C-124.7-17.4-128-20.7-132.2-20.8L-132.2-20.8z"/>
			</g>
		</g>
	</g>
	<g transform="translate(432.5 217.398)">
		<g transform="translate(87.863 116.1)">
			<g transform="translate(0)">
				<path class="st5" d="M-133.8-6.9l-7.5-12l9.8-3.4l3.2,18.8l-2.4,2.1L-133.8-6.9z"/>
			</g>
		</g>
		<g transform="translate(71.194 101.241)">
			<path class="st3" d="M-105-19.6l-2.6-2.7l-8.8,7.5l-16.5,16.4h-7.2c-0.1,0-0.2,0-0.3,0.1l-0.8,0.8c-0.2,0.2-0.2,0.4,0,0.6
				c0,0,0.1,0.1,0.1,0.1l0.4,0.2l7.2,3l2.4,5.9l0.7,1.7c0.1,0.1,0.2,0.2,0.3,0.3c0,0,0.1,0,0.1,0c0.1,0,0.2,0,0.3-0.1l0.8-0.8
				c0.1-0.1,0.1-0.2,0.1-0.3V5.5l0.7,0l2.3-4.3l0.2-0.2l1.2,1.2l5-5l0.1-1.9L-105-19.6z"/>
		</g>
		<g transform="translate(71.194 108.021)">
			<g transform="translate(0)">
				<path class="st5" d="M-137.6-18.4l11.3,7.1l6.7-7.1l-18.5-3.9l-3.1,2.4L-137.6-18.4z"/>
			</g>
		</g>
		<g transform="translate(68.5 100.602)">
			<path class="st0" d="M-102.5-16.4c1.3-1.4,1.3-3.6-0.1-5c-1.4-1.3-3.5-1.3-4.9,0l-8.9,8.9c-0.1,0.1-0.2,0.1-0.3,0.1
				c0,0-0.1,0-0.1,0l-5.5-1.1c-0.2,0-0.4-0.3-0.3-0.5c0-0.1,0.1-0.1,0.1-0.2l1.7-1.7c0.3-0.3,0.3-0.9,0-1.2c-0.3-0.3-0.9-0.3-1.2,0
				l-2.1,2.1L-125-14c0,0,0,0-0.1,0c0,0-0.1,0-0.1,0l-3.5-0.7c-0.2,0-0.4-0.3-0.3-0.5c0-0.1,0.1-0.1,0.1-0.2l0.4-0.4
				c0.4-0.3,0.4-0.8,0.1-1.2s-0.8-0.4-1.2-0.1c0,0-0.1,0.1-0.1,0.1l-1.2,1.2l-0.6,0.6c0,0-0.1,0-0.1,0c0,0-0.1,0-0.1,0l-3.6-0.7
				c-0.1,0-0.1,0-0.2,0c-0.2,0-0.3,0.1-0.5,0.1l-3.8,2.5c-0.4,0.3-0.5,0.8-0.2,1.2c0.1,0.1,0.2,0.2,0.3,0.2l13.9,8.7l-3.6,3.6
				c-0.1,0.1-0.2,0.1-0.3,0.1h-8.4c-0.2,0-0.4,0.1-0.6,0.2l-2.5,2.5c-0.3,0.3-0.3,0.9,0,1.2c0.1,0.1,0.2,0.1,0.3,0.2l6.3,2.5
				c0.4,0.2,0.9,0,1.1-0.5c0.2-0.4,0-0.9-0.5-1.1l0,0l-4.6-1.8c-0.2-0.1-0.3-0.3-0.2-0.5c0-0.1,0.1-0.1,0.1-0.1l0.8-0.8
				c0.1-0.1,0.2-0.1,0.3-0.1h8.4c0.2,0,0.4-0.1,0.6-0.2l22.1-22.1c0.7-0.7,1.9-0.7,2.6,0c0.7,0.7,0.7,1.8,0,2.5l-22.1,22.1
				c-0.2,0.2-0.2,0.4-0.2,0.6v8.4c0,0.1,0,0.2-0.1,0.3l-0.8,0.8c-0.1,0.1-0.2,0.1-0.3,0.1c0,0-0.1,0-0.1,0c-0.1,0-0.2-0.1-0.3-0.3
				l-1.8-4.6c-0.1-0.3-0.4-0.5-0.8-0.5c-0.1,0-0.2,0-0.3,0.1c-0.4,0.2-0.6,0.7-0.5,1.1l2.5,6.4c0.1,0.3,0.3,0.5,0.6,0.5
				c0.1,0,0.1,0,0.2,0c0.2,0,0.4-0.1,0.6-0.2l2.5-2.5c0.2-0.2,0.2-0.4,0.2-0.6V5.7c0-0.1,0-0.2,0.1-0.3l3.6-3.6l8.7,13.9
				c0.2,0.2,0.4,0.4,0.7,0.4h0c0.3,0,0.6-0.1,0.7-0.4l2.5-3.8c0.1-0.2,0.2-0.4,0.1-0.6l-0.7-3.7c0,0,0-0.1,0-0.1l0.9-0.9l0.8-0.8
				c0.3-0.3,0.4-0.9,0-1.2s-0.9-0.4-1.2,0l0,0l-0.5,0.4c-0.1,0.1-0.2,0.1-0.3,0.1c0,0-0.1,0-0.1,0c-0.1,0-0.3-0.2-0.3-0.3l-0.7-3.4
				c0,0,0-0.1,0-0.1l0.5-0.5l0,0l2.5-2.5c0.3-0.3,0.3-0.9,0-1.2c-0.3-0.3-0.9-0.3-1.2,0l-1.7,1.7c-0.1,0.1-0.2,0.1-0.3,0.1
				c0,0-0.1,0-0.1,0c-0.1,0-0.3-0.2-0.3-0.3l-1.1-5.5c0-0.1,0-0.3,0.1-0.4L-102.5-16.4z M-118.6-10.3l-5.9,5.9l-12.6-7.9
				c-0.2-0.1-0.3-0.4-0.1-0.6c0,0,0.1-0.1,0.1-0.1l1.7-1.2c0.1-0.1,0.2-0.1,0.3-0.1l16.2,3.2c0.2,0,0.4,0.3,0.3,0.5
				C-118.5-10.4-118.5-10.4-118.6-10.3L-118.6-10.3z M-109.6,11.1c0,0.1,0,0.2-0.1,0.3l-1.2,1.7c-0.1,0.1-0.2,0.2-0.3,0.2l0,0
				c-0.1,0-0.3-0.1-0.3-0.2l-7.9-12.6l5.8-5.9c0.1-0.1,0.2-0.1,0.3-0.1c0,0,0.1,0,0.1,0c0.1,0,0.3,0.2,0.3,0.3L-109.6,11.1z"/>
		</g>
	</g>
	<g transform="translate(-1262.9 -928.2)">
		<g transform="translate(1317.569 1358.186)">
			<path class="st0" d="M-136.9-6.7c0-1.1,0.1-2.2,0.5-3.2c0.5-1,1.1-1.9,1.9-2.6c0.7-0.6,1.3-1.3,1.8-2c0.4-0.6,0.6-1.3,0.6-2
				c0.1-0.8-0.2-1.5-0.7-2.1c-0.5-0.5-1.3-0.8-2-0.7c-0.8,0-1.5,0.2-2.1,0.7c-0.5,0.5-0.8,1.2-0.8,2h-3.6c-0.1-1.6,0.6-3.1,1.8-4.2
				c1.3-1.1,3-1.6,4.7-1.5c1.7-0.1,3.4,0.4,4.7,1.5c1.2,1.1,1.8,2.7,1.7,4.3c-0.1,1.8-0.9,3.6-2.3,4.8l-1.8,1.8
				c-0.7,0.9-1.1,2.1-1,3.3L-136.9-6.7L-136.9-6.7z M-137.2-2.1c0-0.5,0.2-1,0.6-1.4c0.4-0.4,0.9-0.6,1.5-0.5c0.6,0,1.1,0.2,1.5,0.6
				c0.4,0.4,0.6,0.9,0.6,1.4c0,0.5-0.2,1-0.5,1.4c-0.4,0.4-1,0.6-1.5,0.6c-0.6,0-1.1-0.2-1.5-0.6C-137-1.1-137.2-1.6-137.2-2.1
				L-137.2-2.1z"/>
		</g>
		<path class="st0" d="M1182.7,1325.8c11.7,0,21.2,9.5,21.2,21.2c0,5.6-2.2,11-6.2,15c-8.3,8.3-21.7,8.3-30,0
			c-8.3-8.3-8.3-21.7,0-30c1.9-1.9,4.2-3.5,6.7-4.5C1177.1,1326.3,1179.9,1325.7,1182.7,1325.8z M1182.7,1365.9c10.5,0,19-8.5,19-19
			c0-10.5-8.5-19-19-19c-10.5,0-19,8.5-19,19C1163.7,1357.4,1172.2,1365.9,1182.7,1365.9z"/>
	</g>
	<g transform="translate(415.004 121.527)">
		<rect x="-139.7" y="-9.8" class="st3" width="42.1" height="27"/>
		<g transform="translate(-0.004 10.473)">
			<g transform="translate(1.053 1.051)">
				<path class="st3" d="M-139.3-22.3h39.4c1.1,0,2,0.9,2,2V4.8c0,1.1-0.9,2-2,2h-39.4c-1.1,0-2-0.9-2-2v-25.2
					C-141.3-21.5-140.4-22.3-139.3-22.3z"/>
			</g>
			<g transform="translate(1.053 6.805)">
				<rect x="-141.3" y="-22.3" class="st5" width="43.4" height="6.3"/>
			</g>
			<g transform="translate(0 0)">
				<path class="st0" d="M-99.7,8.9h-37.6c-2.3-0.2-4.1-2.1-4-4.5v-22.3c-0.1-2.3,1.6-4.3,4-4.5h37.6c2.3,0.2,4.1,2.1,4,4.5V4.4
					C-95.7,6.8-97.4,8.7-99.7,8.9z M-137.3-20.1c-1.2,0.1-2,1.1-2,2.2V4.4c-0.1,1.2,0.8,2.2,2,2.2h37.6c1.2-0.1,2-1.1,2-2.2v-22.3
					c0.1-1.2-0.8-2.2-2-2.2H-137.3z"/>
			</g>
			<g transform="translate(4.202 16.897)">
				<rect x="-141.3" y="-22.3" class="st0" width="29.4" height="2.2"/>
			</g>
			<g transform="translate(32.898 16.897)">
				<rect x="-141.3" y="-22.3" class="st0" width="8.4" height="2.2"/>
			</g>
			<g transform="translate(4.202 22.423)">
				<rect x="-141.3" y="-22.3" class="st0" width="14.7" height="2.1"/>
			</g>
			<g transform="translate(19.667 22.423)">
				<rect x="-141.3" y="-22.3" class="st0" width="4.2" height="2.1"/>
			</g>
		</g>
	</g>
</g>
</svg>
