<?xml version="1.0" encoding="utf-8"?>
<!-- Generator: Adobe Illustrator 26.0.1, SVG Export Plug-In . SVG Version: 6.00 Build 0)  -->
<svg version="1.1" id="Layer_1" xmlns="http://www.w3.org/2000/svg" xmlns:xlink="http://www.w3.org/1999/xlink" x="0px" y="0px"
	 viewBox="0 0 444.3 132.9" style="enable-background:new 0 0 444.3 132.9;" xml:space="preserve">
<style type="text/css">
	.st0{fill:#FFFFFF;}
	.st1{fill:#19339A;}
	.st2{fill:#F87237;}
	.st3{fill:#EDEFFC;}
	.st4{fill:#E4E8FF;}
</style>
<g transform="translate(-43.001 -2085)">
	<g transform="translate(43.002 2084.999)">
		<g transform="translate(8.478 0.729)">
			<path class="st0" d="M2.6,5.2L0,1.3L2.6,0l2.6,1.3L7.8,0l2.6,1.3L7.8,5.2H2.6z"/>
		</g>
		<g transform="translate(0.652 8.555)">
			<path class="st0" d="M15.7,0c0,0,4.6,2,6.5,3.9s3.9,8.5,3.9,20.2c0.1,1.7-1.3,3.2-3.1,3.3c-0.1,0-0.1,0-0.2,0H3.3
				c-1.7,0.1-3.2-1.3-3.3-3.1c0-0.1,0-0.1,0-0.2C0,12.4,2,5.9,3.9,3.9S10.4,0,10.4,0H15.7z"/>
		</g>
		<g transform="translate(0 7.956)">
			<path class="st1" d="M23.5,28.6H3.9C1.8,28.7,0,27,0,24.9c0-0.1,0-0.1,0-0.2C0,12.5,2.1,6,4.1,4.1c2-2,6.5-4,6.7-4.1l0.5,1.2
				c0,0-4.5,1.9-6.3,3.8c-1.7,1.7-3.7,7.9-3.7,19.8c0,1.4,1,2.6,2.4,2.6c0.1,0,0.1,0,0.2,0h19.6c1.4,0,2.6-1,2.6-2.4
				c0-0.1,0-0.1,0-0.2c0-11.8-2-18-3.7-19.8c-1.8-1.8-6.3-3.8-6.3-3.8L16.6,0c0.2,0.1,4.7,2,6.7,4.1c2,2,4.1,8.5,4.1,20.7
				c0,2.1-1.6,3.9-3.7,3.9C23.6,28.6,23.5,28.6,23.5,28.6L23.5,28.6z"/>
		</g>
		<g transform="translate(11.086 5.947)">
			<rect x="0" y="0" class="st2" width="5.2" height="2.6"/>
		</g>
		<g transform="translate(10.435 5.294)">
			<path class="st1" d="M6.5,3.9H0V0h6.5V3.9z M1.3,2.6h3.9V1.3H1.3V2.6z"/>
		</g>
		<g transform="translate(7.525)">
			<path class="st1" d="M9.3,6.3L8.2,5.6l2.2-3.3L8.8,1.5L6.2,2.8L3.6,1.5L1.9,2.3l2.2,3.3L3,6.3L0,1.8L3.6,0l2.6,1.3L8.8,0l3.6,1.8
				L9.3,6.3z"/>
		</g>
		<g transform="translate(5.869 11.816)">
			<circle class="st2" cx="7.8" cy="7.8" r="7.8"/>
		</g>
		<g transform="translate(14.347 19.642)">
			<g transform="translate(13.696 13.696)">
				<rect x="0" y="0" class="st3" width="6.5" height="2.6"/>
			</g>
			<g transform="translate(13.043 13.044)">
				<path class="st1" d="M7.8,3.9H0V0h7.8V3.9z M1.3,2.6h5.2V1.3H1.3V2.6z"/>
			</g>
			<g transform="translate(13.696 8.478)">
				<rect x="0" y="0" class="st3" width="6.5" height="2.6"/>
			</g>
			<g transform="translate(13.043 7.826)">
				<path class="st1" d="M7.8,3.9H0V0h7.8V3.9z M1.3,2.6h5.2V1.3H1.3V2.6z"/>
			</g>
			<g transform="translate(13.696 5.87)">
				<rect x="0" y="0" class="st3" width="6.5" height="2.6"/>
			</g>
			<g transform="translate(13.696 11.087)">
				<rect x="0" y="0" class="st3" width="6.5" height="2.6"/>
			</g>
			<g transform="translate(13.043 5.217)">
				<path class="st1" d="M7.8,3.9H0V0h7.8V3.9z M1.3,2.6h5.2V1.3H1.3V2.6z"/>
			</g>
			<g transform="translate(13.043 10.434)">
				<path class="st1" d="M7.8,3.9H0V0h7.8V3.9z M1.3,2.6h5.2V1.3H1.3V2.6z"/>
			</g>
			<g transform="translate(7.174 13.696)">
				<rect x="0" y="0" class="st3" width="6.5" height="2.6"/>
			</g>
			<g transform="translate(6.522 13.044)">
				<path class="st1" d="M7.8,3.9H0V0h7.8V3.9z M1.3,2.6h5.2V1.3H1.3V2.6z"/>
			</g>
			<g transform="translate(6.522 10.435)">
				<g transform="translate(0.652 0.653)">
					<rect x="0" y="0" class="st3" width="6.5" height="2.6"/>
				</g>
				<path class="st1" d="M7.8,3.9H0V0h7.8V3.9z M1.3,2.6h5.2V1.3H1.3V2.6z"/>
			</g>
			<g transform="translate(7.174 8.478)">
				<rect x="0" y="0" class="st3" width="6.5" height="2.6"/>
			</g>
			<g transform="translate(6.522 7.826)">
				<path class="st1" d="M7.8,3.9H0V0h7.8V3.9z M1.3,2.6h5.2V1.3H1.3V2.6z"/>
			</g>
			<g transform="translate(7.174 5.87)">
				<rect x="0" y="0" class="st3" width="6.5" height="2.6"/>
			</g>
			<g transform="translate(6.522 5.217)">
				<path class="st1" d="M7.8,3.9H0V0h7.8V3.9z M1.3,2.6h5.2V1.3H1.3V2.6z"/>
			</g>
			<g transform="translate(0.652 13.696)">
				<rect x="0" y="0" class="st3" width="6.5" height="2.6"/>
			</g>
			<g transform="translate(0 13.044)">
				<path class="st1" d="M7.8,3.9H0V0h7.8L7.8,3.9z M1.3,2.6h5.2V1.3H1.3L1.3,2.6z"/>
			</g>
			<g transform="translate(0.652 11.087)">
				<rect x="0" y="0" class="st3" width="6.5" height="2.6"/>
			</g>
			<g transform="translate(0 10.434)">
				<path class="st1" d="M7.8,3.9H0V0h7.8L7.8,3.9z M1.3,2.6h5.2V1.3H1.3L1.3,2.6z"/>
			</g>
			<g transform="translate(13.696 3.261)">
				<rect x="0" y="0" class="st3" width="6.5" height="2.6"/>
			</g>
			<g transform="translate(13.043 2.609)">
				<path class="st1" d="M7.8,3.9H0V0h7.8V3.9z M1.3,2.6h5.2V1.3H1.3V2.6z"/>
			</g>
			<g transform="translate(13.696 0.653)">
				<rect x="0" y="0" class="st3" width="6.5" height="2.6"/>
			</g>
			<g transform="translate(13.043)">
				<path class="st1" d="M7.8,3.9H0V0h7.8V3.9z M1.3,2.6h5.2V1.3H1.3V2.6z"/>
			</g>
		</g>
		<g transform="translate(11.086 15.077)">
			<path class="st0" d="M2.6,9.1C1.2,9.1,0,8,0,6.5h1.3c0,0.7,0.6,1.3,1.3,1.3c0.7,0,1.3-0.6,1.3-1.3c0-0.7-0.9-1.2-1.5-1.3
				C1.1,5,0.1,3.9,0,2.6C0,1.2,1.1,0,2.6-0.1c1.4,0,2.6,1.1,2.7,2.6c0,0,0,0.1,0,0.1H3.9c0-0.7-0.6-1.3-1.3-1.3
				c-0.7,0-1.3,0.6-1.3,1.3l0,0c0,0.7,0.9,1.2,1.5,1.3c1.3,0.2,2.3,1.3,2.4,2.6C5.2,8,4,9.1,2.6,9.1L2.6,9.1z"/>
		</g>
		<g transform="translate(13.043 14.425)">
			<rect x="0" y="0" class="st0" width="1.3" height="1.3"/>
		</g>
		<g transform="translate(13.043 23.555)">
			<rect x="0" y="0" class="st0" width="1.3" height="1.3"/>
		</g>
		<g transform="translate(17.608 18.99)">
			<rect x="0" y="0" class="st0" width="1.3" height="1.3"/>
		</g>
		<g transform="translate(8.478 18.99)">
			<rect x="0" y="0" class="st0" width="1.3" height="1.3"/>
		</g>
	</g>
	<g transform="translate(-111.402 1851.998)">
		<path class="st0" d="M237.1,249.8v9.3l10.2,8.2l23.8-15.7v-8.6l-10.4-9.3L237.1,249.8z"/>
		<g transform="translate(-1022.898 68.702)">
			<g transform="translate(1260 165)">
				<g transform="translate(9.007 6.113)">
					<path class="st2" d="M16.3,8.9L16.3,8.9l-6,4.1V13l-2.3-2l-5.7-5L0,4.1L5.9,0l2.3,2L14,6.9L16.3,8.9z"/>
					<path class="st1" d="M9.7,14.4v-1.1l-2.1-1.8l-5.7-5l-3-2.6L6-0.9l2.8,2.4l5.7,4.9L17,8.6v0.7L9.7,14.4z M1.1,4.1l1.7,1.4
						l7.7,6.6l4.8-3.3l-1.7-1.4L5.9,0.9L1.1,4.1z"/>
					<path class="st2" d="M16.3,13.5v4.5l-6,4.1v-8.9l6-4.1V13.5z"/>
					<path class="st1" d="M17,7.7v10.6l-7.4,5.1V12.7L17,7.7z M15.6,17.6v-7.2l-4.6,3.1v7.2L15.6,17.6z"/>
					<circle class="st2" cx="14.1" cy="2.6" r="1.5"/>
					<circle class="st2" cx="2.2" cy="10.5" r="1.5"/>
				</g>
				<path class="st1" d="M23.9-0.7c0.2,0,0.3,0.1,0.5,0.2l10.4,8.9c0.3,0.3,0.3,0.7,0.1,1c0,0-0.1,0.1-0.1,0.1l-8.9,6.2l-6,4.1
					l-8.9,6.1c-0.3,0.2-0.6,0.2-0.9,0l-10.4-8.9c-0.3-0.3-0.3-0.7-0.1-1c0,0,0.1-0.1,0.1-0.1l9-6.2L23.5-0.6
					C23.6-0.7,23.7-0.7,23.9-0.7z M33.2,8.9l-9.3-8L9.4,10.8l-8.3,5.7l9.3,8l8.5-5.8l6-4.1L33.2,8.9z"/>
				<path class="st1" d="M23,13.8c-0.4,0-0.7-0.3-0.7-0.7c0-0.2,0.1-0.5,0.3-0.6l4.2-2.9c-0.2-0.3-0.2-0.7-0.2-1.1
					c0-0.4,0.1-0.7,0.3-1l-2.5-2.1c-0.6,0.2-1.2,0.2-1.7-0.1l-5,3.5c-0.3,0.2-0.8,0.1-1-0.2s-0.1-0.8,0.2-1l0,0l5.4-3.7
					c0.3-0.2,0.6-0.2,0.8,0c0.3,0.2,0.7,0.3,0.9,0c0.3-0.2,0.6-0.2,0.9,0l3.4,2.9c0.3,0.3,0.3,0.7,0.1,1c0,0-0.1,0.1-0.1,0.1
					C28.1,8.1,28,8.4,28,8.6c0,0.2,0.1,0.5,0.3,0.7c0.3,0.3,0.3,0.7,0.1,1c0,0-0.1,0.1-0.1,0.1l-4.8,3.3
					C23.3,13.7,23.2,13.8,23,13.8z"/>
				<path class="st1" d="M11.6,21.6c-0.2,0-0.3-0.1-0.5-0.2c-0.3-0.2-0.7-0.3-0.9,0c-0.3,0.2-0.6,0.2-0.9,0l-3.4-2.9
					c-0.3-0.3-0.3-0.7-0.1-1c0,0,0.1-0.1,0.1-0.1c0.2-0.1,0.3-0.4,0.3-0.6c0-0.2-0.1-0.5-0.3-0.6c-0.3-0.3-0.3-0.7-0.1-1
					C6,15.1,6,15,6.1,15l4.9-3.3c0.3-0.2,0.8-0.1,1,0.2c0.2,0.3,0.1,0.8-0.2,1l0,0l-4.3,2.9c0.2,0.3,0.2,0.7,0.2,1.1c0,0,0,0,0,0
					c0,0.4-0.1,0.7-0.3,1L9.9,20c0.6-0.2,1.2-0.2,1.7,0.1l5.1-3.5c0.3-0.2,0.8-0.1,1,0.2s0.1,0.8-0.2,1L12,21.5
					C11.8,21.6,11.7,21.6,11.6,21.6L11.6,21.6z"/>
				<path class="st1" d="M10.4,30.5c-0.2,0-0.3-0.1-0.5-0.2l-10.4-8.9c-0.3-0.2-0.3-0.7-0.1-1c0.2-0.3,0.7-0.3,1-0.1c0,0,0,0,0,0
					l10,8.6l8.5-5.8c0.3-0.2,0.8-0.1,1,0.2c0.2,0.3,0.1,0.7-0.2,1l-8.9,6.1C10.7,30.5,10.6,30.5,10.4,30.5L10.4,30.5z"/>
				<path class="st1" d="M25.4,20.3c-0.2,0-0.4-0.1-0.6-0.3c-0.1-0.2-0.1-0.3-0.1-0.5c0-0.2,0.1-0.3,0.3-0.5l9-6.1
					c0.3-0.2,0.8-0.1,1,0.2c0.2,0.3,0.1,0.8-0.2,1l-8.9,6.1C25.6,20.2,25.5,20.3,25.4,20.3z"/>
				<path class="st1" d="M10.4,35c-0.2,0-0.3-0.1-0.5-0.2l-10.4-8.9c-0.3-0.2-0.3-0.7-0.1-1c0.2-0.3,0.7-0.3,1-0.1c0,0,0,0,0,0
					l10,8.6l8.5-5.8l6-4.1l8.9-6.2c0.3-0.2,0.8-0.1,1,0.2c0.2,0.3,0.1,0.8-0.2,1c0,0,0,0,0,0l-8.9,6.2l-6,4.1l-8.9,6.1
					C10.7,35,10.6,35,10.4,35z"/>
			</g>
		</g>
	</g>
	<g transform="translate(-167.998 20.128)">
		<path class="st4" d="M388,2084.8l4.6,2.5l4.6-2.5h3l3.4,3.1l1.4,3.8v3.5l-3.8,2.4h-15.3l-3-1.2l-2.6-1.2l1-6.4l2.6-2.8L388,2084.8
			z"/>
		<g transform="translate(379.805 2067.672)">
			<path class="st1" d="M13.1-0.8c3.8,0,6.9,3.1,6.9,6.9c-0.1,2.2-0.8,4.3-1.9,6.1c-1.4,2.3-3.2,3.6-5,3.6s-3.6-1.3-5-3.6
				c-1.1-1.9-1.8-4-1.9-6.1C6.2,2.3,9.3-0.8,13.1-0.8L13.1-0.8z M13.1,14.2c1.2,0,2.5-1,3.6-2.8c1-1.6,1.6-3.4,1.7-5.3
				c0-2.9-2.4-5.3-5.3-5.3c-2.9,0-5.3,2.4-5.3,5.3c0,0,0,0,0,0C7.8,9.1,10.3,14.2,13.1,14.2z"/>
			<path class="st1" d="M8.3,15.6c0.2,0,0.3,0,0.3,0c0.1,0,0.3,0.1,0.4,0.1l4.1,2.9l4.1-2.9c0.1-0.1,0.3-0.1,0.4-0.1
				c0,0,0.1,0,0.3,0l0,0c1.9,0,3.7,0.6,5.1,1.8c1.2,1,2.2,2.3,2.8,3.7c0.8,2.1,1.2,4.4,1.2,6.7c0,0.1,0,0.2-0.1,0.3
				c-0.1,0.2-0.6,1.1-2.6,1.9c-2.5,1-6.3,1.6-11.2,1.6S4.4,31,1.9,30c-2-0.8-2.5-1.7-2.6-1.9c-0.1-0.1-0.1-0.2-0.1-0.3
				c-0.1-2.3,0.3-4.5,1.2-6.7c0.6-1.5,1.6-2.7,2.8-3.7C4.6,16.2,6.4,15.6,8.3,15.6z M13.1,20.4c-0.2,0-0.3-0.1-0.5-0.1l-4.3-3.1
				c-1.5,0-2.9,0.5-4.1,1.4c-2.2,1.7-3.3,4.7-3.3,8.8c0.5,0.5,3,2.5,12.3,2.5s11.8-1.9,12.2-2.5c0-4.2-1.2-7.1-3.3-8.8
				c-1.2-0.9-2.6-1.4-4.1-1.4l-4.3,3.1C13.4,20.3,13.2,20.4,13.1,20.4L13.1,20.4z"/>
		</g>
	</g>
	<g transform="translate(4167.504 -4423.973)">
		<rect x="-3875.4" y="6514.3" class="st0" width="29.8" height="27.5"/>
		<path class="st2" d="M-3848.6,6529.5c0,2-1.6,3.6-3.6,3.6s-3.6-1.6-3.6-3.6s1.6-3.6,3.6-3.6l0,0
			C-3850.2,6525.9-3848.6,6527.5-3848.6,6529.5z"/>
		<path class="st1" d="M-3845,6513.4h-4.1c-0.2,0-0.3-0.1-0.3-0.3c0,0,0,0,0,0v-1.3c0-0.4-0.3-0.7-0.7-0.7c-0.4,0-0.7,0.3-0.7,0.7
			c0,0,0,0,0,0.1v1.3c0,0.2-0.1,0.3-0.3,0.3c0,0,0,0,0,0h-2.1c-0.2,0-0.3-0.2-0.3-0.3c0,0,0,0,0,0v-1.3c0-0.4-0.3-0.7-0.7-0.7
			c-0.4,0-0.7,0.3-0.7,0.7c0,0,0,0,0,0.1v1.3c0,0.2-0.2,0.3-0.3,0.3l0,0h-2.1c-0.2,0-0.3-0.2-0.3-0.3c0,0,0,0,0,0v-1.3
			c0-0.4-0.3-0.7-0.7-0.7c-0.4,0-0.7,0.3-0.7,0.7v1.3c0,0.2-0.1,0.3-0.3,0.3c0,0,0,0,0,0h-2.1c-0.2,0-0.3-0.2-0.3-0.3l0,0v-1.3
			c0-0.4-0.3-0.7-0.7-0.7c-0.4,0-0.7,0.3-0.7,0.7c0,0,0,0,0,0.1v1.3c0,0.2-0.1,0.3-0.3,0.3c0,0,0,0,0,0h-2.1c-0.2,0-0.3-0.2-0.3-0.3
			l0,0v-1.3c0-0.4-0.3-0.7-0.7-0.7c-0.4,0-0.7,0.3-0.7,0.7c0,0,0,0,0,0.1v1.3c0,0.2-0.1,0.3-0.3,0.3c0,0,0,0,0,0h-2.1
			c-0.2,0-0.3-0.1-0.3-0.3c0,0,0,0,0,0v-1.3c0-0.4-0.3-0.7-0.7-0.7c-0.4,0-0.7,0.3-0.7,0.7v1.3c0,0.2-0.1,0.3-0.3,0.3c0,0,0,0,0,0
			h-4.1c-0.4,0-0.7,0.3-0.7,0.7c0,0,0,0,0,0v27.8c0,0.4,0.3,0.7,0.7,0.7h30.8c0.4,0,0.7-0.3,0.7-0.7V6514
			C-3844.3,6513.7-3844.6,6513.4-3845,6513.4L-3845,6513.4z M-3845.7,6540.8c0,0.2-0.2,0.3-0.3,0.3l0,0h-28.8
			c-0.2,0-0.3-0.1-0.3-0.3c0,0,0,0,0,0v-25.7c0-0.2,0.2-0.3,0.3-0.3l0,0h3.1c0.2,0,0.3,0.2,0.3,0.3l0,0v1.3c0,0.4,0.3,0.7,0.7,0.7
			c0.4,0,0.7-0.3,0.7-0.7v-1.3c0-0.2,0.2-0.3,0.3-0.3l0,0h2.1c0.2,0,0.3,0.2,0.3,0.3l0,0v1.3c0,0.4,0.3,0.7,0.7,0.7
			c0.4,0,0.7-0.3,0.7-0.7c0,0,0,0,0-0.1v-1.3c0-0.2,0.2-0.3,0.3-0.3l0,0h2.1c0.2,0,0.3,0.2,0.3,0.3l0,0v1.3c0,0.4,0.3,0.7,0.7,0.7
			c0.4,0,0.7-0.3,0.7-0.7c0,0,0,0,0-0.1v-1.3c0-0.2,0.2-0.3,0.3-0.3l0,0h2.1c0.2,0,0.3,0.2,0.3,0.3v1.3c0,0.4,0.3,0.7,0.7,0.7
			c0.4,0,0.7-0.3,0.7-0.7c0,0,0,0,0,0v-1.3c0-0.2,0.2-0.3,0.3-0.3h2.1c0.2,0,0.3,0.2,0.3,0.3l0,0v1.3c0,0.4,0.3,0.7,0.7,0.7
			c0.4,0,0.7-0.3,0.7-0.7c0,0,0,0,0-0.1v-1.3c0-0.2,0.2-0.3,0.3-0.3h2.1c0.2,0,0.3,0.2,0.3,0.3l0,0v1.3c0,0.4,0.3,0.7,0.7,0.7
			c0.4,0,0.7-0.3,0.7-0.7c0,0,0,0,0-0.1v-1.3c0-0.2,0.2-0.3,0.3-0.3l0,0h3.1c0.2,0,0.3,0.2,0.3,0.3l0,0L-3845.7,6540.8z"/>
		<path class="st1" d="M-3869.2,6520.5h1.2c0,0,0.1,0,0.1,0.1v1.2c0,0,0,0.1-0.1,0.1h-1.2c0,0-0.1,0-0.1-0.1L-3869.2,6520.5
			C-3869.3,6520.6-3869.3,6520.5-3869.2,6520.5z"/>
		<path class="st1" d="M-3861,6520.5h1.2c0,0,0.1,0,0.1,0.1v1.2c0,0,0,0.1-0.1,0.1h-1.2c0,0-0.1,0-0.1-0.1L-3861,6520.5
			C-3861.1,6520.6-3861,6520.5-3861,6520.5z"/>
		<path class="st1" d="M-3852.8,6520.5h1.2c0,0,0.1,0,0.1,0.1v1.2c0,0,0,0.1-0.1,0.1h-1.2c0,0-0.1,0-0.1-0.1L-3852.8,6520.5
			C-3852.9,6520.6-3852.8,6520.5-3852.8,6520.5z"/>
		<path class="st1" d="M-3869.2,6528.8h1.2c0,0,0.1,0,0.1,0.1v1.2c0,0,0,0.1-0.1,0.1h-1.2c0,0-0.1,0-0.1-0.1L-3869.2,6528.8
			C-3869.3,6528.8-3869.3,6528.8-3869.2,6528.8z"/>
		<path class="st1" d="M-3861,6528.8h1.2c0,0,0.1,0,0.1,0.1v1.2c0,0,0,0.1-0.1,0.1h-1.2c0,0-0.1,0-0.1-0.1L-3861,6528.8
			C-3861.1,6528.8-3861,6528.8-3861,6528.8z"/>
		<path class="st1" d="M-3852.8,6528.8h1.2c0,0,0.1,0,0.1,0.1v1.2c0,0,0,0.1-0.1,0.1h-1.2c0,0-0.1,0-0.1-0.1L-3852.8,6528.8
			C-3852.9,6528.8-3852.8,6528.8-3852.8,6528.8z"/>
		<path class="st1" d="M-3869.2,6537h1.2c0,0,0.1,0,0.1,0.1v1.2c0,0,0,0.1-0.1,0.1h-1.2c0,0-0.1,0-0.1-0.1L-3869.2,6537
			C-3869.3,6537-3869.3,6537-3869.2,6537z"/>
		<path class="st1" d="M-3861,6537h1.2c0,0,0.1,0,0.1,0.1v1.2c0,0,0,0.1-0.1,0.1h-1.2c0,0-0.1,0-0.1-0.1L-3861,6537
			C-3861.1,6537-3861,6537-3861,6537z"/>
		<path class="st1" d="M-3852.8,6537h1.2c0,0,0.1,0,0.1,0.1v1.2c0,0,0,0.1-0.1,0.1h-1.2c0,0-0.1,0-0.1-0.1L-3852.8,6537
			C-3852.9,6537-3852.8,6537-3852.8,6537z"/>
	</g>
	<g transform="translate(85.977 1686.002)">
		<path class="st0" d="M303.2,402.4c8.2,0,14.8,6.6,14.8,14.8c0,8.2-6.6,14.8-14.8,14.8c-8.2,0-14.8-6.6-14.8-14.8c0,0,0,0,0,0
			C288.4,409,295,402.4,303.2,402.4z"/>
		<circle class="st0" cx="303.2" cy="417.2" r="11"/>
		<circle class="st2" cx="303.2" cy="417.2" r="5.9"/>
		<path class="st0" d="M314,402.4l-3.4,3.4v4h4.1l4-4h-4.1v-4.1L314,402.4z"/>
		<g transform="translate(287 401)">
			<path class="st1" d="M31.1,9.7c-0.2-0.4-0.6-0.5-0.9-0.4s-0.5,0.6-0.4,0.9c3.3,7.5-0.2,16.2-7.7,19.5C14.6,33,5.9,29.6,2.7,22.1
				c-3.3-7.5,0.2-16.2,7.7-19.5c3.8-1.6,8-1.6,11.8,0c0.1,0,0.2,0.1,0.3,0.1c0.4,0,0.7-0.3,0.7-0.7c0-0.3-0.2-0.5-0.4-0.6
				C14.5-2.2,4.9,1.5,1.4,9.7C-2.2,17.9,1.5,27.5,9.7,31c8.2,3.6,17.7-0.2,21.3-8.4C32.8,18.5,32.8,13.8,31.1,9.7L31.1,9.7z"/>
			<path class="st1" d="M20.3,7.4c0.4,0,0.7-0.3,0.7-0.7c0-0.3-0.2-0.5-0.4-0.6C15,3.7,8.5,6.2,6.1,11.8c-2.4,5.6,0.1,12.1,5.7,14.5
				c5.6,2.4,12.1-0.1,14.5-5.7c1.2-2.8,1.2-6,0-8.8c-0.2-0.4-0.6-0.5-0.9-0.4S24.9,12,25,12.3c2.1,4.9-0.1,10.5-5,12.7
				c-4.9,2.1-10.5-0.1-12.7-5s0.1-10.5,5-12.7c2.5-1.1,5.2-1.1,7.7,0C20.1,7.4,20.2,7.4,20.3,7.4z"/>
			<path class="st1" d="M16.2,11.7c0.3,0,0.6,0,0.9,0.1c0,0,0.1,0,0.1,0c0.4,0,0.7-0.4,0.7-0.7c0-0.3-0.2-0.6-0.5-0.6
				c-0.4-0.1-0.8-0.1-1.2-0.1c-3.2,0-5.9,2.6-5.9,5.9c0,3.2,2.6,5.9,5.9,5.9c3.2,0,5.9-2.6,5.9-5.9c0-0.4,0-0.8-0.1-1.2
				c-0.1-0.3-0.4-0.6-0.7-0.6c0,0-0.1,0-0.1,0c-0.4,0.1-0.6,0.4-0.5,0.8c0.5,2.4-1.1,4.8-3.5,5.3c-2.4,0.5-4.8-1.1-5.3-3.5
				s1.1-4.8,3.5-5.3C15.6,11.8,15.9,11.7,16.2,11.7L16.2,11.7z"/>
			<path class="st1" d="M22.8,4.6c0,0.1-0.1,0.2-0.1,0.3v3.7c0,0.1,0,0.2-0.1,0.2l-6.9,6.9c-0.3,0.3-0.3,0.7,0,1
				c0.3,0.3,0.7,0.3,1,0c0,0,0,0,0,0l6.9-6.9c0.1-0.1,0.1-0.1,0.2-0.1h3.7c0.1,0,0.2,0,0.3-0.1c0.1,0,0.2-0.1,0.2-0.2l4.1-4.1
				c0.3-0.3,0.3-0.7,0-1c-0.1-0.1-0.1-0.1-0.2-0.2c-0.1,0-0.2-0.1-0.3-0.1h-3.1c-0.2,0-0.3-0.2-0.3-0.3l0,0V0.7
				c0-0.4-0.3-0.7-0.7-0.7c-0.2,0-0.3,0.1-0.5,0.2l-4.1,4.1C22.9,4.4,22.8,4.5,22.8,4.6z M24.1,5.3c0-0.1,0-0.2,0.1-0.2l2.1-2.1
				c0.1-0.1,0.1-0.1,0.2-0.1c0,0,0.1,0,0.1,0c0.1,0.1,0.2,0.2,0.2,0.3v1.6c0,0.4,0.3,0.7,0.7,0.7h1.6c0.2,0,0.3,0.2,0.3,0.3
				c0,0.1,0,0.2-0.1,0.2l-2.1,2.1c-0.1,0.1-0.1,0.1-0.2,0.1h-2.7c-0.2,0-0.3-0.2-0.3-0.3l0,0L24.1,5.3z"/>
		</g>
	</g>
	<g transform="translate(456 2088.053)">
		<path class="st2" d="M24,11.8h4.1c0.8,0,1.5,0.7,1.5,1.5v10c0,0.8-0.7,1.5-1.5,1.5H24c-0.8,0-1.5-0.7-1.5-1.5v-10
			C22.6,12.4,23.2,11.8,24,11.8z"/>
		<path class="st0" d="M0.4,0.6l18,7.2v22h-18V0.6z"/>
		<path class="st1" d="M0.7,30.7C0.3,30.7,0,30.4,0,30V0.6C0,0.3,0.3,0,0.7-0.1c0.1,0,0.2,0,0.2,0l17.6,6.8c0.3,0.1,0.4,0.3,0.4,0.6
			V29c0,0.2,0.1,0.3,0.3,0.3h5.9c0.2,0,0.3-0.1,0.3-0.3v-2.9c0-0.2-0.1-0.3-0.3-0.3c-2,0-3.6-1.6-3.6-3.6v-7.8c0-2,1.6-3.6,3.6-3.6
			l0,0h2c2,0,3.6,1.6,3.6,3.6v7.8c0,2-1.6,3.6-3.6,3.6c-0.2,0-0.3,0.1-0.3,0.3V29c0,0.2,0.1,0.3,0.3,0.3H30c0.4,0,0.7,0.3,0.7,0.7
			c0,0.4-0.3,0.7-0.7,0.7L0.7,30.7z M14.4,25.4c0.4,0,0.7,0.3,0.7,0.7V29c0,0.2,0.1,0.3,0.3,0.3h2c0.2,0,0.3-0.1,0.3-0.3V8.2
			c0-0.1-0.1-0.3-0.2-0.3L1.7,1.8c0,0-0.1,0-0.1,0c-0.1,0-0.1,0-0.2,0.1C1.4,1.9,1.3,2,1.3,2.1V29c0,0.2,0.1,0.3,0.3,0.3l0,0h2
			c0.2,0,0.3-0.1,0.3-0.3v-3c0-0.4,0.3-0.7,0.7-0.7c0.4,0,0.7,0.3,0.7,0.7V29c0,0.2,0.1,0.3,0.3,0.3h7.8c0.2,0,0.3-0.1,0.3-0.3v0
			v-2.9C13.7,25.7,14,25.4,14.4,25.4L14.4,25.4z M26.1,17.6c0.4,0,0.7,0.3,0.7,0.7v5.9c0,0.2,0.1,0.3,0.3,0.3c1.3,0,2.3-1,2.3-2.3
			v-7.8c0-1.3-1-2.3-2.3-2.3h-2c-1.3,0-2.3,1-2.3,2.3v7.8c0,1.3,1,2.3,2.3,2.3c0.2,0,0.3-0.1,0.3-0.3v-5.9
			C25.4,17.9,25.7,17.6,26.1,17.6L26.1,17.6z"/>
		<path class="st1" d="M7.5,26.1h1c0.1,0,0.2,0.1,0.2,0.2v1c0,0.1-0.1,0.2-0.2,0.2h-1c-0.1,0-0.2-0.1-0.2-0.2v-1
			C7.3,26.2,7.4,26.1,7.5,26.1z"/>
		<path class="st1" d="M10.4,26.1h1c0.1,0,0.2,0.1,0.2,0.2v1c0,0.1-0.1,0.2-0.2,0.2h-1c-0.1,0-0.2-0.1-0.2-0.2v-1
			C10.3,26.2,10.4,26.1,10.4,26.1z"/>
		<path class="st1" d="M3.1,22.2h1c0.1,0,0.2,0.1,0.2,0.2v1c0,0.1-0.1,0.2-0.2,0.2h-1c-0.1,0-0.2-0.1-0.2-0.2v-1
			C2.9,22.3,3,22.2,3.1,22.2z"/>
		<path class="st1" d="M6,22.2h1c0.1,0,0.2,0.1,0.2,0.2v1c0,0.1-0.1,0.2-0.2,0.2H6c-0.1,0-0.2-0.1-0.2-0.2v-1
			C5.9,22.3,5.9,22.2,6,22.2z"/>
		<path class="st1" d="M9,22.2h1c0.1,0,0.2,0.1,0.2,0.2v1c0,0.1-0.1,0.2-0.2,0.2H9c-0.1,0-0.2-0.1-0.2-0.2v-1
			C8.8,22.3,8.9,22.2,9,22.2z"/>
		<path class="st1" d="M11.9,22.2h1c0.1,0,0.2,0.1,0.2,0.2v1c0,0.1-0.1,0.2-0.2,0.2h-1c-0.1,0-0.2-0.1-0.2-0.2v-1
			C11.7,22.3,11.8,22.2,11.9,22.2z"/>
		<path class="st1" d="M14.8,22.2h1c0.1,0,0.2,0.1,0.2,0.2v1c0,0.1-0.1,0.2-0.2,0.2h-1c-0.1,0-0.2-0.1-0.2-0.2v-1
			C14.7,22.3,14.8,22.2,14.8,22.2z"/>
		<path class="st1" d="M3.1,18.3h1c0.1,0,0.2,0.1,0.2,0.2v1c0,0.1-0.1,0.2-0.2,0.2h-1c-0.1,0-0.2-0.1-0.2-0.2v-1
			C2.9,18.4,3,18.3,3.1,18.3z"/>
		<path class="st1" d="M6,18.3h1c0.1,0,0.2,0.1,0.2,0.2v1c0,0.1-0.1,0.2-0.2,0.2H6c-0.1,0-0.2-0.1-0.2-0.2v-1
			C5.9,18.4,5.9,18.3,6,18.3z"/>
		<path class="st1" d="M9,18.3h1c0.1,0,0.2,0.1,0.2,0.2v1c0,0.1-0.1,0.2-0.2,0.2H9c-0.1,0-0.2-0.1-0.2-0.2v-1
			C8.8,18.4,8.9,18.3,9,18.3z"/>
		<path class="st1" d="M11.9,18.3h1c0.1,0,0.2,0.1,0.2,0.2v1c0,0.1-0.1,0.2-0.2,0.2h-1c-0.1,0-0.2-0.1-0.2-0.2v-1
			C11.7,18.4,11.8,18.3,11.9,18.3z"/>
		<path class="st1" d="M14.8,18.3h1c0.1,0,0.2,0.1,0.2,0.2v1c0,0.1-0.1,0.2-0.2,0.2h-1c-0.1,0-0.2-0.1-0.2-0.2v-1
			C14.7,18.4,14.8,18.3,14.8,18.3z"/>
		<path class="st1" d="M3.1,14.4h1c0.1,0,0.2,0.1,0.2,0.2v1c0,0.1-0.1,0.2-0.2,0.2h-1c-0.1,0-0.2-0.1-0.2-0.2v-1
			C2.9,14.5,3,14.4,3.1,14.4z"/>
		<path class="st1" d="M6,14.4h1c0.1,0,0.2,0.1,0.2,0.2v1c0,0.1-0.1,0.2-0.2,0.2H6c-0.1,0-0.2-0.1-0.2-0.2v-1
			C5.9,14.5,5.9,14.4,6,14.4z"/>
		<path class="st1" d="M9,14.4h1c0.1,0,0.2,0.1,0.2,0.2v1c0,0.1-0.1,0.2-0.2,0.2H9c-0.1,0-0.2-0.1-0.2-0.2v-1
			C8.8,14.5,8.9,14.4,9,14.4z"/>
		<path class="st1" d="M11.9,14.4h1c0.1,0,0.2,0.1,0.2,0.2v1c0,0.1-0.1,0.2-0.2,0.2h-1c-0.1,0-0.2-0.1-0.2-0.2v-1
			C11.7,14.5,11.8,14.4,11.9,14.4z"/>
		<path class="st1" d="M14.8,14.4h1c0.1,0,0.2,0.1,0.2,0.2v1c0,0.1-0.1,0.2-0.2,0.2h-1c-0.1,0-0.2-0.1-0.2-0.2v-1
			C14.7,14.5,14.8,14.4,14.8,14.4z"/>
		<path class="st1" d="M3.1,10.5h1c0.1,0,0.2,0.1,0.2,0.2v1c0,0.1-0.1,0.2-0.2,0.2h-1c-0.1,0-0.2-0.1-0.2-0.2v-1
			C2.9,10.5,3,10.5,3.1,10.5z"/>
		<path class="st1" d="M6,10.5h1c0.1,0,0.2,0.1,0.2,0.2v1c0,0.1-0.1,0.2-0.2,0.2H6c-0.1,0-0.2-0.1-0.2-0.2v-1
			C5.9,10.5,5.9,10.5,6,10.5z"/>
		<path class="st1" d="M9,10.5h1c0.1,0,0.2,0.1,0.2,0.2v1c0,0.1-0.1,0.2-0.2,0.2H9c-0.1,0-0.2-0.1-0.2-0.2v-1
			C8.8,10.5,8.9,10.5,9,10.5z"/>
		<path class="st1" d="M11.9,10.5h1c0.1,0,0.2,0.1,0.2,0.2v1c0,0.1-0.1,0.2-0.2,0.2h-1c-0.1,0-0.2-0.1-0.2-0.2v-1
			C11.7,10.5,11.8,10.5,11.9,10.5z"/>
		<path class="st1" d="M14.8,10.5h1c0.1,0,0.2,0.1,0.2,0.2v1c0,0.1-0.1,0.2-0.2,0.2h-1c-0.1,0-0.2-0.1-0.2-0.2v-1
			C14.7,10.5,14.8,10.5,14.8,10.5z"/>
		<path class="st1" d="M3.1,6.6h1c0.1,0,0.2,0.1,0.2,0.2v1c0,0.1-0.1,0.2-0.2,0.2h-1C3,7.9,2.9,7.8,2.9,7.7v-1
			C2.9,6.6,3,6.6,3.1,6.6z"/>
		<path class="st1" d="M6,6.6h1c0.1,0,0.2,0.1,0.2,0.2v1c0,0.1-0.1,0.2-0.2,0.2H6c-0.1,0-0.2-0.1-0.2-0.2v-1C5.9,6.6,5.9,6.6,6,6.6z
			"/>
		<path class="st1" d="M9,6.6h1c0.1,0,0.2,0.1,0.2,0.2v1c0,0.1-0.1,0.2-0.2,0.2H9c-0.1,0-0.2-0.1-0.2-0.2v-1C8.8,6.6,8.9,6.6,9,6.6z
			"/>
	</g>
	<g transform="translate(-199.551 1951.415)">
		<g transform="translate(244.683 261.555)">
			<rect x="0" y="0" class="st0" width="31.9" height="4.2"/>
		</g>
		<g transform="translate(246.422 251.939)">
			<rect x="0" y="0" class="st0" width="28.3" height="9.3"/>
		</g>
		<g transform="translate(249.901 243.386)">
			<rect x="0" y="0" class="st0" width="21.3" height="8.6"/>
		</g>
		<g transform="translate(246.567 251.923)">
			<path class="st2" d="M0.2,0h5.3L4.2,2.9L0,4L0.2,0z"/>
		</g>
		<g transform="translate(252.398 251.601)">
			<path class="st2" d="M0,0.6l0.4,2.4l3.9,1.3l3.5-2.1V0L0,0.6z"/>
		</g>
		<g transform="translate(260.999 251.762)">
			<path class="st2" d="M0,0.2l1,3.1l3.5,0.8l3.7-2L7.9,0L0,0.2z"/>
		</g>
		<g transform="translate(269.62 251.762)">
			<path class="st2" d="M0,0l0.8,2.8l4.3,1.4L4.9,0H0z"/>
		</g>
		<g transform="translate(243.55 233.585)">
			<g transform="translate(9.768 13.024)">
				<rect x="0" y="0" class="st1" width="1.5" height="1.5"/>
			</g>
			<g transform="translate(14.11 13.024)">
				<rect x="0" y="0" class="st1" width="1.5" height="1.5"/>
			</g>
			<g transform="translate(18.451 13.024)">
				<rect x="0" y="0" class="st1" width="1.5" height="1.5"/>
			</g>
			<g transform="translate(22.792 13.024)">
				<rect x="0" y="0" class="st1" width="1.5" height="1.5"/>
			</g>
			<g transform="translate(0 4.341)">
				<path class="st1" d="M0.7,28.6c-0.4,0-0.7-0.3-0.7-0.7v-4.3c0-0.4,0.3-0.7,0.7-0.7h1.1c0.2,0,0.4-0.2,0.4-0.4v-7.6
					C2.2,13.8,3,13,4,13h1.1c0.2,0,0.4-0.2,0.4-0.4c0,0,0,0,0,0V6.2c0-1,0.8-1.8,1.8-1.8h2.2c0.2,0,0.4-0.2,0.4-0.4c0,0,0,0,0,0V0.7
					c0-0.4,0.3-0.7,0.7-0.7c0.4,0,0.7,0.3,0.7,0.7V4c0,0.2,0.2,0.4,0.4,0.4h4.3c0.2,0,0.4-0.2,0.4-0.4c0,0,0,0,0,0V0.7
					C16.3,0.3,16.6,0,17,0c0.4,0,0.7,0.3,0.7,0.7V4c0,0.2,0.2,0.4,0.4,0.4c0,0,0,0,0,0h4.3c0.2,0,0.4-0.2,0.4-0.4V0.7
					c0-0.4,0.3-0.7,0.7-0.7c0.4,0,0.7,0.3,0.7,0.7V4c0,0.2,0.2,0.4,0.4,0.4c0,0,0,0,0,0h2.2c1,0,1.8,0.8,1.8,1.8v6.5
					c0,0.2,0.2,0.4,0.4,0.4c0,0,0,0,0,0H30c1,0,1.8,0.8,1.8,1.8v7.6c0,0.2,0.2,0.4,0.4,0.4h1.1c0.4,0,0.7,0.3,0.7,0.7v4.3
					c0,0.4-0.3,0.7-0.7,0.7L0.7,28.6z M1.8,24.3c-0.2,0-0.4,0.2-0.4,0.4l0,0v2.2c0,0.2,0.2,0.4,0.4,0.4c0,0,0,0,0,0h30.4
					c0.2,0,0.4-0.2,0.4-0.4l0,0v-2.2c0-0.2-0.2-0.4-0.4-0.4c0,0,0,0,0,0H1.8z M8.3,16.6c-0.1,0-0.2,0.1-0.3,0.1
					c-0.9,1.3-2.5,2.1-4.1,2.1c-0.2,0-0.4,0.2-0.4,0.4c0,0,0,0,0,0v3.3c0,0.2,0.2,0.4,0.4,0.4c0,0,0,0,0,0h26c0.2,0,0.4-0.2,0.4-0.4
					l0,0v-3.3c0-0.2-0.2-0.4-0.4-0.4c0,0,0,0,0,0c-1.6,0-3.1-0.8-4.1-2.1c-0.1-0.2-0.3-0.2-0.5-0.1c0,0-0.1,0-0.1,0.1
					c-1.6,2.2-4.8,2.7-7,1.1c-0.4-0.3-0.8-0.7-1.1-1.1c-0.1-0.2-0.3-0.2-0.5-0.1c0,0-0.1,0-0.1,0.1c-1.6,2.2-4.8,2.7-7,1.1
					c-0.4-0.3-0.8-0.7-1.1-1.1C8.5,16.7,8.4,16.6,8.3,16.6L8.3,16.6z M27,14.5c-0.2,0-0.4,0.2-0.4,0.4c0,0,0,0.1,0,0.1
					c0.5,1.4,1.9,2.4,3.4,2.4c0.2,0,0.4-0.2,0.4-0.4c0,0,0,0,0,0v-2.2c0-0.2-0.2-0.4-0.4-0.4c0,0,0,0,0,0L27,14.5z M18.3,14.5
					c-0.2,0-0.4,0.2-0.4,0.4c0,0,0,0.1,0,0.1c0.7,1.9,2.7,2.9,4.6,2.2c1-0.4,1.8-1.2,2.2-2.2c0.1-0.2,0-0.4-0.2-0.5c0,0-0.1,0-0.1,0
					H18.3z M9.6,14.5c-0.2,0-0.4,0.2-0.4,0.4c0,0,0,0.1,0,0.1c0.7,1.9,2.7,2.9,4.6,2.2c1-0.4,1.8-1.2,2.2-2.2c0.1-0.2,0-0.4-0.2-0.5
					c0,0-0.1,0-0.1,0H9.6z M4,14.5c-0.2,0-0.4,0.2-0.4,0.4c0,0,0,0,0,0V17c0,0.2,0.2,0.4,0.4,0.4c0,0,0,0,0,0c1.5,0,2.9-1,3.4-2.4
					c0.1-0.2,0-0.4-0.2-0.5c0,0-0.1,0-0.1,0L4,14.5z M7.2,5.8C7,5.8,6.9,6,6.9,6.2v6.5C6.9,12.9,7,13,7.2,13c0,0,0,0,0,0h19.5
					c0.2,0,0.4-0.2,0.4-0.4c0,0,0,0,0,0V6.2c0-0.2-0.2-0.4-0.4-0.4c0,0,0,0,0,0H7.2z"/>
			</g>
			<g transform="translate(9.768)">
				<path class="st1" d="M0,0.7L0,0.7C0,0.3,0.3,0,0.7,0l0,0c0.4,0,0.7,0.3,0.7,0.7l0,0c0,0.4-0.3,0.7-0.7,0.7l0,0
					C0.3,1.5,0,1.1,0,0.7z"/>
			</g>
			<g transform="translate(16.281)">
				<path class="st1" d="M0,0.7L0,0.7C0,0.3,0.3,0,0.7,0l0,0c0.4,0,0.7,0.3,0.7,0.7l0,0c0,0.4-0.3,0.7-0.7,0.7l0,0
					C0.3,1.5,0,1.1,0,0.7z"/>
			</g>
			<g transform="translate(22.792)">
				<path class="st1" d="M0,0.7L0,0.7C0,0.3,0.3,0,0.7,0l0,0c0.4,0,0.7,0.3,0.7,0.7l0,0c0,0.4-0.3,0.7-0.7,0.7l0,0
					C0.3,1.5,0,1.1,0,0.7z"/>
			</g>
		</g>
	</g>
	<g transform="translate(-168 1932.152)">
		<g transform="translate(105.892 -9.602)">
			<g transform="translate(191.566 263.207)">
				<path class="st0" d="M13.6,0l4,2.3l4.2,1.3L26.6,4L27,9.6l-0.6,4.8L24.9,20l-2,3.6l-1.7,2.1l-1.9,1.9l-3.4,2.6l-2.2,0.7
					l-3.4-1.2l-3.3-2.5l-2.4-3.5L3.1,21l-2.2-6.4L0,7.2l0.9-3.5l6-0.6l5-2.1L13.6,0z"/>
			</g>
			<g transform="translate(191.108 262.452)">
				<path class="st1" d="M14.1,32.3c-0.2,0-0.3,0-0.5-0.1C-0.2,28.1-0.2,10.7,0.1,5.5C0.1,4.6,0.9,4,1.7,4h0.1c0.3,0,0.6,0,0.9,0
					c3.8,0,7.4-1.3,10.4-3.6c0.6-0.5,1.4-0.5,2,0c3,2.3,6.6,3.6,10.4,3.6c0.3,0,0.6,0,0.9,0h0c0.9,0,1.7,0.7,1.7,1.6
					c0.3,5.2,0.2,22.5-13.6,26.7C14.4,32.3,14.3,32.3,14.1,32.3L14.1,32.3z M1.7,5.3c-0.2,0-0.3,0.1-0.3,0.3
					C1.1,12,1.8,27.2,14,30.9c0,0,0.1,0,0.1,0c0,0,0.1,0,0.1,0C27,27,27,10.6,26.7,5.7c0-0.2-0.2-0.3-0.3-0.3h0c-0.3,0-0.6,0-0.9,0
					c-4.1,0-8-1.4-11.2-3.9c-0.1,0-0.1-0.1-0.2-0.1c-0.1,0-0.1,0-0.2,0.1C10.7,4,6.7,5.3,2.6,5.4C2.3,5.4,2,5.4,1.7,5.3L1.7,5.3z"/>
			</g>
		</g>
		<circle class="st2" cx="311" cy="268" r="8"/>
		<g transform="translate(305.723 264)">
			<path class="st0" d="M10.1,0.2c-0.2-0.2-0.6-0.2-0.9,0l0,0l-6,6L1.1,4C0.9,3.8,0.5,3.8,0.2,4c-0.3,0.2-0.3,0.6-0.1,0.9
				c0,0,0,0,0,0l0,0l2.6,2.6c0.3,0.3,0.7,0.3,0.9,0l6.4-6.4C10.3,0.8,10.3,0.4,10.1,0.2L10.1,0.2z"/>
		</g>
	</g>
	<g transform="translate(178.006 2156.984)">
		<g transform="translate(30.658 29.67)">
			<path class="st0" d="M28.2,12.5v16.9h-8.5v-9.2h-6.8v9.3l-8.5,0V12.5l11.9-8.8L28.2,12.5z"/>
			<path class="st4" d="M29.9,15.8L16.3,5.3L2.6,15.8L0,12.3L16.3,0l16.3,12.3L29.9,15.8z"/>
			<path class="st4" d="M8.8,6.8V2.6H4.4v7.7L8.8,6.8z"/>
		</g>
		<g transform="translate(29.996 29.012)">
			<path class="st1" d="M8.1,12.8c0.2,0.3,0.2,0.7-0.1,0.9c0,0,0,0,0,0l-0.1,0.1C7.7,14,7.2,14,7,13.7c-0.2-0.3-0.2-0.7,0.1-0.9
				c0,0,0,0,0.1,0l0.1-0.1C7.5,12.4,7.9,12.5,8.1,12.8z M33.8,13.4l-2.6,3.5c-0.1,0.1-0.3,0.2-0.4,0.3c0,0-0.1,0-0.1,0
				c-0.1,0-0.3,0-0.4-0.1l-0.7-0.5v13.7c0,0.4-0.3,0.7-0.7,0.7l0,0h-8.5c-0.4,0-0.7-0.3-0.7-0.7c0,0,0,0,0,0v-8.6h-5.5v8.6
				c0,0.4-0.3,0.7-0.7,0.7l0,0l-8.5,0c-0.4,0-0.7-0.3-0.7-0.7l0,0V16.5L3.7,17c-0.3,0.2-0.7,0.2-0.9-0.1c0,0,0,0,0,0l-2.6-3.5
				c-0.2-0.3-0.2-0.7,0.1-0.9c0,0,0,0,0,0l4.1-3.1v-6c0-0.4,0.3-0.7,0.7-0.7h4.4c0.4,0,0.7,0.3,0.7,0.7V5l6.4-4.9
				c0.2-0.2,0.6-0.2,0.8,0l16.3,12.3C33.9,12.7,34,13.1,33.8,13.4L33.8,13.4z M5.7,8.3L8.8,6V4H5.7L5.7,8.3z M32.3,13.1l-3-2.3
				L17,1.5L1.6,13.1l1.8,2.5L5,14.3c0.3-0.2,0.7-0.2,0.9,0.1c0.2,0.3,0.2,0.7-0.1,0.9c0,0,0,0,0,0l-0.1,0.1v14l7.2,0v-8.6
				c0-0.4,0.3-0.7,0.7-0.7l0,0h6.8c0.4,0,0.7,0.3,0.7,0.7v8.6h7.2v-14L17,6.8l-6.8,5.3c-0.3,0.2-0.7,0.2-0.9-0.1
				c-0.2-0.3-0.2-0.7,0.1-0.9c0,0,0,0,0.1,0l7.2-5.6c0.2-0.2,0.6-0.2,0.8,0l13.1,10.2L32.3,13.1z"/>
		</g>
	</g>
	<g transform="translate(-409.445 -24.423)">
		<path class="st4" d="M876.8,2229.3c-7.4-7.4-7.5-12.6-6.9-15.8c1.6-0.7,3.3-1,5-1c1.4,1.7,2.2,3.7,2.4,5.9c-0.7,0.5-1.4,1-2.1,1.4
			c1.8,5.2,5.9,9.3,11.1,11.1c0.4-0.8,0.9-1.5,1.4-2.1c2.2,0.2,4.2,1,5.9,2.4c0,1.7-0.3,3.5-1,5
			C889.5,2236.8,884.3,2236.8,876.8,2229.3z"/>
		<path class="st1" d="M893.2,2236.8l-0.4,0.1c-3.4,0.6-8.8,0.6-16.4-7.1s-7.7-13-7.1-16.4l0.1-0.4l0.3-0.1c1.7-0.7,3.5-1.1,5.3-1
			l0.3,0l0.2,0.3c1.5,1.8,2.4,4,2.5,6.3l0,0.4l-0.4,0.3c-0.5,0.4-1.1,0.8-1.6,1.1c1.7,4.6,5.3,8.2,9.9,9.9c0.3-0.6,0.7-1.1,1.1-1.6
			l0.3-0.4l0.4,0c2.3,0.2,4.5,1,6.3,2.5l0.3,0.2l0,0.3c0,1.8-0.3,3.6-1,5.3L893.2,2236.8z M870.6,2214c-0.5,3.1-0.2,7.9,6.7,14.8
			c6.9,6.9,11.7,7.2,14.8,6.7c0.5-1.3,0.8-2.7,0.8-4.1c-1.4-1.1-3.1-1.8-4.9-2c-0.4,0.5-0.8,1.1-1.1,1.7l-0.3,0.6l-0.6-0.2
			c-5.4-1.8-9.7-6.1-11.5-11.5l-0.2-0.6l0.6-0.3c0.6-0.3,1.2-0.7,1.7-1.1c-0.2-1.8-0.9-3.5-2-4.9
			C873.3,2213.2,871.9,2213.5,870.6,2214L870.6,2214z"/>
	</g>
	<g transform="translate(149.557 1936.18)">
		<g transform="translate(142.853 255.119)">
			<path class="st0" d="M0.9,0l9.9,8.5L0.9,18.9l-0.6-1L0,0.5L0.9,0z"/>
		</g>
		<g transform="translate(161.115 255.119)">
			<path class="st0" d="M9.9,0L0,8.5l9.9,10.4l0.6-1l0.3-17.5L9.9,0z"/>
		</g>
		<g transform="translate(143.928 254.465)">
			<path class="st4" d="M0.3,0h27l-2,2.7l-10.9,9.1h-1.8L0,0.7L0.3,0z"/>
		</g>
		<g transform="translate(144.415 264.617)">
			<path class="st0" d="M0.3,9.7H26c0.2,0,0.3-0.2,0.3-0.3c0-0.1,0-0.2-0.1-0.2l-9-9c-0.1-0.1-0.3-0.1-0.5,0l-1.2,1
				c-1.4,1.2-3.4,1.2-4.8,0l-1.2-1C9.4,0,9.2,0,9.1,0.1l-9,9C0,9.2,0,9.5,0.1,9.6C0.2,9.6,0.3,9.7,0.3,9.7L0.3,9.7z"/>
		</g>
		<g transform="translate(142.443 253.822)">
			<path class="st1" d="M2.6,21.5c-1.4,0-2.6-1.2-2.6-2.6V2.6C0,1.2,1.2,0,2.6,0h25.1c1.4,0,2.6,1.2,2.6,2.6v16.3
				c0,1.4-1.2,2.6-2.6,2.6L2.6,21.5z M11.5,11.1c-0.1,0-0.2,0-0.2,0.1l-8.5,8.5c-0.1,0.1-0.1,0.3,0,0.4c0.1,0.1,0.1,0.1,0.2,0.1
				h24.1c0.2,0,0.3-0.1,0.3-0.3c0-0.1,0-0.2-0.1-0.2l-8.5-8.5c-0.1-0.1-0.1-0.1-0.2-0.1c-0.1,0-0.1,0-0.2,0.1l-1.1,1
				c-1.3,1.1-3.2,1.1-4.5,0l-1.1-1C11.7,11.1,11.6,11.1,11.5,11.1L11.5,11.1z M28.7,2.6c-0.1,0-0.1,0-0.2,0.1L20,9.9
				c-0.1,0.1-0.1,0.3,0,0.4c0,0,0,0,0,0l8.5,8.5c0.1,0.1,0.3,0.1,0.4,0c0.1-0.1,0.1-0.1,0.1-0.2V2.9c0-0.1-0.1-0.2-0.2-0.3
				C28.7,2.6,28.7,2.6,28.7,2.6L28.7,2.6z M1.6,2.6c0,0-0.1,0-0.1,0C1.4,2.6,1.3,2.8,1.3,2.9v15.7c0,0.1,0.1,0.2,0.2,0.3
				c0.1,0,0.3,0,0.3-0.1l8.5-8.5c0.1-0.1,0.1-0.3,0-0.4c0,0,0,0,0,0L1.8,2.6C1.8,2.6,1.7,2.6,1.6,2.6L1.6,2.6z M3.1,1.3
				c-0.2,0-0.3,0.1-0.3,0.3c0,0.1,0,0.2,0.1,0.2l10.8,9.3c0.8,0.7,2,0.7,2.9,0l10.8-9.3c0.1-0.1,0.1-0.3,0-0.4
				c-0.1-0.1-0.1-0.1-0.2-0.1L3.1,1.3z"/>
		</g>
	</g>
	<g transform="translate(131 1873.393)">
		<path class="st4" d="M256.6,316.9c0.5-0.1,4.6,0,4.6,0l4.5,3.7l1,4.5l-1.6,4l-6.8,9.8l-7.8-11.4v-4.9l2.9-3.6
			C254.3,318.1,255.4,317.4,256.6,316.9z"/>
		<circle class="st0" cx="257.9" cy="324.8" r="3.8"/>
		<g transform="translate(249 315.6)">
			<g transform="translate(4.575 4.575)">
				<g>
					<path class="st1" d="M4.6,0.1C2,0.1,0,2.1,0,4.7s2,4.6,4.6,4.6s4.6-2,4.6-4.6c0,0,0,0,0,0C9.2,2.1,7.1,0.1,4.6,0.1z M4.6,7.7
						c-1.7,0-3-1.4-3-3v0c0-1.7,1.4-3,3-3c1.7,0,3,1.4,3,3S6.3,7.7,4.6,7.7z"/>
				</g>
			</g>
			<path class="st1" d="M9.2,24.4L9.2,24.4c-0.2,0-0.5-0.1-0.6-0.3l-6.8-9.5c0,0-0.1-0.1-0.1-0.1c-2.9-4.1-1.9-9.8,2.2-12.8
				C8-1.2,13.7-0.3,16.6,3.9c2.2,3.2,2.2,7.4,0,10.6l0,0l-6.8,9.6C9.6,24.3,9.4,24.4,9.2,24.4L9.2,24.4z M2.9,13.5
				C2.9,13.5,2.9,13.5,2.9,13.5l6.3,8.9l6.2-8.7c0-0.1,0.1-0.1,0.1-0.2c2.4-3.5,1.5-8.2-2-10.6C10,0.5,5.2,1.4,2.9,4.8
				C1.1,7.4,1.1,10.9,2.9,13.5L2.9,13.5z"/>
		</g>
	</g>
</g>
</svg>
