<svg xmlns="http://www.w3.org/2000/svg" width="38.314" height="27.208" viewBox="0 0 38.314 27.208">
  <g id="Email_Icon" data-name="Email Icon" transform="translate(-142.443 -253.822)">
    <g id="Group_5468" data-name="Group 5468" transform="translate(142.962 255.464)">
      <g id="Group_5467" data-name="Group 5467">
        <path id="Path_12855" data-name="Path 12855" d="M144.163,255.708,156.7,266.526l-12.537,13.1-.8-1.24-.327-22.1Z" transform="translate(-143.039 -255.708)" fill="#fff"/>
      </g>
    </g>
    <g id="Group_5470" data-name="Group 5470" transform="translate(166.08 255.464)">
      <g id="Group_5469" data-name="Group 5469">
        <path id="Path_12856" data-name="Path 12856" d="M182.125,255.708l-12.537,10.819,12.537,13.1.8-1.24.327-22.1Z" transform="translate(-169.588 -255.708)" fill="#fff"/>
      </g>
    </g>
    <g id="Group_5472" data-name="Group 5472" transform="translate(144.323 254.636)">
      <g id="Group_5471" data-name="Group 5471">
        <path id="Path_12857" data-name="Path 12857" d="M144.983,254.757h34.124l-2.558,3.374L162.78,269.614h-2.286L144.6,255.682Z" transform="translate(-144.602 -254.757)" fill="#e4e8ff"/>
      </g>
    </g>
    <g id="Group_5474" data-name="Group 5474" transform="translate(144.94 267.488)">
      <g id="Group_5473" data-name="Group 5473" transform="translate(0)">
        <path id="Path_12858" data-name="Path 12858" d="M145.737,281.776h32.469a.427.427,0,0,0,.3-.728L167.1,269.641a.427.427,0,0,0-.579-.022l-1.5,1.282a4.668,4.668,0,0,1-6.109,0l-1.5-1.283a.427.427,0,0,0-.578.023l-11.407,11.406a.427.427,0,0,0,.3.728Z" transform="translate(-145.31 -269.516)" fill="#fff"/>
      </g>
    </g>
    <g id="Group_5477" data-name="Group 5477" transform="translate(142.443 253.822)">
      <g id="Group_5476" data-name="Group 5476">
        <g id="Group_5475" data-name="Group 5475">
          <path id="Path_12859" data-name="Path 12859" d="M145.709,281.03a3.27,3.27,0,0,1-3.266-3.266V257.087a3.27,3.27,0,0,1,3.266-3.265h31.782a3.269,3.269,0,0,1,3.266,3.265v20.676a3.27,3.27,0,0,1-3.266,3.266Zm11.347-13.181a.4.4,0,0,0-.284.118L146.037,278.7a.4.4,0,0,0,.284.685h30.56a.4.4,0,0,0,.283-.685l-10.736-10.736a.4.4,0,0,0-.284-.118.4.4,0,0,0-.261.1l-1.408,1.206a4.392,4.392,0,0,1-5.749,0l-1.408-1.208A.4.4,0,0,0,157.056,267.849Zm21.657-10.775a.406.406,0,0,0-.261.1l-10.708,9.18a.4.4,0,0,0-.023.589l10.708,10.708a.4.4,0,0,0,.685-.283V257.474a.4.4,0,0,0-.233-.364A.4.4,0,0,0,178.714,257.073Zm-34.227,0a.4.4,0,0,0-.168.037.4.4,0,0,0-.233.364v19.889a.4.4,0,0,0,.248.37.4.4,0,0,0,.437-.087l10.708-10.708a.4.4,0,0,0-.023-.588l-10.708-9.181A.4.4,0,0,0,144.487,257.073Zm1.877-1.609a.4.4,0,0,0-.261.705l13.69,11.736a2.765,2.765,0,0,0,3.614,0L177.1,256.17a.4.4,0,0,0-.26-.705Z" transform="translate(-142.443 -253.822)" fill="#19339a"/>
        </g>
      </g>
    </g>
  </g>
</svg>
