<svg xmlns="http://www.w3.org/2000/svg" xmlns:xlink="http://www.w3.org/1999/xlink" width="39.577" height="46.078" viewBox="0 0 39.577 46.078">
  <defs>
    <clipPath id="clip-path">
      <rect id="Rectangle_10167" data-name="Rectangle 10167" width="39.577" height="46.078" fill="none"/>
    </clipPath>
  </defs>
  <g id="Email_SMS_Icon" data-name="Email &amp; SMS Icon" transform="translate(0 0)">
    <g id="Group_29496" data-name="Group 29496" transform="translate(0 0)" clip-path="url(#clip-path)">
      <path id="Path_22463" data-name="Path 22463" d="M22.86.874H5.312a4.3,4.3,0,0,0-4.3,4.3V8.033H27.155V5.169a4.3,4.3,0,0,0-4.3-4.3" transform="translate(-0.289 -0.249)" fill="#e4e8ff"/>
      <path id="Path_22464" data-name="Path 22464" d="M22.862,60.521H5.314a4.3,4.3,0,0,1-4.3-4.3V53.362H27.157v2.864a4.3,4.3,0,0,1-4.3,4.3" transform="translate(-0.289 -15.159)" fill="#e4e8ff"/>
      <path id="Path_22465" data-name="Path 22465" d="M22.962,46.078H4.632A4.637,4.637,0,0,1,0,41.446V4.632A4.637,4.637,0,0,1,4.632,0h18.33a4.637,4.637,0,0,1,4.631,4.632V41.447a4.637,4.637,0,0,1-4.631,4.631M4.632,1.432a3.2,3.2,0,0,0-3.2,3.2V41.446a3.2,3.2,0,0,0,3.2,3.2h18.33a3.2,3.2,0,0,0,3.2-3.2V4.632a3.2,3.2,0,0,0-3.2-3.2Z" transform="translate(0 0)" fill="#19339a"/>
      <rect id="Rectangle_10165" data-name="Rectangle 10165" width="26.162" height="1.432" transform="translate(0.716 37.487)" fill="#19339a"/>
      <rect id="Rectangle_10166" data-name="Rectangle 10166" width="26.162" height="1.432" transform="translate(0.716 7.159)" fill="#19339a"/>
      <path id="Path_22466" data-name="Path 22466" d="M20.6,58.794H15.272a.716.716,0,1,1,0-1.432H20.6a.716.716,0,1,1,0,1.432" transform="translate(-4.135 -16.296)" fill="#19339a"/>
      <path id="Path_22467" data-name="Path 22467" d="M19.41,6.432h-1.4a.716.716,0,0,1,0-1.432h1.4a.716.716,0,0,1,0,1.432" transform="translate(-4.913 -1.421)" fill="#19339a"/>
      <path id="Path_22468" data-name="Path 22468" d="M21.411,20.8l8.155,7.04-8.155,8.527-.518-.807L20.68,21.184Z" transform="translate(-5.875 -5.909)" fill="#fff"/>
      <path id="Path_22469" data-name="Path 22469" d="M21.311,36.57l-.669-1.041-.215-14.54.936-.489,8.39,7.241ZM21,35.422l.367.572,7.868-8.226-7.92-6.838-.525.275Z" transform="translate(-5.803 -5.824)" fill="#19339a"/>
      <path id="Path_22470" data-name="Path 22470" d="M49.85,20.8,41.7,27.841l8.155,8.527.518-.807.213-14.378Z" transform="translate(-11.845 -5.909)" fill="#fff"/>
      <path id="Path_22471" data-name="Path 22471" d="M49.775,36.57l-8.442-8.827,8.39-7.242.936.49-.215,14.54Zm-7.923-8.8,7.868,8.227.367-.573.21-14.217-.525-.274Z" transform="translate(-11.742 -5.824)" fill="#19339a"/>
      <path id="Path_22472" data-name="Path 22472" d="M22.161,20.049h22.2l-1.665,2.2-8.96,7.472H32.253L21.914,20.651Z" transform="translate(-6.225 -5.696)" fill="#e4e8ff"/>
      <path id="Path_22473" data-name="Path 22473" d="M33.72,29.825H32.1L21.615,20.63l.341-.831H44.64l-1.882,2.483Zm-1.485-.358h1.356l8.909-7.43,1.42-1.879H22.2l-.153.372Z" transform="translate(-6.14 -5.625)" fill="#19339a"/>
      <path id="Path_22474" data-name="Path 22474" d="M22.755,39.707H43.886a.278.278,0,0,0,.2-.474L36.66,31.811a.277.277,0,0,0-.377-.014l-.973.835a3.038,3.038,0,0,1-3.975,0l-.974-.835a.277.277,0,0,0-.376.015l-7.423,7.421a.277.277,0,0,0,.2.474Z" transform="translate(-6.387 -9.014)" fill="#fff"/>
      <path id="Path_22475" data-name="Path 22475" d="M43.816,39.815H22.684a.457.457,0,0,1-.319-.779l7.423-7.422a.459.459,0,0,1,.619-.025l.974.836a2.875,2.875,0,0,0,3.742,0l.974-.835a.46.46,0,0,1,.619.023l7.423,7.423a.456.456,0,0,1-.321.779m-21.127-.358H43.815a.1.1,0,0,0,.069-.029.1.1,0,0,0,.029-.069.1.1,0,0,0-.029-.069l-7.423-7.423a.1.1,0,0,0-.133,0l-.973.835a3.235,3.235,0,0,1-4.209,0l-.973-.835a.1.1,0,0,0-.133.005l-7.423,7.422a.1.1,0,0,0,.07.168Z" transform="translate(-6.316 -8.943)" fill="#19339a"/>
      <path id="Path_22476" data-name="Path 22476" d="M22.333,37.012a2.127,2.127,0,0,1-2.125-2.126V21.432a2.127,2.127,0,0,1,2.125-2.126H43.014a2.127,2.127,0,0,1,2.125,2.126V34.885a2.128,2.128,0,0,1-2.125,2.126Zm7.384-8.577a.265.265,0,0,0-.185.077L22.545,35.5a.262.262,0,0,0,.185.446H42.615A.262.262,0,0,0,42.8,35.5l-6.987-6.982a.258.258,0,0,0-.184-.077.252.252,0,0,0-.17.062l-.917.785a2.859,2.859,0,0,1-3.74,0l-.916-.786a.262.262,0,0,0-.171-.067Zm14.092-7.012a.267.267,0,0,0-.17.063L36.671,27.46a.262.262,0,0,0-.029.368l.015.015,6.967,6.968a.261.261,0,0,0,.445-.185V21.684a.26.26,0,0,0-.256-.261Zm-22.271,0a.262.262,0,0,0-.261.261V34.627a.261.261,0,0,0,.165.241.247.247,0,0,0,.1.019.253.253,0,0,0,.184-.077l6.969-6.967a.263.263,0,0,0,0-.369l-.015-.013L21.71,21.487A.267.267,0,0,0,21.537,21.424Zm1.221-1.047a.261.261,0,0,0-.17.459L31.5,28.473a1.8,1.8,0,0,0,2.351,0l8.908-7.636a.261.261,0,0,0-.17-.459Z" transform="translate(-5.741 -5.485)" fill="#19339a"/>
      <path id="Path_22477" data-name="Path 22477" d="M22.262,37.12h0a2.31,2.31,0,0,1-2.3-2.3V21.361a2.311,2.311,0,0,1,2.3-2.3h20.68a2.31,2.31,0,0,1,2.3,2.3V34.814a2.311,2.311,0,0,1-2.3,2.3Zm0-17.706a1.953,1.953,0,0,0-1.947,1.947V34.816a1.952,1.952,0,0,0,1.947,1.946H42.941a1.952,1.952,0,0,0,1.947-1.947V21.361a1.951,1.951,0,0,0-1.947-1.947ZM42.545,36.052H22.66a.44.44,0,0,1-.311-.751l6.987-6.986a.422.422,0,0,1,.132-.091V28.18l.182,0a.437.437,0,0,1,.289.114l.912.782a2.694,2.694,0,0,0,3.507,0l.917-.786a.433.433,0,0,1,.284-.105h0a.442.442,0,0,1,.311.129L42.856,35.3a.44.44,0,0,1-.311.752M29.661,28.543h-.015a.084.084,0,0,0-.058.024L22.6,35.554a.082.082,0,0,0,0,.116.085.085,0,0,0,.058.024H42.545a.082.082,0,0,0,.058-.14l-6.986-6.983a.083.083,0,0,0-.058-.024h0a.081.081,0,0,0-.052.019l-.917.786a3.053,3.053,0,0,1-3.974,0l-.915-.785a.1.1,0,0,0-.04-.022M43.738,35a.437.437,0,0,1-.311-.129L36.459,27.9a.454.454,0,0,1-.127-.345.434.434,0,0,1,.152-.3l6.968-5.974a.445.445,0,0,1,.285-.106h.006a.433.433,0,0,1,.179.039.441.441,0,0,1,.257.4V34.556a.435.435,0,0,1-.129.311.44.44,0,0,1-.311.129m0-13.643v.179a.084.084,0,0,0-.054.021l-6.967,5.973a.08.08,0,0,0-.029.056.081.081,0,0,0,.019.059l6.972,6.973a.082.082,0,0,0,.116,0,.081.081,0,0,0,.024-.058V21.613a.081.081,0,0,0-.048-.074ZM21.47,35h0a.439.439,0,0,1-.168-.034.434.434,0,0,1-.274-.4V21.614a.44.44,0,0,1,.256-.4.431.431,0,0,1,.183-.041h0a.448.448,0,0,1,.288.105l6.969,5.974a.447.447,0,0,1,.025.644L21.78,34.866a.44.44,0,0,1-.31.13m-.005-13.464a.085.085,0,0,0-.033.007.083.083,0,0,0-.049.074V34.556a.081.081,0,0,0,.051.074c.057.008.077,0,.092-.016L28.5,27.645a.094.094,0,0,0,0-.116l-6.972-5.977a.086.086,0,0,0-.056-.02ZM32.6,29.015a1.975,1.975,0,0,1-1.293-.478L22.4,20.9a.439.439,0,0,1,.284-.774H42.519a.44.44,0,0,1,.284.775l-8.908,7.635a1.974,1.974,0,0,1-1.292.478m-9.916-8.53a.081.081,0,0,0-.081.081.079.079,0,0,0,.029.063l8.909,7.637a1.629,1.629,0,0,0,2.118,0L42.57,20.63a.081.081,0,0,0,.011-.115.082.082,0,0,0-.063-.029H22.686Z" transform="translate(-5.669 -5.414)" fill="#19339a"/>
    </g>
  </g>
</svg>
