<?xml version="1.0" encoding="UTF-8"?>
<svg width="304px" height="69px" viewBox="0 0 304 69" version="1.1" xmlns="http://www.w3.org/2000/svg" xmlns:xlink="http://www.w3.org/1999/xlink">
    <title>Group 3</title>
    <g id="Page-1" stroke="none" stroke-width="1" fill="none" fill-rule="evenodd">
        <g id="Group-3">
            <rect id="Rectangle" fill-opacity="0" fill="#D8D8D8" x="0" y="0" width="304" height="69"></rect>
            <g id="amone-(1)" fill-rule="nonzero">
                <path d="M42.6,46.3 L13.5,46.3 L5.7,67.1 L0.3,67.1 L25.5,2.2 L31.2,2.2 L56.3,67.1 L50.6,67.1 L42.6,46.3 Z M15.3,41.5 L40.8,41.5 L28,7.9 L15.3,41.5 Z" id="Shape" fill="#19339A"></path>
                <path d="M61.1,67.1 L61.1,34.1 C61.1,28.6 62.6,24.7 65.6,22.3 C68.6,20 72.9,18.8 78.2,18.8 C82.1,18.8 85.4,19.4 87.8,20.7 C90.1,21.8 91.8,23.6 92.9,25.8 C94,23.5 95.9,21.8 98.2,20.7 C101.1,19.3 104.3,18.7 107.6,18.8 C110,18.8 112.4,19 114.8,19.6 C116.8,20.1 118.6,20.9 120.2,22.2 C121.7,23.5 122.9,25.1 123.6,26.9 C124.4,29.2 124.9,31.7 124.8,34.2 L124.8,67.2 L119.5,67.2 L119.5,34.5 C119.5,30.3 118.6,27.5 116.7,25.8 C114.8,24.1 111.8,23.3 107.6,23.3 C103.4,23.3 100.4,24.1 98.5,25.6 C96.6,27.2 95.6,30 95.6,34 L95.6,67 L90.2,67 L90.2,34.5 C90.2,30.3 89.2,27.5 87.3,25.8 C85.4,24.1 82.3,23.3 78.2,23.3 C73.7,23.3 70.6,24.2 69,26 C67.3,27.8 66.4,30.6 66.4,34.5 L66.4,67 L61.1,67 L61.1,67.1 Z" id="Path" fill="#19339A"></path>
                <path d="M161.7,68.7 C156.9,68.8 152,68.2 147.4,67 C143.8,66.1 140.6,64.4 138,61.9 C135.5,59.4 133.7,56.3 132.9,52.9 C131.8,48.5 131.3,44.1 131.4,39.5 L131.4,29.5 C131.3,25 131.8,20.7 132.9,16.4 C133.8,13 135.5,9.8 138,7.3 C140.6,4.8 143.9,3 147.4,2.1 C152.1,0.9 156.9,0.3 161.8,0.4 C166.6,0.3 171.5,0.9 176.2,2.1 C179.8,3 183,4.7 185.6,7.3 C188.1,9.9 189.8,13 190.7,16.4 C191.8,20.7 192.4,25.2 192.2,29.7 L192.2,39.7 C192.3,44.2 191.7,48.5 190.7,52.8 C189.8,56.2 188.1,59.4 185.6,61.9 C183,64.4 179.7,66.2 176.2,67.1 C171.5,68.3 166.6,68.8 161.7,68.7 Z M161.7,53.9 C163.7,54 165.8,53.7 167.7,53.3 C169.1,53 170.4,52.2 171.4,51.2 C172.4,49.9 173,48.4 173.2,46.8 C173.6,44.4 173.7,42 173.7,39.5 L173.7,29.7 C173.8,27.3 173.5,24.9 173.2,22.4 C173,20.8 172.4,19.3 171.4,18 C170.4,16.9 169.1,16.1 167.7,15.8 C163.7,15 159.6,15 155.6,15.8 C154.2,16.1 152.9,16.9 151.9,18 C150.9,19.3 150.2,20.8 150,22.4 C149.6,24.8 149.5,27.2 149.5,29.7 L149.5,39.5 C149.4,41.9 149.7,44.3 150,46.8 C150.2,48.4 150.8,49.9 151.9,51.2 C152.9,52.3 154.2,53.1 155.6,53.4 C157.7,53.7 159.7,53.9 161.7,53.9 Z" id="Shape" fill="#19339A"></path>
                <polygon id="Path" fill="#19339A" points="211.7 2.2 196.7 2.2 196.7 67.1 213.6 67.1 213.6 30.7 239.7 67.1 254.2 67.1 254.2 62.2"></polygon>
                <polygon id="Path" fill="#F9892A" points="254.2 2.2 227.2 2.2 254.2 40.6"></polygon>
                <polygon id="Path" fill="#19339A" points="303.3 27.2 276.8 27.2 276.8 16.2 303.3 16.2 303.3 2.2 259.6 2.2 259.6 67.1 303.3 67.1 303.3 53.1 276.8 53.1 276.8 41.2 303.3 41.2"></polygon>
            </g>
        </g>
    </g>
</svg>
