<svg xmlns="http://www.w3.org/2000/svg" width="12.65" height="12.078" viewBox="0 0 12.65 12.078">
  <g id="star" transform="translate(108.007 46.064)">
    <path id="Path_22478" data-name="Path 22478" d="M15.3,10.009,12.624,12.7l.59,3.752a.489.489,0,0,1-.706.513L9.123,15.238,5.739,16.957a.489.489,0,0,1-.706-.513l.59-3.752L2.942,10.009a.49.49,0,0,1,.268-.831l3.752-.6L8.686,5.2a.492.492,0,0,1,.874,0l1.726,3.38,3.752.6a.49.49,0,0,1,.268.831Z" transform="translate(-110.805 -51)" fill="#19339a" fill-rule="evenodd"/>
  </g>
</svg>
